{"glyphs":{"0":{"ha":743,"x_min":54,"x_max":692,"o":"m 692 432 q 372 -22 676 -22 q 54 428 54 -22 q 124 751 54 629 q 371 894 204 894 q 625 763 543 894 q 692 432 697 644 m 589 429 q 551 699 592 611 q 368 810 499 815 q 154 428 156 799 q 192 179 151 265 q 371 65 243 65 q 589 429 586 68 z "},"1":{"ha":743,"x_min":263,"x_max":419,"o":"m 419 0 l 299 0 q 315 176 314 53 l 315 433 q 315 663 315 582 q 314 758 315 743 q 263 758 294 761 l 263 794 q 353 864 315 811 q 407 840 410 864 q 406 726 406 829 q 406 425 406 624 l 406 176 q 419 0 408 49 z "},"2":{"ha":743,"x_min":103,"x_max":638,"o":"m 638 -6 q 470 1 542 -1 q 349 1 399 3 q 251 3 313 3 q 103 0 190 3 l 103 49 q 168 116 122 68 q 289 240 214 164 q 407 363 379 331 q 507 524 478 446 q 532 640 532 586 q 481 765 532 718 q 371 807 436 807 q 232 736 278 808 q 199 633 204 692 l 117 633 q 128 692 118 661 q 185 803 147 761 q 375 879 247 872 q 553 817 486 883 q 618 686 603 767 q 622 639 622 663 q 431 272 622 474 l 243 75 l 483 75 q 561 89 551 75 q 574 129 572 104 l 638 129 q 638 -6 632 50 z "},"3":{"ha":743,"x_min":136,"x_max":640,"o":"m 640 243 q 564 64 640 136 q 335 -11 478 -18 q 136 26 204 -4 l 167 114 q 225 90 218 92 q 339 69 282 71 q 483 112 426 68 q 546 235 540 156 q 479 388 551 328 q 331 436 414 440 q 329 525 329 439 q 457 564 406 519 q 510 669 507 608 q 474 768 513 732 q 378 803 436 804 q 279 765 322 800 q 213 660 231 725 l 142 689 q 221 822 161 769 q 364 879 281 874 q 542 825 476 886 q 600 688 597 771 q 560 561 601 618 q 439 486 514 500 q 590 396 540 463 q 640 243 640 333 z "},"4":{"ha":743,"x_min":107,"x_max":639,"o":"m 639 213 q 596 220 618 218 q 550 224 574 222 l 550 81 q 554 47 551 67 q 564 0 557 28 l 443 0 q 456 48 451 29 q 461 74 460 67 l 461 225 q 107 225 329 226 l 107 290 q 197 419 154 358 q 276 535 239 481 q 419 750 365 665 q 496 875 474 835 q 522 875 497 876 q 550 874 549 875 l 550 726 l 550 451 l 550 303 q 588 304 565 301 q 639 313 611 307 l 639 213 m 460 299 q 460 524 460 433 q 461 664 460 615 q 351 510 414 600 q 210 300 289 419 q 363 298 301 299 q 460 299 425 297 z "},"5":{"ha":743,"x_min":90,"x_max":629,"o":"m 629 300 q 571 107 629 192 q 404 -11 510 15 q 283 -25 354 -25 q 90 3 182 -25 l 119 90 q 286 58 211 58 q 464 124 390 58 q 539 293 536 188 q 464 465 540 399 q 243 535 382 535 q 216 534 229 535 q 189 532 203 533 q 161 500 167 526 l 103 500 q 93 872 103 833 q 289 864 201 865 q 416 865 344 863 q 576 871 488 867 q 576 757 571 828 l 507 757 q 503 775 506 772 q 496 782 500 778 q 407 793 488 793 l 182 793 q 179 705 179 749 q 181 618 179 661 q 211 620 196 619 q 242 621 226 621 q 540 521 436 621 q 629 300 629 433 z "},"6":{"ha":743,"x_min":101,"x_max":650,"o":"m 650 226 q 581 53 649 125 q 386 -26 507 -26 q 169 57 246 -26 q 101 279 92 143 q 115 376 104 331 q 144 461 126 421 q 268 647 179 540 q 549 892 374 779 l 604 826 q 568 804 586 815 q 532 781 550 793 q 451 715 489 749 q 376 644 413 681 q 213 401 261 518 q 394 476 285 476 q 585 401 514 476 q 650 226 653 333 m 565 225 q 555 294 567 263 q 520 350 543 326 q 465 387 497 374 q 390 400 432 400 q 332 392 361 400 q 276 369 303 383 q 226 335 249 354 q 186 294 203 315 q 182 249 182 271 q 238 103 182 157 q 392 47 294 49 q 460 60 429 47 q 515 98 492 74 q 551 155 538 122 q 565 225 564 188 z "},"7":{"ha":743,"x_min":110,"x_max":678,"o":"m 678 819 q 438 425 515 611 q 375 221 397 326 q 347 0 353 115 q 243 0 243 -3 q 321 369 269 224 q 416 579 357 475 q 556 788 475 683 l 278 788 q 192 769 206 788 q 179 719 181 757 l 110 719 q 110 871 117 822 q 269 866 199 868 q 396 864 340 864 q 678 872 482 864 l 678 819 z "},"8":{"ha":743,"x_min":96,"x_max":654,"o":"m 654 240 q 588 69 654 138 q 379 -10 513 -10 q 164 71 242 -11 q 96 247 96 140 q 154 415 96 342 q 307 493 213 489 q 185 547 232 493 q 140 668 140 599 q 199 813 139 753 q 379 879 265 881 q 553 815 492 876 q 608 679 608 760 q 561 549 608 604 q 442 493 514 493 q 597 414 536 493 q 654 240 656 340 m 525 682 q 489 771 525 735 q 379 810 450 810 q 263 767 306 810 q 224 674 224 729 q 263 581 224 615 q 381 539 306 539 q 489 583 449 539 q 525 682 526 624 m 564 240 q 521 379 567 324 q 383 443 469 443 q 239 383 294 443 q 188 250 190 328 q 233 122 186 174 q 381 64 285 67 q 515 118 465 64 q 564 240 561 167 z "},"9":{"ha":743,"x_min":97,"x_max":650,"o":"m 650 569 q 635 473 646 519 q 602 380 624 426 q 549 285 581 333 q 474 183 517 238 q 319 36 406 100 q 261 -2 290 17 q 203 -40 232 -21 l 146 25 q 225 71 185 46 q 388 206 321 132 q 482 326 443 265 q 543 450 521 386 q 356 375 469 375 q 246 394 294 375 q 163 447 197 413 q 112 529 129 482 q 97 633 94 576 q 169 803 101 735 q 364 878 242 878 q 581 792 503 878 q 650 569 660 706 m 564 557 q 566 576 565 567 q 567 596 567 586 q 514 745 567 688 q 364 803 461 803 q 235 749 285 803 q 185 625 188 697 q 226 506 182 554 q 360 451 274 451 q 476 483 415 451 q 564 557 535 515 z "}," ":{"ha":553,"x_min":0,"x_max":0,"o":""},"!":{"ha":290,"x_min":96,"x_max":196,"o":"m 194 750 q 181 475 181 700 q 181 233 181 319 q 183 129 182 147 l 111 129 q 115 238 114 151 q 117 475 117 324 q 101 750 117 715 l 194 750 m 196 24 q 181 -12 196 3 q 146 -26 165 -26 q 110 -12 125 -26 q 96 24 96 3 q 110 59 96 44 q 146 74 125 74 q 181 59 165 74 q 196 24 196 44 z "},"\"":{"ha":340,"x_min":58,"x_max":282,"o":"m 151 869 l 126 624 l 58 624 l 61 875 l 151 869 m 282 869 l 257 624 l 189 624 l 192 875 l 282 869 z "},"#":{"ha":1115,"x_min":82,"x_max":1038,"o":"m 397 314 l 638 314 l 688 554 l 447 554 l 397 314 m 971 314 l 956 242 l 694 242 l 642 -1 l 569 -1 l 622 242 l 382 242 l 329 -1 l 257 -1 l 310 242 l 82 242 l 97 314 l 325 314 l 375 554 l 147 554 l 164 626 l 392 626 l 443 872 l 515 872 l 464 626 l 704 626 l 756 872 l 828 872 l 776 626 l 1038 626 l 1021 554 l 760 554 l 710 314 l 971 314 z "},"$":{"ha":733,"x_min":71,"x_max":678,"o":"m 381 376 l 381 69 q 513 106 447 63 q 581 242 592 156 q 508 338 572 311 q 444 357 476 347 q 381 376 413 367 m 332 490 l 332 796 q 212 747 260 792 q 164 635 164 703 q 165 620 164 628 q 167 606 165 613 q 214 533 175 556 q 332 490 233 522 m 381 -103 l 332 -103 l 332 -15 q 138 22 249 -18 q 75 32 99 36 q 79 172 75 69 l 132 172 q 171 124 136 149 q 332 67 246 69 l 332 392 q 153 463 200 431 q 71 619 71 519 q 149 800 71 726 q 332 878 222 868 l 332 976 l 381 976 l 381 881 q 521 854 415 881 q 596 840 589 839 q 596 787 596 821 q 597 701 596 753 l 544 701 q 522 756 536 746 q 381 797 469 790 q 382 469 381 469 q 457 457 386 475 q 581 406 531 438 q 678 217 685 340 q 575 42 671 106 q 381 -12 490 -14 l 381 -103 z "},"%":{"ha":944,"x_min":57,"x_max":886,"o":"m 886 217 q 726 -10 881 -10 q 568 215 568 -10 q 603 376 568 317 q 726 449 642 449 q 886 217 894 449 m 810 210 q 799 310 811 272 q 728 365 781 368 q 647 208 650 364 q 660 114 647 149 q 729 60 679 57 q 810 210 810 60 m 375 639 q 215 413 369 413 q 57 638 57 413 q 92 799 57 739 q 215 871 131 871 q 375 639 383 871 m 299 632 q 288 732 300 694 q 217 788 269 790 q 136 631 139 786 q 149 536 136 571 q 218 482 168 479 q 299 632 299 482 m 657 899 l 326 -122 l 265 -122 l 593 899 l 657 899 z "},"&":{"ha":772,"x_min":24,"x_max":746,"o":"m 746 0 l 626 0 l 549 97 q 440 14 510 44 q 293 -17 371 -17 q 180 3 231 -17 q 94 57 129 22 q 40 141 58 92 q 24 250 22 190 q 214 517 28 414 q 176 570 193 546 q 148 616 160 594 q 131 659 136 638 q 125 706 125 681 q 178 842 125 790 q 314 893 231 893 q 389 878 356 893 q 447 840 422 864 q 483 783 471 815 q 496 715 496 751 q 460 591 496 642 q 346 494 425 540 l 542 244 q 558 279 551 263 q 567 314 564 296 q 572 353 569 332 q 575 400 574 374 l 663 400 q 643 276 657 332 q 606 172 629 219 l 746 0 m 410 706 q 403 745 410 725 q 385 781 397 765 q 356 807 374 797 q 313 817 338 817 q 240 785 271 817 q 210 710 210 754 q 231 634 210 665 q 296 554 253 603 q 410 706 410 606 m 490 164 l 263 450 q 115 228 104 376 q 172 109 122 153 q 296 65 222 65 q 403 94 349 65 q 490 164 458 122 z "},"'":{"ha":240,"x_min":74,"x_max":167,"o":"m 167 869 l 142 624 l 74 624 l 76 875 l 167 869 z "},"(":{"ha":413,"x_min":31,"x_max":399,"o":"m 399 -317 l 265 -317 q 99 -31 139 -124 q 31 283 31 119 q 96 614 31 456 q 260 903 140 715 q 358 902 324 903 q 399 900 392 901 q 331 808 365 854 q 265 715 296 761 q 210 624 235 669 q 171 535 185 578 q 143 421 153 482 q 132 289 133 360 q 210 -25 128 136 q 280 -142 233 -69 q 399 -317 326 -215 z "},")":{"ha":413,"x_min":31,"x_max":399,"o":"m 399 303 q 332 -26 399 128 q 168 -317 290 -128 q 31 -314 44 -317 q 98 -222 64 -268 q 163 -128 132 -175 q 217 -37 193 -82 q 257 51 242 8 q 285 165 275 104 q 296 297 294 226 q 218 611 300 450 q 31 903 172 700 l 163 903 q 268 734 226 806 q 331 617 310 663 q 399 303 399 467 z "},"*":{"ha":686,"x_min":133,"x_max":567,"o":"m 567 492 l 529 425 q 472 471 511 444 q 374 532 433 497 q 388 343 374 379 l 313 343 q 326 408 324 376 q 326 532 329 428 q 254 491 282 507 q 217 468 226 475 q 172 425 192 450 l 133 493 q 194 514 169 501 q 228 532 201 517 q 301 574 256 547 q 226 617 254 601 q 192 636 199 632 q 133 653 163 650 l 169 719 q 325 615 208 679 q 325 742 326 721 q 320 772 324 757 q 311 801 317 788 l 386 801 q 374 614 371 757 q 446 655 418 639 q 483 678 474 671 q 526 719 510 693 l 567 653 q 504 632 529 644 q 470 614 497 629 q 396 571 443 599 q 471 529 443 544 q 508 510 499 514 q 567 492 533 496 z "},"+":{"ha":769,"x_min":63,"x_max":729,"o":"m 729 297 l 421 297 l 421 0 l 347 0 l 347 297 l 63 297 l 63 365 l 347 365 l 347 664 l 421 664 l 421 365 l 728 365 l 729 297 z "},",":{"ha":265,"x_min":60,"x_max":169,"o":"m 169 8 q 60 -157 169 -131 l 60 -108 q 117 0 117 -97 l 78 0 l 78 93 l 169 93 l 169 8 z "},"-":{"ha":435,"x_min":60,"x_max":376,"o":"m 376 254 l 60 254 l 60 329 l 376 329 l 376 254 z "},".":{"ha":363,"x_min":117,"x_max":235,"o":"m 235 43 q 217 3 235 21 q 175 -14 199 -14 q 135 3 153 -14 q 117 43 117 21 q 134 85 117 67 q 175 103 151 103 q 217 85 199 103 q 235 43 235 67 z "},"/":{"ha":449,"x_min":8,"x_max":428,"o":"m 428 899 l 97 -122 l 8 -122 l 336 899 l 428 899 z "},":":{"ha":339,"x_min":100,"x_max":218,"o":"m 218 504 q 200 462 218 479 q 158 444 182 444 q 118 462 136 444 q 100 504 100 479 q 118 545 100 528 q 158 563 136 563 q 200 544 182 563 q 218 504 218 526 m 218 10 q 200 -31 218 -12 q 158 -49 182 -49 q 118 -31 136 -49 q 100 10 100 -14 q 117 52 100 35 q 158 69 135 69 q 200 52 182 69 q 218 10 218 35 z "},";":{"ha":361,"x_min":126,"x_max":247,"o":"m 247 493 q 230 452 247 469 q 189 435 213 435 q 149 452 167 435 q 131 493 131 469 q 189 538 131 538 q 247 493 247 538 m 247 44 q 138 -114 240 -92 l 138 -65 q 189 -17 185 -56 q 146 1 165 -17 q 126 46 126 19 q 145 89 126 71 q 189 107 164 107 q 231 89 213 107 q 247 44 249 71 z "},"<":{"ha":656,"x_min":169,"x_max":574,"o":"m 574 -51 l 169 358 l 169 422 l 574 826 l 571 721 l 246 392 l 571 63 l 574 -51 z "},"=":{"ha":1094,"x_min":164,"x_max":931,"o":"m 931 438 l 164 438 l 164 506 l 931 506 l 931 438 m 931 196 l 164 196 l 164 265 l 931 265 l 931 196 z "},">":{"ha":656,"x_min":90,"x_max":496,"o":"m 496 358 l 90 -51 l 93 63 l 421 392 l 93 721 l 90 826 l 496 422 l 496 358 z "},"?":{"ha":592,"x_min":86,"x_max":531,"o":"m 531 658 q 372 361 531 479 q 292 288 317 319 q 256 174 261 243 q 256 169 256 176 q 258 146 257 161 l 168 146 q 169 163 168 156 q 256 358 169 272 q 308 403 282 381 q 360 447 333 425 q 442 600 418 504 q 449 658 449 632 q 414 768 449 725 q 297 817 374 817 q 176 760 221 817 q 146 692 153 729 l 90 693 q 86 833 86 794 q 182 853 108 828 q 225 867 207 861 q 258 876 243 872 q 284 881 272 879 q 310 882 296 882 q 397 871 357 882 q 467 833 438 860 q 514 764 497 807 q 531 658 531 721 m 261 36 q 246 1 261 15 q 211 -14 231 -14 q 176 1 190 -14 q 161 36 161 15 q 176 72 161 57 q 211 86 190 86 q 246 72 231 86 q 261 36 261 57 z "},"@":{"ha":1299,"x_min":76,"x_max":1213,"o":"m 1213 274 q 1128 39 1204 119 q 960 -28 1060 -32 q 840 11 889 -25 q 776 110 790 47 q 682 11 746 49 q 547 -26 618 -26 q 346 60 419 -26 q 278 258 278 136 q 347 447 278 365 q 547 536 424 536 q 779 399 701 536 q 908 553 797 496 l 917 467 q 822 257 822 381 q 958 58 819 79 q 1056 99 1011 50 q 1114 263 1106 154 q 1115 286 1115 274 q 1115 310 1115 299 q 997 611 1115 499 q 675 724 881 724 q 326 592 469 724 q 179 233 179 454 q 288 -79 179 46 q 507 -224 371 -175 q 681 -254 613 -260 q 675 -337 681 -342 q 253 -186 418 -337 q 76 236 76 -28 q 264 663 76 500 q 681 811 438 811 q 1068 675 919 811 q 1213 274 1225 529 m 740 257 q 681 394 740 336 q 544 454 622 454 q 421 396 476 454 q 367 258 367 339 q 380 175 367 213 q 417 110 393 138 q 474 69 440 83 q 547 54 507 54 q 683 111 626 54 q 740 257 740 168 z "},"A":{"ha":851,"x_min":32,"x_max":815,"o":"m 815 0 l 689 0 q 593 285 679 44 l 244 285 q 143 0 156 58 l 32 0 q 378 879 100 135 l 476 879 q 558 659 519 761 q 629 469 596 557 q 815 0 785 51 m 564 369 q 491 583 525 479 q 426 788 457 688 q 369 624 407 728 q 274 369 332 521 l 564 369 z "},"B":{"ha":814,"x_min":119,"x_max":725,"o":"m 725 236 q 622 44 725 107 q 440 -1 547 -1 l 119 -1 q 136 174 133 50 q 136 575 136 432 q 135 750 136 718 q 130 811 133 782 q 119 867 126 840 l 438 867 q 701 643 701 867 q 649 513 701 569 q 539 450 603 464 q 660 383 603 435 q 725 236 725 318 m 618 643 q 529 779 618 742 q 428 799 482 799 l 218 797 l 218 482 l 428 482 q 528 503 479 482 q 618 643 618 543 m 633 236 q 532 385 631 335 q 421 417 468 417 l 218 417 l 218 75 l 433 75 q 633 236 636 75 z "},"C":{"ha":740,"x_min":61,"x_max":665,"o":"m 665 147 q 658 68 660 100 q 656 18 656 36 q 583 4 647 19 q 450 -14 517 -14 q 167 124 276 -14 q 61 428 61 251 q 161 744 61 619 q 454 881 269 881 q 575 865 511 881 q 647 853 638 851 q 650 802 647 835 q 658 721 653 769 l 593 721 q 576 769 590 740 q 450 799 542 800 q 231 682 313 794 q 157 426 157 576 q 239 181 157 286 q 464 68 328 68 q 578 99 547 68 q 600 147 592 113 l 665 147 z "},"D":{"ha":783,"x_min":54,"x_max":735,"o":"m 735 421 q 614 118 735 236 q 310 0 496 0 l 54 0 q 67 104 64 38 q 71 433 71 171 q 71 620 71 546 q 69 733 71 694 q 65 804 68 772 q 54 863 61 836 l 319 863 q 631 740 521 863 q 735 421 735 624 m 632 421 q 311 765 632 765 l 163 765 l 163 606 q 161 513 161 553 q 161 446 161 472 q 165 90 161 333 l 308 90 q 542 183 453 90 q 632 421 632 278 z "},"E":{"ha":729,"x_min":107,"x_max":674,"o":"m 674 -7 q 514 -1 585 -3 q 388 0 443 1 q 274 -3 344 -1 q 107 -8 204 -6 q 121 450 121 38 q 107 869 121 824 q 351 861 200 864 q 478 862 407 860 q 639 868 550 864 q 639 735 632 819 l 569 735 q 567 757 567 757 q 558 769 567 761 q 469 779 553 779 l 213 779 q 213 497 210 650 q 560 517 514 497 l 560 397 q 213 414 494 418 q 213 83 211 260 l 506 83 q 593 100 581 83 q 606 143 601 113 l 674 143 q 674 -7 667 40 z "},"F":{"ha":653,"x_min":107,"x_max":639,"o":"m 639 743 l 569 743 q 553 782 569 774 q 506 788 543 788 l 213 788 l 213 497 q 390 498 322 497 q 482 500 457 499 q 560 517 533 504 l 560 401 q 526 407 547 404 q 472 413 504 410 q 327 417 393 417 q 208 414 261 417 q 208 310 208 365 q 210 192 208 254 q 215 82 211 129 q 229 0 219 35 l 108 0 q 121 81 117 32 q 124 163 124 117 q 124 265 125 210 q 122 411 122 365 q 121 450 121 457 l 121 756 q 107 878 118 836 q 229 874 151 878 q 351 869 317 869 q 495 869 424 868 q 639 876 567 871 l 639 743 z "},"G":{"ha":732,"x_min":61,"x_max":696,"o":"m 696 22 q 565 0 649 25 q 450 -12 521 -12 q 164 122 272 -12 q 61 428 61 249 q 163 743 61 617 q 456 881 271 881 q 574 868 517 881 q 618 856 586 867 q 647 851 639 849 q 660 721 650 789 l 594 721 q 547 789 585 769 q 464 801 519 801 q 235 681 319 801 q 158 422 158 571 q 240 179 158 285 q 464 68 331 68 q 551 79 522 68 q 594 147 596 96 l 593 315 l 572 315 q 517 311 526 315 q 492 272 494 306 l 424 272 q 424 401 429 353 q 565 399 500 400 q 685 400 629 399 q 685 171 685 218 q 683 211 685 124 q 696 22 686 99 z "},"H":{"ha":882,"x_min":103,"x_max":806,"o":"m 806 0 l 685 0 q 698 133 694 35 q 700 396 701 232 l 211 396 q 226 0 211 61 l 103 0 q 119 178 118 53 q 119 575 119 433 q 118 749 119 717 q 113 808 117 781 q 103 863 110 836 l 226 863 q 210 486 203 776 l 700 486 q 698 735 701 642 q 685 863 694 829 l 804 863 q 794 792 797 836 q 789 686 790 749 l 789 431 q 806 0 789 64 z "},"I":{"ha":319,"x_min":107,"x_max":229,"o":"m 229 863 q 219 792 222 836 q 214 686 215 749 l 214 431 l 214 179 q 228 0 217 49 l 107 0 q 124 178 122 53 q 124 575 124 433 q 122 749 124 717 q 117 808 121 781 q 107 863 114 836 l 229 863 z "},"J":{"ha":326,"x_min":19,"x_max":282,"o":"m 282 864 q 272 594 272 829 q 258 46 272 83 q 136 -17 235 -17 q 99 -13 115 -17 q 70 -6 83 -10 q 44 1 57 -1 q 19 0 32 3 q 19 100 17 101 l 69 99 q 94 68 71 81 q 133 58 113 58 q 176 94 174 58 q 181 252 179 128 q 182 596 182 376 q 172 864 182 829 l 282 864 z "},"K":{"ha":819,"x_min":90,"x_max":767,"o":"m 767 0 l 615 0 q 551 114 596 60 q 496 175 532 138 q 407 264 460 213 q 200 442 281 386 l 371 614 q 471 715 435 678 q 518 764 507 753 q 569 865 567 821 l 743 865 q 611 740 699 832 q 521 647 567 693 q 431 556 475 601 q 387 513 413 538 q 329 456 361 488 q 475 331 418 382 q 767 0 678 140 m 214 865 q 197 436 197 800 l 197 182 q 202 71 199 115 q 213 0 206 26 l 90 0 q 107 178 106 53 q 107 576 107 435 q 106 750 107 718 q 101 810 104 782 q 90 865 97 839 l 214 865 z "},"L":{"ha":736,"x_min":107,"x_max":674,"o":"m 674 -7 q 514 -1 585 -3 q 388 0 443 1 q 274 -3 344 -1 q 107 -8 204 -6 q 121 451 121 38 q 121 706 121 646 q 122 696 121 767 q 117 796 121 754 q 107 864 114 838 l 229 864 q 219 792 222 838 q 214 681 215 747 l 214 432 l 213 79 l 506 79 q 593 96 581 79 q 606 139 601 108 l 674 139 q 674 -7 669 39 z "},"M":{"ha":1060,"x_min":97,"x_max":976,"o":"m 976 865 q 949 692 956 826 q 947 600 947 665 q 946 429 946 535 l 946 175 q 951 69 947 113 q 961 0 954 26 l 844 0 q 855 70 851 26 q 860 176 858 114 l 860 426 l 860 768 q 763 544 844 704 q 533 124 681 383 q 383 390 447 271 q 208 761 231 675 l 208 426 l 208 176 q 213 69 210 113 q 224 0 217 25 l 111 0 q 122 69 118 26 q 126 175 125 113 l 126 429 q 126 600 126 535 q 125 692 126 665 q 97 865 118 826 l 233 865 l 532 294 l 836 865 l 976 865 z "},"N":{"ha":883,"x_min":88,"x_max":803,"o":"m 803 865 q 792 795 796 839 q 788 688 789 751 q 789 661 789 725 q 789 431 789 597 l 789 0 l 708 0 q 588 174 644 92 q 482 328 531 256 q 294 607 364 501 q 200 754 224 713 l 200 431 l 200 179 q 205 71 201 115 q 215 0 208 26 l 100 0 q 110 70 107 26 q 115 178 114 114 l 115 433 q 115 604 115 539 q 114 694 115 669 q 88 865 107 828 q 218 865 219 864 q 334 705 279 782 q 439 556 389 628 q 617 287 553 390 q 700 140 682 183 l 700 432 q 700 649 700 586 q 701 688 700 713 q 685 865 700 813 l 803 865 z "},"O":{"ha":968,"x_min":85,"x_max":893,"o":"m 893 422 q 782 117 893 243 q 489 -14 665 -14 q 193 117 306 -14 q 85 422 85 239 q 186 743 85 617 q 489 881 296 881 q 794 743 683 881 q 893 422 893 617 m 793 422 q 719 685 793 586 q 488 790 639 790 q 261 674 346 790 q 183 421 183 568 q 265 183 183 282 q 489 76 353 76 q 713 182 628 76 q 793 422 793 279 z "},"P":{"ha":710,"x_min":107,"x_max":667,"o":"m 667 622 q 567 425 667 493 q 410 371 496 378 q 374 370 397 371 q 322 369 350 369 q 265 368 293 368 q 217 368 238 368 q 216 337 217 349 q 215 306 215 325 q 215 249 215 286 q 214 144 214 213 q 219 62 215 97 q 229 0 222 26 l 107 0 q 117 69 114 26 q 122 174 121 111 l 122 429 l 122 685 q 117 794 121 750 q 107 865 114 839 l 411 865 q 564 819 490 865 q 667 622 667 753 m 569 622 q 531 732 569 693 q 458 774 503 761 q 433 778 446 776 q 410 782 421 779 q 218 786 369 788 l 217 451 q 348 451 300 450 q 410 454 396 451 q 569 622 571 478 z "},"Q":{"ha":969,"x_min":85,"x_max":893,"o":"m 743 -171 l 594 -171 q 587 -143 593 -164 q 567 -89 581 -122 l 528 -12 q 508 -14 518 -14 q 489 -14 499 -14 q 193 117 306 -14 q 85 422 85 239 q 186 743 85 617 q 489 881 296 881 q 794 743 683 881 q 893 422 893 617 q 819 167 893 282 q 625 10 746 53 l 633 -6 q 651 -37 638 -15 q 689 -94 665 -60 q 743 -171 735 -162 m 793 422 q 719 685 793 586 q 488 790 639 790 q 261 674 346 790 q 183 421 183 568 q 265 183 183 282 q 489 76 353 76 q 713 182 628 76 q 793 422 793 279 z "},"R":{"ha":750,"x_min":107,"x_max":697,"o":"m 697 0 l 575 0 q 577 10 576 6 q 578 22 578 15 q 524 222 578 111 q 367 385 461 356 q 268 397 331 396 q 241 396 254 396 q 214 394 228 396 l 214 158 q 219 66 215 106 q 229 0 222 26 l 107 0 q 117 69 114 26 q 122 174 121 111 l 122 429 l 122 685 q 117 794 121 750 q 107 865 114 839 l 411 865 q 509 853 463 865 q 591 813 556 840 q 647 742 626 786 q 667 636 667 699 q 460 406 667 450 q 697 0 629 349 m 569 636 q 558 702 569 675 q 525 746 546 729 q 474 771 504 763 q 410 782 444 779 q 218 786 369 788 l 217 479 q 348 478 300 478 q 410 482 396 479 q 528 526 488 493 q 569 636 568 560 z "},"S":{"ha":701,"x_min":47,"x_max":654,"o":"m 654 218 q 517 25 649 83 q 268 -14 418 -21 q 114 24 211 -12 q 51 33 69 39 q 56 174 51 71 l 108 174 q 147 125 113 150 q 324 67 226 67 q 485 106 417 67 q 557 240 568 153 q 504 328 551 294 q 400 375 471 354 q 339 392 369 383 q 278 408 308 400 q 125 475 175 440 q 47 633 47 536 q 142 824 47 757 q 357 881 225 883 q 497 854 393 881 q 572 840 565 839 q 572 787 572 821 q 574 701 572 753 l 521 701 q 499 756 513 746 q 342 799 435 799 q 139 624 132 799 q 357 478 143 519 q 654 218 664 417 z "},"T":{"ha":889,"x_min":60,"x_max":839,"o":"m 839 724 l 769 724 q 758 775 768 758 q 671 792 742 792 l 493 792 l 493 418 q 493 196 493 258 q 492 169 493 133 q 497 67 493 110 q 507 0 500 25 l 386 0 q 403 169 401 53 l 403 418 l 403 793 l 228 793 q 142 776 158 793 q 131 725 132 760 l 60 725 q 60 865 67 813 l 839 865 q 839 724 835 819 z "},"U":{"ha":882,"x_min":78,"x_max":813,"o":"m 813 863 q 797 549 797 806 q 797 515 797 535 q 799 468 797 494 q 800 422 800 442 q 800 390 800 403 q 719 108 800 211 q 444 -17 621 -17 q 169 104 267 -17 q 92 364 92 203 q 92 407 92 357 q 94 564 93 457 q 95 672 96 622 q 92 764 94 722 q 78 863 88 832 l 206 863 q 190 650 194 815 q 188 490 189 565 q 188 349 188 415 q 447 76 188 76 q 635 149 568 76 q 708 418 708 231 q 704 694 708 571 q 699 799 703 757 q 690 863 696 840 l 813 863 z "},"V":{"ha":825,"x_min":33,"x_max":803,"o":"m 803 863 q 469 -3 743 758 l 365 -3 q 322 117 357 24 q 225 374 288 210 q 103 693 150 572 q 33 863 56 814 l 142 863 q 178 751 149 836 q 261 522 208 667 q 365 244 325 353 q 419 88 404 136 q 463 215 426 107 q 571 521 500 322 q 683 863 671 806 l 803 863 z "},"W":{"ha":1319,"x_min":40,"x_max":1296,"o":"m 1296 867 q 1206 605 1278 819 q 1004 1 1133 390 l 900 1 q 806 290 864 114 q 668 713 749 467 q 569 414 628 590 q 435 1 511 238 l 331 1 q 199 394 271 179 q 40 867 128 610 l 149 867 q 238 568 179 761 q 385 92 296 375 q 614 867 489 414 l 725 867 q 954 92 760 739 q 1097 569 1042 376 q 1176 867 1153 763 l 1296 867 z "},"X":{"ha":889,"x_min":11,"x_max":879,"o":"m 879 0 l 735 0 q 708 56 725 22 q 663 135 690 90 l 456 406 l 235 135 q 158 0 189 81 l 11 0 q 404 464 33 47 q 324 563 361 517 q 254 650 286 610 q 127 799 175 746 q 61 865 79 853 l 218 865 q 296 740 228 840 l 461 524 l 625 736 q 694 865 665 790 l 838 865 q 726 727 806 828 q 517 463 646 626 q 614 347 569 400 q 696 247 658 293 q 879 0 875 26 z "},"Y":{"ha":729,"x_min":19,"x_max":718,"o":"m 718 865 q 654 785 694 840 q 554 642 614 729 q 485 536 519 589 q 415 431 450 483 q 417 304 417 367 q 418 178 417 242 q 432 0 421 49 l 310 0 q 326 176 325 53 l 326 431 q 249 549 288 490 q 171 668 210 608 q 75 804 113 756 q 19 865 38 853 l 181 865 q 224 756 178 828 l 378 510 l 529 754 q 578 865 575 829 l 718 865 z "},"Z":{"ha":813,"x_min":86,"x_max":769,"o":"m 769 863 l 217 79 l 582 79 q 669 97 657 79 q 681 139 681 111 l 751 139 q 751 -14 744 43 q 444 -6 556 -3 q 293 -5 382 -4 q 86 -8 204 -6 l 86 43 l 603 776 l 286 776 q 197 767 206 776 q 188 732 190 757 l 117 732 q 117 867 122 817 q 277 860 206 863 q 404 860 349 858 q 560 859 469 858 q 769 863 651 860 z "},"[":{"ha":494,"x_min":122,"x_max":444,"o":"m 444 -315 l 122 -315 l 122 906 l 444 906 l 443 843 l 201 843 l 201 -240 l 444 -240 l 444 -315 z "},"\\":{"ha":449,"x_min":8,"x_max":428,"o":"m 100 899 l 428 -122 l 339 -122 l 8 899 l 100 899 z "},"]":{"ha":535,"x_min":47,"x_max":369,"o":"m 369 -315 l 47 -315 l 47 -243 l 292 -243 l 292 842 l 47 842 l 47 906 l 369 906 l 369 -315 z "},"^":{"ha":694,"x_min":68,"x_max":625,"o":"m 625 339 l 539 339 l 347 771 l 156 339 l 68 339 l 314 869 l 381 869 l 625 339 z "},"_":{"ha":674,"x_min":0,"x_max":674,"o":"m 674 -168 l 0 -168 l 0 -101 l 674 -101 l 674 -168 z "},"`":{"ha":750,"x_min":231,"x_max":386,"o":"m 386 638 l 315 615 l 231 847 l 325 879 l 386 638 z "},"a":{"ha":593,"x_min":56,"x_max":551,"o":"m 378 400 q 275 488 376 493 q 222 477 250 486 q 167 454 193 468 q 119 422 142 440 q 82 385 96 404 l 82 468 q 278 556 154 553 q 406 519 357 557 q 463 388 463 475 l 463 101 q 486 69 463 69 q 551 111 494 69 l 551 36 q 471 -12 506 -12 q 382 56 399 -12 q 208 -14 318 -11 q 147 -2 175 -14 q 99 31 119 10 q 67 79 78 51 q 56 139 56 107 q 103 254 56 208 q 221 307 147 296 q 288 316 249 310 q 378 331 326 322 l 378 400 m 382 125 l 382 258 q 326 251 361 256 q 242 239 290 246 q 166 207 196 232 q 136 150 136 182 q 160 85 136 111 q 224 60 185 60 q 306 81 253 60 q 382 125 360 104 z "},"b":{"ha":599,"x_min":58,"x_max":575,"o":"m 575 269 q 494 67 575 143 q 296 -11 413 -11 q 146 49 188 -11 l 151 0 l 61 0 q 62 41 61 15 q 64 101 63 67 q 64 144 64 103 q 65 269 64 186 q 67 395 67 353 q 67 439 67 438 l 67 538 q 58 833 68 756 l 153 833 q 148 713 150 786 q 146 539 146 640 l 146 485 q 296 547 196 547 q 499 471 422 547 q 575 269 575 394 m 490 269 q 477 350 490 313 q 438 415 464 388 q 377 458 413 443 q 299 474 342 474 q 146 407 204 474 q 145 296 144 364 q 149 132 146 228 q 299 65 190 65 q 435 121 382 65 q 490 269 489 176 z "},"c":{"ha":511,"x_min":46,"x_max":472,"o":"m 472 24 q 441 10 454 17 q 417 1 428 4 q 329 -11 379 -10 q 119 68 200 -17 q 46 272 44 150 q 114 457 49 381 q 292 546 182 533 q 450 532 371 554 l 438 458 q 333 474 379 474 q 246 458 285 474 q 132 268 135 415 q 189 125 132 186 q 332 65 246 67 q 449 94 383 65 l 472 24 z "},"d":{"ha":636,"x_min":46,"x_max":571,"o":"m 571 833 q 566 713 568 786 q 564 539 564 640 l 564 485 q 564 413 564 454 q 565 315 564 371 q 567 201 567 250 q 568 117 568 151 l 568 36 q 569 7 569 17 q 569 0 569 -3 l 479 0 l 482 58 q 329 -11 425 -11 q 121 72 201 -11 q 46 272 43 151 q 125 468 47 390 q 329 547 204 547 q 483 482 443 547 l 485 538 q 476 833 490 718 l 571 833 m 332 474 q 186 415 244 474 q 129 269 129 356 q 188 125 129 185 q 332 65 247 65 q 482 138 428 65 q 484 267 483 203 q 485 399 485 332 q 332 474 428 474 z "},"e":{"ha":604,"x_min":46,"x_max":553,"o":"m 306 547 q 496 469 431 549 q 553 274 554 396 l 132 274 l 132 268 q 194 119 131 179 q 336 63 253 65 q 485 126 419 61 l 525 53 q 329 -11 417 -7 q 119 68 200 -17 q 46 271 44 150 q 121 467 47 388 q 306 547 193 544 m 451 347 q 304 472 436 472 q 210 439 253 472 q 146 347 167 406 l 451 347 z "},"f":{"ha":410,"x_min":8,"x_max":410,"o":"m 410 696 q 251 778 321 785 q 188 711 200 774 q 182 550 182 685 q 349 565 336 557 l 349 471 q 182 483 329 481 l 182 433 q 183 138 182 246 q 185 -1 183 31 l 92 -1 q 100 431 100 69 l 100 483 q 8 475 26 481 l 8 556 q 99 549 31 547 q 118 771 97 725 q 263 849 154 851 q 340 831 303 849 q 381 813 364 819 q 410 804 399 807 l 410 696 z "},"g":{"ha":654,"x_min":46,"x_max":610,"o":"m 610 539 q 606 378 607 474 q 604 156 604 283 q 592 -143 604 -93 q 504 -260 572 -217 q 350 -304 435 -304 q 182 -272 253 -304 q 156 -260 172 -267 q 115 -246 139 -254 l 167 -161 q 322 -229 229 -219 q 335 -231 329 -231 q 347 -231 340 -231 q 411 -219 381 -231 q 465 -190 442 -208 q 501 -144 488 -171 q 518 -87 515 -118 q 522 89 519 -44 q 329 -11 457 -11 q 121 72 201 -11 q 46 272 43 151 q 125 468 47 390 q 329 547 204 547 q 518 456 461 547 q 518 494 518 474 q 517 539 518 515 l 610 539 m 332 474 q 186 415 244 474 q 129 269 129 356 q 188 125 129 185 q 332 65 247 65 q 462 115 411 65 q 522 243 513 164 l 522 306 q 460 427 511 381 q 332 474 408 474 z "},"h":{"ha":588,"x_min":79,"x_max":543,"o":"m 543 0 l 449 0 q 449 79 449 39 q 450 163 449 119 l 450 274 q 445 358 449 322 q 435 415 442 393 q 342 490 410 489 q 215 453 271 492 q 192 431 204 442 q 168 410 179 421 q 167 343 167 382 q 167 251 167 304 q 168 174 168 215 q 169 85 168 132 q 172 19 171 40 q 172 0 172 -1 l 82 0 q 86 190 85 72 q 88 472 88 308 l 88 538 q 79 833 88 764 l 174 833 q 169 713 171 786 q 167 539 167 640 l 167 485 q 354 561 251 561 q 493 501 450 561 q 540 272 540 436 l 540 108 q 542 27 542 58 q 543 0 543 -4 z "},"i":{"ha":261,"x_min":74,"x_max":207,"o":"m 207 707 q 186 662 207 682 q 139 642 165 642 q 94 661 114 642 q 74 707 74 681 q 94 753 74 733 q 139 774 114 774 q 186 753 165 774 q 207 707 207 733 m 182 -1 l 90 -1 q 90 538 103 283 l 182 538 q 182 -1 172 274 z "},"j":{"ha":261,"x_min":-67,"x_max":207,"o":"m 207 707 q 186 662 207 682 q 139 642 165 642 q 94 661 114 642 q 74 707 74 681 q 93 753 74 733 q 139 774 113 774 q 186 753 165 774 q 207 707 207 733 m 185 538 q 181 419 182 514 q 179 156 179 324 l 179 -79 q 158 -226 175 -189 q 31 -304 122 -304 q -1 -300 11 -304 q -67 -275 -22 -289 q -52 -247 -61 -264 q -29 -203 -43 -229 q 31 -236 1 -237 q 93 -171 81 -232 q 97 154 97 -150 q 96 380 97 285 q 92 538 94 475 l 185 538 z "},"k":{"ha":557,"x_min":51,"x_max":547,"o":"m 547 40 l 490 -17 l 222 247 l 135 181 q 135 86 132 99 q 171 14 139 44 q 82 -14 126 -14 q 67 -12 71 -14 q 54 103 54 -8 q 58 308 54 156 q 63 533 63 460 q 60 713 63 638 q 51 833 57 788 l 146 833 q 141 713 143 786 q 139 539 139 640 l 139 265 q 258 374 181 301 q 450 554 336 446 l 507 500 l 282 297 q 384 199 318 263 q 547 40 450 135 z "},"l":{"ha":256,"x_min":89,"x_max":183,"o":"m 183 833 q 179 688 181 774 q 176 485 178 601 q 177 372 176 443 q 179 196 178 300 q 181 42 181 90 q 182 0 182 -7 l 92 0 q 96 190 94 72 q 97 472 97 308 q 89 833 100 714 l 183 833 z "},"m":{"ha":957,"x_min":82,"x_max":883,"o":"m 883 0 l 789 0 q 789 79 789 39 q 790 163 789 119 q 790 274 793 225 q 785 358 789 322 q 775 415 782 393 q 682 490 753 488 q 563 457 614 492 q 549 445 561 456 q 514 414 538 435 q 526 272 526 357 l 526 108 q 528 27 528 58 q 529 0 529 -4 l 435 0 q 435 79 435 39 q 436 163 435 119 q 436 274 439 225 q 431 358 435 322 q 421 415 428 393 q 328 490 396 489 q 211 454 258 492 q 192 433 201 443 q 172 413 182 424 l 172 0 l 82 0 q 86 190 85 72 q 88 472 88 308 q 86 497 86 481 q 85 539 86 514 l 169 539 l 168 488 q 340 561 238 561 q 493 478 453 561 q 694 561 576 561 q 833 501 792 561 q 881 272 881 436 q 881 178 881 219 q 882 108 881 138 q 882 63 882 83 q 883 25 882 42 l 883 0 z "},"n":{"ha":626,"x_min":83,"x_max":544,"o":"m 544 0 l 450 0 q 450 79 450 40 q 451 157 450 118 q 451 261 453 213 q 447 345 450 310 q 436 403 443 381 q 343 478 411 476 q 219 442 272 479 l 174 400 l 174 0 l 83 0 q 88 474 88 143 q 88 499 88 482 q 86 539 88 515 l 171 540 l 169 475 q 356 549 254 549 q 494 489 451 549 q 542 260 542 424 q 542 174 542 218 q 543 81 542 129 q 544 13 544 33 q 544 0 544 -7 z "},"o":{"ha":654,"x_min":46,"x_max":608,"o":"m 608 269 q 528 67 608 143 q 329 -11 446 -11 q 121 72 201 -11 q 46 272 43 151 q 125 468 47 390 q 329 547 204 547 q 532 471 456 547 q 608 269 608 394 m 524 269 q 510 350 524 313 q 472 415 497 388 q 410 458 446 443 q 332 474 375 474 q 186 415 244 474 q 129 269 129 356 q 188 125 129 185 q 332 65 247 65 q 469 121 415 65 q 524 269 522 176 z "},"p":{"ha":599,"x_min":58,"x_max":575,"o":"m 575 271 q 499 65 575 143 q 296 -12 421 -12 q 146 50 196 -12 l 146 -4 q 148 -185 146 -110 q 153 -308 150 -261 l 58 -308 q 67 -3 68 -232 l 67 96 q 65 269 65 183 q 64 439 65 354 q 63 496 63 471 q 61 540 63 521 l 151 540 l 146 492 q 206 535 165 519 q 296 551 247 551 q 494 474 413 551 q 575 271 575 397 m 299 475 q 149 408 208 475 q 145 244 146 314 q 146 128 144 175 q 299 61 204 61 q 438 122 383 61 q 490 271 492 183 q 435 419 489 364 q 299 475 382 475 z "},"q":{"ha":636,"x_min":46,"x_max":571,"o":"m 329 550 q 482 481 425 550 l 479 539 l 569 539 q 569 532 569 542 q 568 503 569 522 l 568 422 q 567 338 568 388 q 565 222 567 289 q 564 123 564 165 q 564 50 564 81 l 564 -4 q 566 -181 564 -106 q 571 -308 568 -257 l 476 -308 q 485 -3 490 -190 l 483 53 q 329 -12 431 -12 q 125 68 204 -12 q 46 267 47 150 q 122 468 44 385 q 329 550 201 550 m 332 474 q 188 413 249 474 q 129 269 129 351 q 186 121 129 182 q 332 61 244 61 q 485 140 426 61 q 484 265 485 200 q 482 401 483 329 q 332 474 428 474 z "},"r":{"ha":360,"x_min":53,"x_max":329,"o":"m 329 456 q 288 474 306 474 q 167 400 207 474 q 142 288 139 346 q 142 208 142 253 q 143 107 142 164 q 145 24 144 50 q 146 0 146 -3 l 57 -1 q 57 471 61 133 q 53 539 54 490 l 140 539 l 139 443 q 279 550 169 549 q 329 540 308 550 l 329 456 z "},"s":{"ha":431,"x_min":44,"x_max":410,"o":"m 313 10 q 174 -11 254 -17 q 118 -3 150 -10 q 46 17 86 4 l 46 111 q 93 90 60 101 q 179 63 126 78 q 193 60 186 61 q 207 60 200 60 q 288 82 253 60 q 326 146 322 104 q 250 233 331 199 q 183 257 222 242 q 96 294 144 272 q 44 400 44 328 q 97 511 44 467 q 224 551 146 551 q 285 542 246 551 q 327 532 311 535 q 349 528 343 529 l 349 435 q 211 475 286 472 q 154 458 181 475 q 124 407 125 438 q 240 328 121 358 q 354 269 311 308 q 410 151 410 222 q 313 10 410 53 z "},"t":{"ha":386,"x_min":56,"x_max":357,"o":"m 357 540 l 357 481 l 221 481 l 215 244 q 213 149 214 172 q 213 150 213 126 q 229 74 213 74 q 253 85 238 74 q 274 99 269 97 q 282 80 276 94 q 297 40 288 65 q 160 -12 215 -14 q 128 108 128 -10 q 132 242 128 118 q 136 479 133 285 l 56 479 q 57 510 57 481 l 57 539 l 138 539 l 138 683 l 221 719 l 221 539 q 357 540 356 539 z "},"u":{"ha":631,"x_min":78,"x_max":613,"o":"m 613 40 q 474 -12 510 -21 q 450 61 453 -8 q 264 -12 365 -12 q 125 47 167 -12 q 78 276 78 113 q 78 361 78 321 q 79 438 78 401 q 79 481 79 461 q 81 517 79 501 q 82 536 82 531 q 82 539 82 542 l 176 539 q 174 464 175 503 q 169 381 172 425 q 167 326 168 353 q 168 275 167 300 q 173 191 169 226 q 183 133 176 156 q 276 58 208 60 q 400 94 347 57 l 446 136 q 450 374 447 199 q 452 495 451 454 q 453 539 453 536 l 543 539 q 539 352 540 467 q 538 78 538 238 q 542 75 540 75 q 553 78 546 75 q 567 86 560 82 q 580 94 574 90 q 589 99 586 99 q 597 80 592 94 q 613 40 603 65 z "},"v":{"ha":561,"x_min":35,"x_max":533,"o":"m 533 536 q 459 358 514 492 q 313 0 404 225 l 254 0 q 151 256 206 122 q 35 538 97 390 l 142 538 q 206 339 169 444 q 286 114 242 233 q 328 222 306 163 q 375 351 351 281 q 415 468 400 422 q 435 536 429 514 l 533 536 z "},"w":{"ha":832,"x_min":24,"x_max":813,"o":"m 813 536 q 747 356 794 489 q 621 0 700 222 l 561 0 q 508 163 542 63 q 428 406 475 263 l 274 0 l 215 0 l 24 538 l 131 538 q 197 313 167 415 q 249 122 226 210 q 283 222 264 165 q 325 350 303 278 q 379 535 369 489 l 379 538 l 478 538 l 476 536 l 478 536 l 478 535 l 478 533 q 594 117 503 450 q 651 312 621 208 q 714 536 681 415 l 813 536 z "},"x":{"ha":546,"x_min":26,"x_max":518,"o":"m 518 0 l 414 0 q 360 82 396 28 q 272 219 325 136 q 199 113 236 168 q 125 0 163 58 l 26 0 q 108 108 57 40 q 229 276 158 176 q 143 401 188 336 q 50 538 99 467 l 150 538 q 204 453 172 503 q 278 340 236 404 q 337 437 308 388 q 392 538 365 486 l 494 538 q 427 438 471 501 q 319 278 383 374 q 518 0 383 182 z "},"y":{"ha":600,"x_min":-71,"x_max":578,"o":"m 578 536 l 410 117 q 314 -104 344 -44 q 157 -294 229 -272 q 65 -308 114 -308 q -71 -267 -24 -308 l -43 -199 q 64 -237 -3 -237 q 110 -231 85 -237 q 214 -135 161 -217 q 283 6 258 -69 q 161 272 221 140 q 39 538 101 404 l 140 538 q 213 372 167 479 q 325 106 258 264 q 412 331 374 224 q 478 536 450 438 q 578 536 575 538 z "},"z":{"ha":551,"x_min":63,"x_max":496,"o":"m 496 0 l 63 0 l 63 35 l 364 465 l 232 465 q 96 451 139 465 l 96 538 l 492 538 l 492 510 l 182 72 l 386 72 q 426 75 399 72 q 496 83 453 78 l 496 0 z "},"{":{"ha":458,"x_min":46,"x_max":360,"o":"m 360 -318 l 283 -318 q 193 -274 233 -318 q 151 -149 151 -224 l 151 72 q 122 194 151 147 q 46 240 92 240 l 46 319 q 122 366 92 319 q 151 483 151 413 l 151 706 q 193 829 151 781 q 283 874 231 874 l 360 874 l 360 790 l 301 790 q 240 682 240 790 l 240 464 q 193 326 240 379 q 128 281 163 292 l 142 278 q 200 235 174 271 q 240 92 240 179 l 240 -125 q 301 -233 240 -233 l 360 -233 l 360 -318 z "},"|":{"ha":310,"x_min":106,"x_max":203,"o":"m 203 -317 l 106 -317 l 106 865 l 203 865 l 203 -317 z "},"}":{"ha":458,"x_min":93,"x_max":407,"o":"m 407 240 q 331 194 361 240 q 301 72 301 147 l 301 -149 q 291 -217 301 -186 q 263 -271 281 -249 q 220 -306 244 -293 q 169 -318 196 -318 l 93 -318 l 93 -233 l 151 -233 q 211 -125 211 -233 l 211 92 q 253 235 211 181 q 311 278 279 271 l 325 281 q 260 326 290 292 q 211 464 211 383 l 211 682 q 151 790 211 790 l 93 790 l 93 874 l 169 874 q 220 862 196 874 q 263 828 244 850 q 291 774 281 806 q 301 706 301 743 l 301 483 q 331 366 301 413 q 407 319 361 319 l 407 240 z "},"~":{"ha":681,"x_min":85,"x_max":600,"o":"m 600 363 q 460 224 557 224 q 313 282 410 224 q 213 326 235 328 q 149 233 174 325 l 85 260 q 206 397 135 393 q 343 342 243 399 q 461 289 426 292 q 512 319 486 288 q 542 394 538 350 q 571 379 557 388 q 600 363 585 371 z "}," ":{"ha":347,"x_min":0,"x_max":0,"o":""},"¡":{"ha":290,"x_min":101,"x_max":201,"o":"m 107 -132 q 122 143 122 -97 q 121 381 122 294 q 117 489 119 467 l 189 489 q 187 385 188 471 q 186 143 186 299 q 200 -132 186 -82 l 107 -132 m 201 594 q 186 559 201 574 q 151 544 171 544 q 117 559 132 544 q 101 594 101 574 q 117 630 101 615 q 151 644 132 644 q 186 630 171 644 q 201 594 201 615 z "},"¢":{"ha":575,"x_min":74,"x_max":500,"o":"m 321 617 q 201 551 242 606 q 160 414 160 497 q 191 305 160 354 q 274 231 222 256 l 321 617 m 500 169 q 469 156 482 163 q 444 147 456 150 q 357 135 407 136 q 333 134 344 133 q 310 136 321 135 l 292 0 q 246 0 247 -7 l 264 144 q 183 183 218 157 q 123 246 147 210 q 86 326 99 282 q 74 418 74 369 q 142 603 76 526 q 319 692 213 682 l 329 692 l 347 844 l 393 844 l 375 693 q 478 678 419 693 l 465 604 q 415 615 439 611 q 367 619 390 618 l 319 215 q 360 211 338 211 q 476 240 411 211 l 500 169 z "},"£":{"ha":715,"x_min":21,"x_max":696,"o":"m 444 376 q 288 388 426 386 q 310 267 317 324 q 182 92 297 165 q 328 113 250 113 q 363 111 346 113 q 396 107 379 110 q 418 103 401 106 q 465 93 435 100 q 529 85 504 85 q 646 136 590 85 l 696 31 q 519 -7 603 -12 q 477 0 504 -6 q 410 15 450 6 q 297 32 336 32 q 284 32 290 32 q 271 31 278 32 q 117 -7 214 22 l 63 85 q 218 290 218 174 q 192 388 218 336 q 21 375 35 383 l 21 483 q 140 471 31 475 q 85 613 89 551 q 176 819 76 747 q 407 883 263 883 q 547 857 442 883 q 622 843 615 842 q 622 790 622 824 q 624 704 622 756 l 571 704 q 549 758 563 749 q 392 800 492 796 q 239 757 303 804 q 178 622 169 704 q 243 468 182 571 q 444 485 425 474 l 444 376 z "},"¤":{"ha":694,"x_min":47,"x_max":647,"o":"m 647 453 q 583 269 647 346 l 646 207 q 613 172 649 204 q 589 151 597 158 q 578 140 581 143 l 521 211 q 347 156 444 156 q 174 211 250 156 l 117 140 q 99 156 107 147 q 81 171 90 164 q 49 207 46 204 l 111 269 q 47 453 47 346 q 111 636 47 560 l 49 699 q 58 708 50 700 q 82 731 67 715 q 117 765 118 764 l 174 694 q 347 750 246 747 q 521 694 443 753 l 578 765 q 608 732 576 764 q 646 699 642 700 l 583 636 q 647 453 647 560 m 569 451 q 503 615 569 546 q 349 685 436 685 q 193 615 260 685 q 128 451 128 546 q 193 285 128 354 q 349 218 260 218 q 503 286 436 218 q 569 451 569 354 z "},"¥":{"ha":729,"x_min":19,"x_max":718,"o":"m 718 869 q 468 511 661 808 l 624 511 l 624 444 l 425 444 l 415 431 l 415 371 l 625 371 l 625 304 l 415 304 q 432 0 415 67 l 310 0 q 326 304 328 64 l 132 304 l 132 371 l 326 371 l 326 431 l 317 444 l 131 444 l 131 511 l 274 511 q 190 640 225 586 q 133 726 156 693 q 19 869 49 849 l 181 869 q 224 756 178 828 l 376 511 q 376 508 378 510 q 417 575 379 514 q 529 754 456 636 q 578 869 575 829 l 718 869 z "},"¦":{"ha":325,"x_min":119,"x_max":206,"o":"m 206 364 l 119 364 l 119 749 l 206 749 l 206 364 m 206 -117 l 119 -117 l 119 268 l 206 268 l 206 -117 z "},"§":{"ha":490,"x_min":44,"x_max":440,"o":"m 307 560 q 192 525 250 561 q 131 426 131 485 q 168 354 131 385 q 194 349 182 351 q 219 347 207 347 q 271 357 246 347 q 315 384 296 367 q 346 424 335 401 q 357 475 357 447 q 307 560 357 531 m 424 121 q 356 15 415 50 q 232 -14 306 -14 q 211 -13 221 -14 q 192 -11 201 -12 q 101 10 144 -4 q 67 15 79 18 l 67 107 l 101 107 q 193 58 138 71 q 210 56 201 57 q 226 56 218 56 q 300 76 268 56 q 336 135 332 97 q 265 225 340 192 q 233 238 254 231 q 181 254 211 244 q 140 269 157 261 q 113 285 124 278 q 44 415 44 335 q 90 531 44 478 q 199 600 138 583 q 78 732 82 642 q 135 842 74 800 q 258 879 186 879 q 338 864 274 879 q 379 857 374 856 l 379 767 l 333 767 q 247 806 299 804 q 190 788 218 806 q 161 739 163 769 q 274 663 160 693 q 440 453 450 615 q 396 354 436 394 q 297 304 356 314 q 425 146 425 260 q 425 133 425 139 q 424 121 425 128 z "},"¨":{"ha":851,"x_min":257,"x_max":619,"o":"m 619 701 q 603 661 619 679 q 563 643 586 643 q 521 660 539 643 q 503 701 503 678 q 521 743 503 725 q 563 761 539 761 q 602 742 585 761 q 619 701 619 724 m 375 704 q 358 663 375 681 q 317 646 342 646 q 275 663 293 646 q 257 704 257 681 q 275 744 257 726 q 317 763 293 763 q 358 744 340 763 q 375 704 375 726 z "},"©":{"ha":1017,"x_min":15,"x_max":1001,"o":"m 1001 468 q 856 119 1001 263 q 507 -24 713 -24 q 160 121 304 -24 q 15 467 15 265 q 160 815 15 668 q 506 961 303 961 q 856 817 711 961 q 1001 468 1001 672 m 942 468 q 813 774 942 646 q 506 900 686 900 q 201 772 329 900 q 75 467 75 646 q 201 161 75 288 q 507 35 328 35 q 814 161 688 35 q 942 468 942 289 m 668 274 q 663 220 665 242 q 661 188 661 199 q 613 178 656 189 q 587 172 603 175 q 547 167 571 169 l 486 169 q 325 272 385 189 q 267 460 267 353 q 333 669 267 586 q 528 760 404 760 q 607 746 551 760 q 656 736 647 736 q 658 704 656 725 q 663 654 660 683 l 619 654 q 616 669 618 661 q 608 688 614 676 q 525 707 586 710 q 381 628 438 706 q 331 458 331 558 q 385 296 331 364 q 533 221 443 221 q 610 242 589 221 q 624 274 618 251 l 668 274 z "},"ª":{"ha":461,"x_min":56,"x_max":403,"o":"m 281 618 q 210 679 281 683 q 172 671 192 678 q 134 654 153 664 q 99 632 115 644 q 74 607 83 619 l 74 665 q 211 726 126 725 q 340 608 340 728 l 340 408 q 357 386 340 386 q 403 415 363 386 l 403 363 q 346 329 371 329 q 285 376 294 329 q 163 328 240 331 q 86 360 117 328 q 56 435 56 392 q 172 553 56 533 q 282 569 210 557 l 281 618 m 285 425 l 285 518 q 245 513 269 515 q 186 504 221 510 q 113 443 113 493 q 130 397 113 415 q 174 379 147 379 q 199 383 183 379 q 231 394 215 388 q 262 408 247 400 q 285 425 276 417 z "},"«":{"ha":842,"x_min":185,"x_max":718,"o":"m 718 -1 l 421 232 l 421 318 l 718 551 l 718 458 l 482 275 l 718 93 l 718 -1 m 482 -1 l 185 232 l 185 318 l 482 551 l 482 458 l 246 275 l 482 93 l 482 -1 z "},"¬":{"ha":694,"x_min":46,"x_max":649,"o":"m 649 69 l 567 69 l 567 356 l 46 356 l 46 424 l 649 424 l 649 69 z "},"®":{"ha":1017,"x_min":15,"x_max":1001,"o":"m 1001 468 q 856 119 1001 263 q 507 -24 713 -24 q 160 121 304 -24 q 15 467 15 265 q 160 815 15 668 q 506 961 303 961 q 856 817 711 961 q 1001 468 1001 672 m 942 468 q 813 774 942 646 q 506 900 686 900 q 201 772 329 900 q 75 467 75 646 q 201 161 75 288 q 507 35 328 35 q 814 161 688 35 q 942 468 942 289 m 722 192 l 643 192 q 615 322 651 238 q 507 442 574 421 q 443 449 482 449 q 426 449 435 449 q 408 447 418 449 q 418 192 408 226 l 339 192 q 349 469 349 226 q 339 757 349 719 l 536 757 q 635 731 592 757 q 703 607 703 692 q 567 454 703 482 q 722 192 676 419 m 639 607 q 590 692 639 671 q 563 697 576 694 q 536 701 550 699 q 411 706 508 706 l 410 503 q 494 502 463 501 q 535 504 525 503 q 594 519 579 511 q 639 607 640 543 z "},"¯":{"ha":463,"x_min":56,"x_max":483,"o":"m 483 644 l 56 644 l 57 711 l 483 711 l 483 644 z "},"°":{"ha":851,"x_min":313,"x_max":568,"o":"m 568 1035 q 558 985 568 1008 q 531 944 549 961 q 490 917 514 926 q 440 907 467 907 q 390 917 414 907 q 349 944 367 926 q 322 985 332 961 q 313 1035 313 1008 q 322 1085 313 1061 q 349 1126 332 1108 q 390 1153 367 1143 q 440 1163 414 1163 q 490 1153 467 1163 q 531 1126 514 1143 q 558 1085 549 1108 q 568 1035 568 1061 m 521 1035 q 497 1092 521 1068 q 440 1115 474 1115 q 383 1092 407 1115 q 360 1035 360 1068 q 383 978 360 1001 q 440 954 407 954 q 497 978 474 954 q 521 1035 521 1001 z "},"±":{"ha":694,"x_min":81,"x_max":615,"o":"m 615 332 l 389 332 l 389 117 l 307 117 l 307 332 l 81 332 l 81 400 l 307 400 l 307 606 l 389 606 l 389 400 l 615 400 l 615 332 m 615 0 l 81 0 l 81 68 l 615 68 l 615 0 z "},"²":{"ha":521,"x_min":93,"x_max":397,"o":"m 397 369 q 233 374 290 376 q 176 374 211 375 q 93 372 142 374 l 93 400 q 130 439 104 411 q 199 510 156 467 q 240 551 222 533 q 268 583 257 569 q 326 679 310 635 q 340 746 340 713 q 313 815 340 790 q 247 840 286 840 q 171 800 196 840 q 151 742 156 776 l 104 742 q 106 757 106 749 q 110 772 107 765 q 143 839 119 807 q 251 882 178 882 q 390 772 372 882 q 392 759 392 765 q 393 746 393 753 q 279 528 393 646 l 172 415 l 310 415 q 354 424 349 415 q 361 446 360 432 l 397 446 q 397 369 394 401 z "},"³":{"ha":372,"x_min":40,"x_max":335,"o":"m 335 503 q 290 399 335 440 q 157 354 242 351 q 89 361 118 356 q 40 376 60 367 l 57 428 q 81 417 72 421 q 92 413 89 414 q 125 405 108 407 q 158 401 142 403 q 244 426 211 400 q 281 499 278 453 q 243 586 285 553 q 154 617 204 619 q 154 668 151 619 q 228 692 199 665 q 260 754 258 718 q 238 811 261 790 q 182 832 215 832 q 85 749 108 831 l 43 765 q 174 876 68 871 q 278 844 240 881 q 311 765 311 813 q 288 689 313 724 q 218 646 263 654 q 335 503 335 618 z "},"´":{"ha":196,"x_min":25,"x_max":181,"o":"m 181 847 l 96 615 l 25 638 l 88 879 l 181 847 z "},"µ":{"ha":639,"x_min":90,"x_max":618,"o":"m 618 38 l 569 -28 q 552 -6 560 -17 q 538 15 544 4 q 506 67 519 42 q 486 115 493 92 q 317 -11 418 -11 q 156 108 192 -11 q 153 50 154 74 q 153 15 153 26 q 207 -229 153 -165 l 128 -264 q 90 -118 96 -217 q 90 57 88 -89 q 94 206 92 88 q 104 536 97 325 l 186 536 l 172 201 q 318 67 219 67 q 424 122 378 67 q 467 203 460 165 q 460 536 442 314 l 549 536 q 536 333 536 429 q 546 204 536 253 q 618 38 563 111 z "},"¶":{"ha":810,"x_min":46,"x_max":786,"o":"m 479 779 q 475 608 476 739 q 474 254 474 478 l 474 1 q 488 -176 476 -129 l 367 -176 q 383 0 382 -126 l 383 257 l 383 310 q 358 306 371 307 q 329 304 344 306 q 119 383 200 299 q 46 588 44 465 q 114 775 49 699 q 292 861 183 853 q 402 861 336 861 q 556 863 468 861 q 697 867 660 864 q 786 882 758 871 l 786 763 q 668 779 746 775 q 664 608 665 739 q 663 254 663 478 l 663 1 q 676 -176 665 -129 l 556 -176 q 572 0 571 -126 l 572 257 q 571 607 572 476 q 567 781 569 738 q 530 781 551 781 q 479 779 508 781 z "},"·":{"ha":347,"x_min":92,"x_max":254,"o":"m 254 415 q 231 358 254 382 q 174 335 207 335 q 116 358 140 335 q 92 415 92 382 q 115 474 92 450 q 174 497 139 497 q 231 474 207 497 q 254 415 254 450 z "},"¸":{"ha":532,"x_min":160,"x_max":356,"o":"m 340 -185 q 224 -242 307 -247 q 160 -222 178 -237 l 194 -167 q 232 -175 213 -175 q 278 -136 272 -175 q 213 -67 285 -87 q 254 17 208 -67 l 325 15 l 294 -40 q 356 -131 356 -72 q 340 -185 356 -157 z "},"¹":{"ha":521,"x_min":213,"x_max":301,"o":"m 301 385 l 233 385 q 243 632 243 418 q 243 763 243 717 q 242 817 243 808 q 213 817 231 818 l 213 838 q 264 878 242 849 l 296 878 q 294 802 294 864 q 294 628 294 740 q 301 385 294 419 z "},"º":{"ha":488,"x_min":33,"x_max":449,"o":"m 449 532 q 389 382 449 440 q 242 325 328 325 q 89 385 147 325 q 33 535 32 447 q 92 679 33 621 q 242 738 150 738 q 393 681 338 738 q 449 532 449 625 m 386 532 q 347 641 388 599 q 244 683 307 683 q 138 641 181 683 q 94 532 94 599 q 138 426 94 469 q 244 382 182 382 q 346 423 307 382 q 386 532 385 464 z "},"»":{"ha":842,"x_min":197,"x_max":732,"o":"m 732 235 l 435 1 l 435 96 l 671 278 l 435 461 l 435 554 l 732 321 l 732 235 m 496 235 l 197 1 l 197 96 l 435 278 l 197 461 l 197 554 l 496 321 l 496 235 z "},"¼":{"ha":1049,"x_min":218,"x_max":900,"o":"m 321 392 l 251 392 q 261 639 261 425 q 261 770 261 724 q 260 825 261 817 l 231 825 l 231 846 q 283 885 261 854 l 314 885 q 313 809 313 871 q 313 635 313 747 q 321 392 313 425 m 900 965 l 275 -7 l 222 -7 l 218 0 l 843 972 l 897 972 l 900 965 m 897 115 q 849 121 876 121 q 856 -4 849 31 l 789 -4 q 795 22 793 11 q 799 38 797 32 l 799 122 q 600 122 725 125 l 600 158 q 699 304 644 222 q 818 486 754 386 q 849 486 838 489 l 849 403 l 849 249 l 849 165 q 869 167 857 165 q 897 171 882 168 l 897 115 m 797 163 q 797 290 797 239 q 799 368 797 340 q 657 164 746 297 q 743 163 708 163 q 797 163 778 163 z "},"½":{"ha":1049,"x_min":153,"x_max":925,"o":"m 153 1 l 775 969 l 829 969 l 833 964 l 210 -7 l 158 -7 l 153 1 m 254 388 l 186 388 q 196 635 196 421 q 196 765 196 719 q 194 819 196 811 q 165 819 183 821 l 165 840 q 217 881 194 851 l 249 881 q 247 805 247 867 q 247 631 247 743 q 254 388 247 422 m 925 -8 q 761 -4 818 -1 q 704 -3 739 -3 q 621 -6 669 -4 l 621 22 q 658 61 632 33 q 726 132 683 89 q 767 174 750 156 q 796 206 785 192 q 854 301 838 257 q 868 368 868 335 q 841 438 868 413 q 775 463 814 463 q 699 422 724 463 q 679 364 683 399 l 632 364 q 634 379 633 371 q 638 394 635 388 q 671 461 647 429 q 779 504 706 504 q 918 394 900 504 q 920 381 919 388 q 921 368 921 375 q 807 150 921 268 l 700 38 l 838 38 q 882 46 876 38 q 889 68 888 54 l 925 68 q 925 -8 922 24 z "},"¾":{"ha":953,"x_min":54,"x_max":875,"o":"m 850 949 l 226 -24 l 174 -24 l 169 -17 l 793 956 l 847 956 l 850 949 m 335 525 q 292 425 335 464 q 164 383 244 382 q 54 404 94 385 l 71 453 q 104 440 97 442 q 167 429 138 429 q 248 453 217 428 q 282 521 279 478 q 246 606 286 572 q 163 633 207 635 q 163 682 161 635 q 235 704 204 679 q 263 763 260 726 q 242 817 264 797 q 189 836 221 838 q 97 757 118 836 l 57 774 q 182 879 82 872 q 278 851 244 882 q 313 774 313 819 q 290 701 314 733 q 222 660 265 669 q 335 525 335 635 m 875 119 q 851 124 864 122 q 825 126 839 125 q 833 0 825 31 l 765 0 q 772 27 769 17 q 775 42 774 38 l 775 126 q 576 126 701 129 l 576 164 q 676 310 621 228 q 794 492 731 392 q 812 492 804 493 q 825 490 819 492 l 825 408 l 825 254 l 825 171 q 875 175 843 168 l 875 119 m 775 168 l 775 372 q 714 287 749 338 q 635 169 679 236 q 721 167 686 168 q 775 168 756 167 z "},"¿":{"ha":592,"x_min":94,"x_max":543,"o":"m 440 596 q 426 561 440 576 q 390 546 411 546 q 356 561 371 546 q 340 596 340 576 q 356 631 340 617 q 390 646 371 646 q 426 631 411 646 q 440 596 440 617 m 543 -217 q 449 -240 521 -212 q 339 -274 367 -272 q 320 -275 329 -275 q 303 -275 311 -275 q 97 -99 119 -275 q 95 -76 96 -87 q 94 -53 94 -64 q 139 126 94 40 q 240 251 178 200 q 318 328 299 299 q 350 443 346 372 q 346 471 350 439 l 438 474 q 436 463 436 467 q 436 457 436 460 q 357 258 439 346 q 306 210 331 235 q 256 163 281 186 q 179 3 200 103 q 175 -47 175 -22 q 211 -161 175 -117 q 332 -208 253 -211 q 450 -147 406 -207 q 479 -78 472 -117 l 535 -76 q 543 -217 539 -125 z "},"À":{"ha":849,"x_min":32,"x_max":815,"o":"m 815 0 l 689 0 q 593 285 679 44 l 244 285 q 143 0 156 58 l 32 0 q 378 879 100 135 l 476 879 q 558 659 519 761 q 629 469 596 557 q 815 0 785 51 m 564 369 q 491 583 525 479 q 426 788 457 688 q 369 624 407 728 q 274 369 332 521 l 564 369 m 468 950 l 397 928 l 313 1160 l 407 1192 l 468 950 z "},"Á":{"ha":851,"x_min":32,"x_max":815,"o":"m 815 0 l 689 0 q 593 285 679 44 l 244 285 q 143 0 156 58 l 32 0 q 378 879 100 135 l 476 879 q 558 659 519 761 q 629 469 596 557 q 815 0 785 51 m 564 369 q 491 583 525 479 q 426 788 457 688 q 369 624 407 728 q 274 369 332 521 l 564 369 m 565 1178 l 454 954 l 383 976 l 461 1213 l 565 1178 z "},"Â":{"ha":851,"x_min":32,"x_max":815,"o":"m 682 1013 l 622 956 l 431 1103 q 239 958 429 1103 l 188 1013 l 433 1185 q 558 1099 496 1142 q 682 1013 619 1056 m 815 0 l 689 0 q 593 285 679 44 l 244 285 q 143 0 156 58 l 32 0 q 378 879 100 135 l 476 879 q 558 659 519 761 q 629 469 596 557 q 815 0 785 51 m 564 369 q 491 583 525 479 q 426 788 457 688 q 369 624 407 728 q 274 369 332 521 l 564 369 z "},"Ã":{"ha":851,"x_min":32,"x_max":815,"o":"m 815 0 l 689 0 q 593 285 679 44 l 244 285 q 143 0 156 58 l 32 0 q 378 879 100 135 l 476 879 q 558 659 519 761 q 629 469 596 557 q 815 0 785 51 m 564 369 q 491 583 525 479 q 426 788 457 688 q 369 624 407 728 q 274 369 332 521 l 564 369 m 631 1088 q 580 985 614 1018 q 510 951 546 951 q 464 966 493 951 q 394 1011 435 981 q 315 1053 339 1053 q 260 965 281 1053 l 203 997 q 253 1100 225 1068 q 310 1135 282 1132 q 351 1122 325 1135 q 418 1081 378 1110 q 475 1040 451 1056 q 511 1025 499 1025 q 531 1034 521 1025 q 551 1058 542 1043 q 567 1092 561 1072 q 575 1133 574 1111 q 603 1115 588 1126 q 631 1094 619 1103 l 631 1088 z "},"Ä":{"ha":851,"x_min":32,"x_max":815,"o":"m 815 0 l 689 0 q 593 285 679 44 l 244 285 q 143 0 156 58 l 32 0 q 378 879 100 135 l 476 879 q 558 659 519 761 q 629 469 596 557 q 815 0 785 51 m 564 369 q 491 583 525 479 q 426 788 457 688 q 369 624 407 728 q 274 369 332 521 l 564 369 m 608 1014 q 592 974 608 992 q 551 956 575 956 q 509 973 526 956 q 492 1014 492 990 q 509 1056 492 1038 q 551 1074 526 1074 q 591 1056 574 1074 q 608 1014 608 1038 m 364 1014 q 347 974 364 992 q 306 956 331 956 q 264 973 282 956 q 246 1014 246 990 q 264 1054 246 1036 q 306 1072 282 1072 q 346 1054 328 1072 q 364 1014 364 1036 z "},"Å":{"ha":851,"x_min":32,"x_max":815,"o":"m 551 1083 q 542 1033 551 1057 q 515 992 532 1010 q 474 965 497 975 q 424 956 450 956 q 374 965 397 956 q 333 992 350 975 q 306 1033 315 1010 q 296 1083 296 1057 q 306 1133 296 1110 q 333 1174 315 1157 q 374 1201 350 1192 q 424 1211 397 1211 q 474 1201 450 1211 q 515 1174 497 1192 q 542 1133 532 1157 q 551 1083 551 1110 m 504 1083 q 481 1140 504 1117 q 424 1164 457 1164 q 367 1140 390 1164 q 343 1083 343 1117 q 367 1026 343 1050 q 424 1003 390 1003 q 481 1026 457 1003 q 504 1083 504 1050 m 815 0 l 689 0 q 593 285 679 44 l 244 285 q 143 0 156 58 l 32 0 q 378 879 100 135 l 476 879 q 558 659 519 761 q 629 469 596 557 q 815 0 785 51 m 564 369 q 491 583 525 479 q 426 788 457 688 q 369 624 407 728 q 274 369 332 521 l 564 369 z "},"Æ":{"ha":1288,"x_min":-3,"x_max":1229,"o":"m 1229 -7 q 1069 -1 1140 -3 q 943 0 999 1 l 654 0 q 663 285 661 46 l 340 285 q 223 123 272 193 q 143 0 174 53 l -3 0 q 219 283 57 68 q 650 864 382 499 l 779 864 q 856 863 824 863 q 907 863 888 863 q 1034 865 963 863 q 1194 869 1106 867 q 1194 736 1188 821 l 1125 736 q 1122 758 1122 758 q 1114 771 1122 763 q 1025 781 1108 781 l 768 781 q 768 493 765 644 q 1115 513 1069 493 l 1115 393 q 768 410 1050 414 q 768 83 767 256 l 1061 83 q 1149 100 1136 83 q 1161 143 1157 113 l 1229 143 q 1229 -7 1222 40 m 664 744 l 400 369 l 664 369 l 664 744 z "},"Ç":{"ha":728,"x_min":56,"x_max":671,"o":"m 496 -185 q 379 -242 464 -247 q 315 -222 333 -237 l 350 -167 q 388 -175 368 -175 q 433 -136 428 -175 q 368 -67 440 -87 q 393 -12 364 -69 l 392 -12 q 144 144 239 15 q 56 433 56 267 q 157 756 56 629 q 457 894 267 894 q 579 878 506 894 q 653 864 642 861 q 665 733 653 826 l 599 733 q 592 756 597 743 q 581 785 588 769 q 453 814 544 818 q 231 693 317 808 q 153 432 153 583 q 236 181 153 286 q 467 65 326 65 q 582 97 550 65 q 604 147 596 111 l 671 147 q 663 15 663 51 q 588 0 651 17 q 547 -8 572 -3 q 464 -17 521 -12 l 450 -40 q 508 -132 508 -72 q 496 -185 508 -158 z "},"È":{"ha":729,"x_min":107,"x_max":674,"o":"m 674 -7 q 514 -1 585 -3 q 388 0 443 1 q 274 -3 344 -1 q 107 -8 204 -6 q 121 450 121 38 q 107 869 121 824 q 351 861 200 864 q 478 862 407 860 q 639 868 550 864 q 639 735 632 819 l 569 735 q 567 757 567 757 q 558 769 567 761 q 469 779 553 779 l 213 779 q 213 497 210 650 q 560 517 514 497 l 560 397 q 213 414 494 418 q 213 83 211 260 l 506 83 q 593 100 581 83 q 606 143 601 113 l 674 143 q 674 -7 667 40 m 426 949 l 356 926 l 271 1158 l 365 1190 l 426 949 z "},"É":{"ha":729,"x_min":96,"x_max":663,"o":"m 663 0 q 503 6 574 4 q 376 7 432 8 q 263 3 333 6 q 96 -1 193 1 q 110 457 110 44 q 96 876 110 829 q 340 868 190 869 q 467 868 396 867 q 628 875 539 869 q 628 742 621 825 l 558 742 q 556 764 557 760 q 549 775 554 768 q 458 786 538 786 l 201 786 q 201 504 200 656 q 549 524 503 504 l 549 404 q 201 421 482 425 q 201 90 200 265 l 494 90 q 582 107 569 90 q 594 150 590 117 l 663 150 q 663 0 656 47 m 479 1178 l 368 954 l 297 976 l 375 1213 l 479 1178 z "},"Ê":{"ha":729,"x_min":107,"x_max":674,"o":"m 633 1013 l 574 956 l 382 1103 q 190 958 381 1103 l 139 1013 l 385 1185 q 509 1099 447 1142 q 633 1013 571 1057 m 674 0 q 514 6 585 4 q 388 7 443 8 q 274 3 344 6 q 107 -1 204 1 q 121 457 121 44 q 107 876 121 829 q 351 868 200 871 q 478 868 407 867 q 639 875 550 869 q 639 742 632 825 l 569 742 q 567 764 567 763 q 558 776 567 768 q 469 786 553 786 l 213 786 q 213 504 211 656 q 560 524 514 504 l 560 404 q 213 421 494 425 q 213 90 211 265 l 506 90 q 593 107 582 90 q 606 150 604 119 l 674 150 q 674 0 669 47 z "},"Ë":{"ha":729,"x_min":108,"x_max":675,"o":"m 675 3 q 515 9 586 7 q 389 10 444 11 q 276 6 346 8 q 108 1 206 4 q 122 460 122 47 q 108 879 122 833 q 353 871 201 874 q 480 872 408 869 q 640 878 551 874 q 640 744 633 829 l 571 744 q 568 767 568 767 q 560 779 568 771 q 471 789 554 789 l 214 789 q 214 507 211 660 q 561 526 515 507 l 561 407 q 214 424 496 428 q 214 93 213 269 l 507 93 q 594 110 582 93 q 607 153 603 122 l 675 153 q 675 3 668 50 m 567 1014 q 550 974 567 992 q 510 956 533 956 q 467 973 485 956 q 450 1014 450 990 q 467 1056 450 1038 q 510 1074 485 1074 q 549 1056 532 1074 q 567 1014 567 1038 m 322 1014 q 306 974 322 992 q 264 956 289 956 q 222 973 240 956 q 204 1014 204 990 q 222 1054 204 1036 q 264 1072 240 1072 q 304 1054 286 1072 q 322 1014 322 1036 z "},"Ì":{"ha":336,"x_min":50,"x_max":229,"o":"m 229 863 q 219 792 222 836 q 214 686 215 749 l 214 431 l 214 179 q 228 0 217 49 l 107 0 q 124 178 122 53 q 124 575 124 433 q 122 749 124 717 q 117 808 121 781 q 107 863 114 836 l 229 863 m 206 944 l 135 922 l 50 1154 l 144 1186 l 206 944 z "},"Í":{"ha":336,"x_min":107,"x_max":311,"o":"m 229 863 q 219 792 222 836 q 214 686 215 749 l 214 431 l 214 179 q 228 0 217 49 l 107 0 q 124 178 122 53 q 124 575 124 433 q 122 749 124 717 q 117 808 121 781 q 107 863 114 836 l 229 863 m 311 1178 l 200 954 l 129 976 l 207 1213 l 311 1178 z "},"Î":{"ha":336,"x_min":-67,"x_max":428,"o":"m 229 863 q 219 792 222 836 q 214 686 215 749 l 214 431 l 214 179 q 228 0 217 49 l 107 0 q 124 178 122 53 q 124 575 124 433 q 122 749 124 717 q 117 808 121 781 q 107 863 114 836 l 229 863 m 428 1010 l 368 953 l 176 1100 q -15 956 175 1100 l -67 1010 l 179 1182 q 303 1096 242 1139 q 428 1010 365 1053 z "},"Ï":{"ha":336,"x_min":-47,"x_max":315,"o":"m 229 863 q 219 792 222 836 q 214 686 215 749 l 214 431 l 214 179 q 228 0 217 49 l 107 0 q 124 178 122 53 q 124 575 124 433 q 122 749 124 717 q 117 808 121 781 q 107 863 114 836 l 229 863 m 315 1014 q 299 974 315 992 q 258 956 282 956 q 216 973 233 956 q 199 1014 199 990 q 216 1056 199 1038 q 258 1074 233 1074 q 298 1056 281 1074 q 315 1014 315 1038 m 71 1014 q 54 974 71 992 q 13 956 38 956 q -29 973 -11 956 q -47 1014 -47 990 q -29 1054 -47 1036 q 13 1072 -11 1072 q 53 1054 35 1072 q 71 1014 71 1036 z "},"Ð":{"ha":846,"x_min":-3,"x_max":788,"o":"m 788 421 q 667 118 788 236 q 363 0 549 0 l 107 0 q 119 104 117 38 q 124 406 124 171 l -3 406 l -3 472 l 124 472 q 124 630 124 565 q 122 733 124 694 q 117 804 121 772 q 107 863 114 836 l 372 863 q 683 740 574 863 q 788 421 788 624 m 685 421 q 364 765 685 765 l 215 765 q 215 588 215 661 q 214 472 215 515 l 435 472 l 435 406 l 214 406 q 218 90 214 332 l 361 90 q 594 183 506 90 q 685 421 685 278 z "},"Ñ":{"ha":889,"x_min":88,"x_max":803,"o":"m 803 865 q 792 795 796 839 q 788 688 789 751 q 789 661 789 725 q 789 431 789 597 l 789 0 l 708 0 q 588 174 644 92 q 482 328 531 256 q 294 607 364 501 q 200 754 224 713 l 200 431 l 200 179 q 205 71 201 115 q 215 0 208 26 l 100 0 q 110 70 107 26 q 115 178 114 114 l 115 433 q 115 604 115 539 q 114 694 115 669 q 88 865 107 828 q 218 865 219 864 q 334 705 279 782 q 439 556 389 628 q 617 287 553 390 q 700 140 682 183 l 700 432 q 700 649 700 586 q 701 688 700 713 q 685 865 700 813 l 803 865 m 669 1092 q 619 989 653 1022 q 549 956 585 956 q 503 970 532 956 q 433 1015 474 985 q 354 1057 378 1057 q 299 969 319 1057 l 242 1001 q 292 1104 264 1072 q 349 1139 321 1136 q 390 1126 364 1139 q 457 1085 417 1114 q 514 1044 490 1060 q 550 1029 538 1029 q 570 1038 560 1029 q 590 1062 581 1047 q 606 1096 600 1076 q 614 1138 613 1115 q 642 1119 626 1131 q 669 1099 658 1107 l 669 1092 z "},"Ò":{"ha":986,"x_min":85,"x_max":893,"o":"m 893 422 q 782 117 893 243 q 489 -14 665 -14 q 193 117 306 -14 q 85 422 85 239 q 186 743 85 617 q 489 881 296 881 q 794 743 683 881 q 893 422 893 617 m 793 422 q 719 685 793 586 q 488 790 639 790 q 261 674 346 790 q 183 421 183 568 q 265 183 183 282 q 489 76 353 76 q 713 182 628 76 q 793 422 793 279 m 554 958 l 483 936 l 399 1168 l 493 1200 l 554 958 z "},"Ó":{"ha":986,"x_min":85,"x_max":893,"o":"m 893 422 q 782 117 893 243 q 489 -14 665 -14 q 193 117 306 -14 q 85 422 85 239 q 186 743 85 617 q 489 881 296 881 q 794 743 683 881 q 893 422 893 617 m 793 422 q 719 685 793 586 q 488 790 639 790 q 261 674 346 790 q 183 421 183 568 q 265 183 183 282 q 489 76 353 76 q 713 182 628 76 q 793 422 793 279 m 625 1178 l 514 954 l 443 976 l 521 1213 l 625 1178 z "},"Ô":{"ha":986,"x_min":85,"x_max":893,"o":"m 893 422 q 782 117 893 243 q 489 -14 665 -14 q 193 117 306 -14 q 85 422 85 239 q 186 743 85 617 q 489 881 296 881 q 794 743 683 881 q 893 422 893 617 m 793 422 q 719 685 793 586 q 488 790 639 790 q 261 674 346 790 q 183 421 183 568 q 265 183 183 282 q 489 76 353 76 q 713 182 628 76 q 793 422 793 279 m 757 1010 l 697 953 l 506 1100 q 314 956 504 1100 l 263 1010 l 508 1182 q 633 1096 571 1139 q 757 1010 694 1053 z "},"Õ":{"ha":986,"x_min":85,"x_max":893,"o":"m 893 422 q 782 117 893 243 q 489 -14 665 -14 q 193 117 306 -14 q 85 422 85 239 q 186 743 85 617 q 489 881 296 881 q 794 743 683 881 q 893 422 893 617 m 793 422 q 719 685 793 586 q 488 790 639 790 q 261 674 346 790 q 183 421 183 568 q 265 183 183 282 q 489 76 353 76 q 713 182 628 76 q 793 422 793 279 m 710 1090 q 659 988 693 1021 q 589 954 625 954 q 543 969 572 954 q 474 1014 514 983 q 394 1056 418 1056 q 339 968 360 1056 l 282 1000 q 333 1103 304 1071 q 389 1138 361 1135 q 431 1125 404 1138 q 497 1083 457 1113 q 554 1043 531 1058 q 590 1028 578 1028 q 610 1037 600 1028 q 631 1060 621 1046 q 647 1094 640 1075 q 654 1136 653 1114 q 683 1117 667 1129 q 710 1097 699 1106 l 710 1090 z "},"Ö":{"ha":986,"x_min":85,"x_max":893,"o":"m 893 422 q 782 117 893 243 q 489 -14 665 -14 q 193 117 306 -14 q 85 422 85 239 q 186 743 85 617 q 489 881 296 881 q 794 743 683 881 q 893 422 893 617 m 793 422 q 719 685 793 586 q 488 790 639 790 q 261 674 346 790 q 183 421 183 568 q 265 183 183 282 q 489 76 353 76 q 713 182 628 76 q 793 422 793 279 m 665 1014 q 649 974 665 992 q 608 956 632 956 q 566 973 583 956 q 549 1014 549 990 q 566 1056 549 1038 q 608 1074 583 1074 q 648 1056 631 1074 q 665 1014 665 1038 m 421 1014 q 404 974 421 992 q 363 956 388 956 q 321 973 339 956 q 303 1014 303 990 q 321 1054 303 1036 q 363 1072 339 1072 q 403 1054 385 1072 q 421 1014 421 1036 z "},"×":{"ha":694,"x_min":83,"x_max":611,"o":"m 611 228 l 557 174 l 347 375 l 139 174 l 83 228 l 292 429 l 83 631 l 139 683 l 347 482 l 557 683 l 611 631 l 403 429 l 611 228 z "},"Ø":{"ha":986,"x_min":82,"x_max":915,"o":"m 915 435 q 799 117 915 247 q 499 -15 682 -15 q 457 -13 478 -15 q 417 -8 436 -11 l 375 -137 l 300 -137 l 349 11 q 153 172 224 57 q 82 435 82 286 q 186 764 82 632 q 499 907 300 907 q 633 888 571 907 l 679 1035 l 754 1035 l 700 860 q 863 685 806 803 q 915 435 915 572 m 813 435 q 669 767 813 674 l 446 82 q 499 78 472 78 q 729 185 639 78 q 813 435 813 286 m 604 797 q 497 814 556 814 q 264 693 351 814 q 183 433 183 586 q 235 233 183 324 q 378 103 286 143 l 604 797 z "},"Ù":{"ha":882,"x_min":78,"x_max":813,"o":"m 813 863 q 797 549 797 806 q 797 515 797 535 q 799 468 797 494 q 800 422 800 442 q 800 390 800 403 q 719 108 800 211 q 444 -17 621 -17 q 169 104 267 -17 q 92 364 92 203 q 92 407 92 357 q 94 564 93 457 q 95 672 96 622 q 92 764 94 722 q 78 863 88 832 l 206 863 q 190 650 194 815 q 188 490 189 565 q 188 349 188 415 q 447 76 188 76 q 635 149 568 76 q 708 418 708 231 q 704 694 708 571 q 699 799 703 757 q 690 863 696 840 l 813 863 m 508 954 l 438 932 l 353 1164 l 447 1196 l 508 954 z "},"Ú":{"ha":882,"x_min":78,"x_max":813,"o":"m 813 863 q 797 549 797 806 q 797 515 797 535 q 799 468 797 494 q 800 422 800 442 q 800 390 800 403 q 719 108 800 211 q 444 -17 621 -17 q 169 104 267 -17 q 92 364 92 203 q 92 407 92 357 q 94 564 93 457 q 95 672 96 622 q 92 764 94 722 q 78 863 88 832 l 206 863 q 190 650 194 815 q 188 490 189 565 q 188 349 188 415 q 447 76 188 76 q 635 149 568 76 q 708 418 708 231 q 704 694 708 571 q 699 799 703 757 q 690 863 696 840 l 813 863 m 581 1178 l 469 954 l 399 976 l 476 1213 l 581 1178 z "},"Û":{"ha":1028,"x_min":78,"x_max":813,"o":"m 813 863 q 797 549 797 806 q 797 515 797 535 q 799 468 797 494 q 800 422 800 442 q 800 390 800 403 q 719 108 800 211 q 444 -17 621 -17 q 169 104 267 -17 q 92 364 92 203 q 92 407 92 357 q 94 564 93 457 q 95 672 96 622 q 92 764 94 722 q 78 863 88 832 l 206 863 q 190 650 194 815 q 188 490 189 565 q 188 349 188 415 q 447 76 188 76 q 635 149 568 76 q 708 418 708 231 q 704 694 708 571 q 699 799 703 757 q 690 863 696 840 l 813 863 m 697 1007 l 638 950 l 446 1097 q 254 953 444 1097 l 203 1007 l 449 1179 q 573 1093 511 1136 q 697 1007 635 1050 z "},"Ü":{"ha":882,"x_min":78,"x_max":813,"o":"m 813 863 q 797 549 797 806 q 797 515 797 535 q 799 468 797 494 q 800 422 800 442 q 800 390 800 403 q 719 108 800 211 q 444 -17 621 -17 q 169 104 267 -17 q 92 364 92 203 q 92 407 92 357 q 94 564 93 457 q 95 672 96 622 q 92 764 94 722 q 78 863 88 832 l 206 863 q 190 650 194 815 q 188 490 189 565 q 188 349 188 415 q 447 76 188 76 q 635 149 568 76 q 708 418 708 231 q 704 694 708 571 q 699 799 703 757 q 690 863 696 840 l 813 863 m 640 1014 q 624 974 640 992 q 583 956 607 956 q 541 973 558 956 q 524 1014 524 990 q 541 1056 524 1038 q 583 1074 558 1074 q 623 1056 606 1074 q 640 1014 640 1038 m 396 1014 q 379 974 396 992 q 338 956 363 956 q 296 973 314 956 q 278 1014 278 990 q 296 1054 278 1036 q 338 1072 314 1072 q 378 1054 360 1072 q 396 1014 396 1036 z "},"Ý":{"ha":729,"x_min":19,"x_max":718,"o":"m 718 865 q 654 785 694 840 q 554 642 614 729 q 485 536 519 589 q 415 431 450 483 q 417 304 417 367 q 418 178 417 242 q 432 0 421 49 l 310 0 q 326 176 325 53 l 326 431 q 249 549 288 490 q 171 668 210 608 q 75 804 113 756 q 19 865 38 853 l 181 865 q 224 756 178 828 l 378 510 l 529 754 q 578 865 575 829 l 718 865 m 510 1178 l 399 954 l 328 976 l 406 1213 l 510 1178 z "},"Þ":{"ha":686,"x_min":79,"x_max":639,"o":"m 201 860 q 192 806 196 838 q 188 729 189 774 l 383 729 q 536 676 458 729 q 639 472 639 603 q 539 272 639 343 q 382 217 469 224 q 346 216 369 217 q 294 215 322 215 q 238 214 265 214 q 189 214 210 214 q 186 163 186 179 q 186 135 186 146 q 200 0 186 54 l 79 0 q 96 169 94 53 l 96 417 q 96 628 96 547 q 94 742 96 710 q 90 804 93 775 q 79 860 86 833 l 201 860 m 542 472 q 382 646 540 619 q 190 650 342 651 l 189 297 q 320 297 272 296 q 382 300 368 297 q 542 472 543 324 z "},"ß":{"ha":604,"x_min":14,"x_max":593,"o":"m 593 126 q 525 19 586 57 q 396 -14 471 -14 q 378 -13 386 -14 q 360 -11 369 -12 q 267 11 311 -4 q 231 17 244 19 l 231 111 l 267 111 q 361 61 304 74 q 396 57 378 57 q 472 78 440 57 q 508 140 508 101 q 467 208 511 176 l 379 271 q 340 301 353 290 q 325 314 326 313 q 300 376 300 339 q 306 419 300 397 q 368 521 315 460 q 431 608 419 581 q 440 665 440 636 q 401 753 440 721 q 307 778 361 785 q 193 667 208 765 q 185 390 185 614 q 186 158 185 256 q 190 -1 188 61 l 97 -1 q 106 389 106 69 l 106 442 q 14 433 32 439 l 14 514 q 104 506 35 503 q 124 726 103 664 q 307 849 164 847 q 460 803 401 851 q 521 663 521 750 q 492 558 521 606 q 435 488 478 533 q 390 429 399 449 q 382 389 382 404 q 399 358 382 371 q 435 331 417 344 q 490 291 463 311 q 544 251 517 271 q 593 126 601 199 z "},"à":{"ha":593,"x_min":56,"x_max":551,"o":"m 378 400 q 275 488 376 493 q 222 477 250 486 q 167 454 193 468 q 119 422 142 440 q 82 385 96 404 l 82 468 q 278 556 154 553 q 406 519 357 557 q 463 388 463 475 l 463 101 q 486 69 463 69 q 551 111 494 69 l 551 36 q 471 -12 506 -12 q 382 56 399 -12 q 208 -14 318 -11 q 147 -2 175 -14 q 99 31 119 10 q 67 79 78 51 q 56 139 56 107 q 103 254 56 208 q 221 307 147 296 q 288 316 249 310 q 378 331 326 322 l 378 400 m 382 125 l 382 258 q 326 251 361 256 q 242 239 290 246 q 166 207 196 232 q 136 150 136 182 q 160 85 136 111 q 224 60 185 60 q 306 81 253 60 q 382 125 360 104 m 338 647 l 267 625 l 182 857 l 276 889 l 338 647 z "},"á":{"ha":593,"x_min":42,"x_max":538,"o":"m 364 400 q 261 488 363 493 q 208 477 236 486 q 153 454 179 468 q 105 422 128 440 q 68 385 82 404 l 68 468 q 264 556 140 553 q 392 519 343 557 q 449 388 449 475 l 449 101 q 472 69 449 69 q 538 111 481 69 l 538 36 q 457 -12 492 -12 q 368 56 385 -12 q 194 -14 304 -11 q 133 -2 161 -14 q 85 31 106 10 q 53 79 64 51 q 42 139 42 107 q 89 254 42 208 q 207 307 133 296 q 274 316 235 310 q 364 331 313 322 l 364 400 m 368 125 l 368 258 q 312 251 347 256 q 228 239 276 246 q 152 207 182 232 q 122 150 122 182 q 147 85 122 111 q 210 60 171 60 q 292 81 239 60 q 368 125 346 104 m 396 856 l 311 624 l 240 646 l 303 888 l 396 856 z "},"â":{"ha":597,"x_min":61,"x_max":565,"o":"m 392 400 q 289 488 390 493 q 235 477 264 486 q 181 454 207 468 q 133 422 156 440 q 96 385 110 404 l 96 468 q 292 556 168 553 q 419 519 371 557 q 476 388 476 475 l 476 101 q 500 69 476 69 q 565 111 508 69 l 565 36 q 485 -12 519 -12 q 396 56 413 -12 q 222 -14 332 -11 q 161 -2 189 -14 q 113 31 133 10 q 81 79 92 51 q 69 139 69 107 q 117 254 69 208 q 235 307 161 296 q 301 316 263 310 q 392 331 340 322 l 392 400 m 396 125 l 396 258 q 340 251 375 256 q 256 239 304 246 q 180 207 210 232 q 150 150 150 182 q 174 85 150 111 q 238 60 199 60 q 319 81 267 60 q 396 125 374 104 m 556 704 l 496 647 l 304 794 q 113 650 303 794 l 61 704 l 307 876 q 431 790 369 833 q 556 704 493 747 z "},"ã":{"ha":568,"x_min":39,"x_max":535,"o":"m 361 400 q 258 488 360 493 q 205 477 233 486 q 151 454 176 468 q 102 422 125 440 q 65 385 79 404 l 65 468 q 261 556 138 553 q 389 519 340 557 q 446 388 446 475 l 446 101 q 469 69 446 69 q 535 111 478 69 l 535 36 q 454 -12 489 -12 q 365 56 382 -12 q 192 -14 301 -11 q 131 -2 158 -14 q 82 31 103 10 q 50 79 61 51 q 39 139 39 107 q 86 254 39 208 q 204 307 131 296 q 271 316 232 310 q 361 331 310 322 l 361 400 m 365 125 l 365 258 q 309 251 344 256 q 225 239 274 246 q 149 207 179 232 q 119 150 119 182 q 144 85 119 111 q 207 60 168 60 q 289 81 236 60 q 365 125 343 104 m 482 765 q 431 663 465 696 q 361 629 397 629 q 315 644 344 629 q 246 689 286 658 q 167 731 190 731 q 111 643 132 731 l 54 675 q 105 778 76 746 q 161 813 133 810 q 203 800 176 813 q 269 758 229 788 q 326 718 303 733 q 363 703 350 703 q 383 712 372 703 q 403 735 393 721 q 419 769 413 750 q 426 811 425 789 q 455 792 439 804 q 482 772 471 781 l 482 765 z "},"ä":{"ha":597,"x_min":56,"x_max":551,"o":"m 378 400 q 275 488 376 493 q 222 477 250 486 q 167 454 193 468 q 119 422 142 440 q 82 385 96 404 l 82 468 q 278 556 154 553 q 406 519 357 557 q 463 388 463 475 l 463 101 q 486 69 463 69 q 551 111 494 69 l 551 36 q 471 -12 506 -12 q 382 56 399 -12 q 208 -14 318 -11 q 147 -2 175 -14 q 99 31 119 10 q 67 79 78 51 q 56 139 56 107 q 103 254 56 208 q 221 307 147 296 q 288 316 249 310 q 378 331 326 322 l 378 400 m 382 125 l 382 258 q 326 251 361 256 q 242 239 290 246 q 166 207 196 232 q 136 150 136 182 q 160 85 136 111 q 224 60 185 60 q 306 81 253 60 q 382 125 360 104 m 457 706 q 440 665 457 683 q 400 647 424 647 q 358 665 376 647 q 340 706 340 682 q 358 747 340 729 q 400 765 376 765 q 440 747 422 765 q 457 706 457 728 m 213 708 q 196 667 213 685 q 154 650 179 650 q 113 667 131 650 q 94 708 94 685 q 113 749 94 731 q 154 767 131 767 q 195 749 178 767 q 213 708 213 731 z "},"å":{"ha":597,"x_min":56,"x_max":551,"o":"m 425 781 q 414 728 425 753 q 384 685 403 704 q 341 656 365 667 q 289 644 317 644 q 237 656 261 644 q 194 685 213 667 q 164 728 175 704 q 153 781 153 753 q 164 833 153 808 q 194 876 175 857 q 237 906 213 894 q 289 917 261 917 q 386 878 347 917 q 425 781 425 839 m 374 781 q 351 844 374 821 q 289 868 328 868 q 228 844 251 868 q 206 781 206 819 q 228 717 206 742 q 289 693 251 693 q 351 717 328 693 q 374 781 374 740 m 378 400 q 275 488 376 493 q 222 477 250 486 q 167 454 193 468 q 119 422 142 440 q 82 385 96 404 l 82 468 q 278 556 154 553 q 406 519 357 557 q 463 388 463 475 l 463 101 q 486 69 463 69 q 551 111 494 69 l 551 36 q 471 -12 506 -12 q 382 56 399 -12 q 208 -14 318 -11 q 147 -2 175 -14 q 99 31 119 10 q 67 79 78 51 q 56 139 56 107 q 103 254 56 208 q 221 307 147 296 q 288 316 249 310 q 378 331 326 322 l 378 400 m 382 125 l 382 258 q 326 251 361 256 q 242 239 290 246 q 166 207 196 232 q 136 150 136 182 q 160 85 136 111 q 224 60 185 60 q 306 81 253 60 q 382 125 360 104 z "},"æ":{"ha":890,"x_min":28,"x_max":856,"o":"m 417 100 q 181 -17 340 -18 q 71 29 115 -15 q 28 136 28 74 q 96 268 28 218 q 151 298 115 282 q 240 332 188 314 l 350 371 l 350 396 q 247 483 350 490 q 194 473 222 482 q 140 450 165 464 q 91 418 114 436 q 54 381 68 400 l 54 464 q 250 551 126 549 q 425 449 389 556 q 608 547 486 544 q 799 468 735 549 q 856 274 857 396 l 435 274 q 492 124 433 185 q 639 63 549 65 q 788 126 722 61 l 828 53 q 632 -11 719 -7 q 506 15 565 -14 q 417 100 447 44 m 754 347 q 607 472 739 472 q 513 439 556 472 q 447 347 469 406 l 754 347 m 350 122 l 350 303 q 252 267 292 283 q 189 240 213 251 q 108 147 108 197 q 133 83 108 108 q 196 57 157 57 q 275 78 225 57 q 350 122 324 99 z "},"ç":{"ha":511,"x_min":46,"x_max":472,"o":"m 338 -185 q 224 -242 301 -249 q 160 -222 178 -237 l 194 -167 q 232 -175 213 -175 q 278 -136 272 -175 q 213 -67 285 -87 l 246 -4 q 97 97 150 19 q 46 272 44 174 q 114 457 49 381 q 292 546 182 533 q 450 532 371 554 l 438 458 q 333 474 379 474 q 246 458 285 474 q 132 268 135 415 q 189 125 132 186 q 332 65 246 67 q 449 94 383 65 l 472 24 q 310 -11 388 -12 l 294 -40 q 351 -133 351 -69 q 338 -185 351 -162 z "},"è":{"ha":583,"x_min":46,"x_max":553,"o":"m 351 651 l 281 629 l 196 861 l 290 893 l 351 651 m 553 274 l 132 274 l 132 268 q 194 119 131 179 q 336 63 253 65 q 485 126 419 61 l 525 53 q 329 -11 417 -7 q 119 68 200 -17 q 46 271 44 150 q 121 467 47 388 q 306 547 193 544 q 496 469 431 549 q 553 274 554 396 m 451 347 q 304 472 436 472 q 210 439 253 472 q 146 347 167 406 l 451 347 z "},"é":{"ha":583,"x_min":46,"x_max":553,"o":"m 465 861 l 381 629 l 310 651 l 371 893 l 465 861 m 553 274 l 132 274 l 132 268 q 194 119 131 179 q 336 63 253 65 q 485 126 419 61 l 525 53 q 329 -11 417 -7 q 119 68 200 -17 q 46 271 44 150 q 121 467 47 388 q 306 547 193 544 q 496 469 431 549 q 553 274 554 396 m 451 347 q 304 472 436 472 q 210 439 253 472 q 146 347 167 406 l 451 347 z "},"ê":{"ha":583,"x_min":46,"x_max":569,"o":"m 569 694 l 510 638 l 318 785 q 126 640 317 785 l 75 694 l 321 867 q 445 781 383 824 q 569 694 507 738 m 553 274 l 132 274 l 132 268 q 194 119 131 179 q 336 63 253 65 q 485 126 419 61 l 525 53 q 329 -11 417 -7 q 119 68 200 -17 q 46 271 44 150 q 121 467 47 388 q 306 547 193 544 q 496 469 431 549 q 553 274 554 396 m 451 347 q 304 472 436 472 q 210 439 253 472 q 146 347 167 406 l 451 347 z "},"ë":{"ha":583,"x_min":46,"x_max":553,"o":"m 504 700 q 488 660 504 678 q 447 642 471 642 q 405 659 422 642 q 388 700 388 676 q 405 742 388 724 q 447 760 422 760 q 487 742 469 760 q 504 700 504 724 m 260 703 q 243 663 260 681 q 201 644 226 644 q 160 662 178 644 q 142 703 142 679 q 160 743 142 725 q 201 761 178 761 q 242 743 224 761 q 260 703 260 725 m 553 274 l 132 274 l 132 268 q 194 119 131 179 q 336 63 253 65 q 485 126 419 61 l 525 53 q 329 -11 417 -7 q 119 68 200 -17 q 46 271 44 150 q 121 467 47 388 q 306 547 193 544 q 496 469 431 549 q 553 274 554 396 m 451 347 q 304 472 436 472 q 210 439 253 472 q 146 347 167 406 l 451 347 z "},"ì":{"ha":222,"x_min":0,"x_max":163,"o":"m 156 651 l 85 629 l 0 861 l 94 893 l 156 651 m 163 -1 l 71 -1 q 71 540 85 292 l 163 540 q 163 -1 154 265 z "},"í":{"ha":222,"x_min":71,"x_max":238,"o":"m 238 861 l 153 629 l 82 651 l 143 893 l 238 861 m 163 -1 l 71 -1 q 71 540 85 292 l 163 540 q 163 -1 154 265 z "},"î":{"ha":222,"x_min":-68,"x_max":315,"o":"m 315 694 l 256 638 q 119 785 122 785 q -17 640 117 785 l -68 694 l 122 867 q 219 781 171 824 q 315 694 267 738 m 163 -1 l 71 -1 q 71 540 85 292 l 163 540 q 163 -1 154 265 z "},"ï":{"ha":222,"x_min":-64,"x_max":299,"o":"m 299 700 q 282 660 299 678 q 242 642 265 642 q 199 659 217 642 q 182 700 182 676 q 199 742 182 724 q 242 760 217 760 q 281 742 264 760 q 299 700 299 724 m 54 703 q 38 663 54 681 q -4 644 21 644 q -46 662 -28 644 q -64 703 -64 679 q -46 743 -64 725 q -4 761 -28 761 q 36 743 18 761 q 54 703 54 725 m 163 -1 l 71 -1 q 71 540 85 292 l 163 540 q 163 -1 154 265 z "},"ð":{"ha":679,"x_min":64,"x_max":626,"o":"m 626 269 q 546 67 626 143 q 347 -11 464 -11 q 140 72 219 -11 q 64 272 64 150 q 143 468 65 390 q 347 547 222 547 q 440 535 396 547 q 398 591 421 564 q 350 644 375 618 q 322 672 336 658 q 293 700 308 686 l 122 611 q 103 657 125 614 l 253 735 q 124 826 183 790 l 179 892 l 193 883 q 333 776 272 832 l 503 865 q 525 821 507 861 l 372 742 q 417 696 396 719 q 460 647 439 672 q 626 269 629 443 m 542 269 q 490 415 544 358 q 350 474 436 474 q 206 415 264 474 q 147 269 149 357 q 206 125 147 185 q 350 65 265 65 q 426 80 392 65 q 487 121 461 94 q 527 185 513 147 q 542 269 542 224 z "},"ñ":{"ha":558,"x_min":53,"x_max":514,"o":"m 514 0 l 419 0 q 419 79 419 39 q 421 163 419 119 l 421 274 q 416 358 419 322 q 406 415 413 393 q 313 490 381 489 q 188 454 243 492 q 165 433 176 443 q 143 413 154 424 l 143 0 l 53 0 q 57 474 57 143 l 56 539 l 140 539 l 139 488 q 325 561 224 561 q 464 501 421 561 q 511 272 511 436 l 511 108 q 513 27 513 58 q 514 0 514 -4 m 493 776 q 442 674 476 707 q 372 640 408 640 q 326 655 356 640 q 257 700 297 669 q 178 742 201 742 q 122 654 143 742 l 65 686 q 116 789 88 757 q 172 824 144 821 q 214 811 188 824 q 281 769 240 799 q 338 729 314 744 q 374 714 361 714 q 394 723 383 714 q 414 747 404 732 q 430 781 424 761 q 438 822 436 800 q 466 803 450 815 q 493 783 482 792 l 493 776 z "},"ò":{"ha":654,"x_min":46,"x_max":608,"o":"m 386 651 l 315 629 l 231 861 l 325 893 l 386 651 m 608 269 q 528 67 608 143 q 329 -11 446 -11 q 121 72 201 -11 q 46 272 43 151 q 125 468 47 390 q 329 547 204 547 q 532 471 456 547 q 608 269 608 394 m 524 269 q 510 350 524 313 q 472 415 497 388 q 410 458 446 443 q 332 474 375 474 q 186 415 244 474 q 129 269 129 356 q 188 125 129 185 q 332 65 247 65 q 469 121 415 65 q 524 269 522 176 z "},"ó":{"ha":654,"x_min":46,"x_max":608,"o":"m 453 861 l 368 629 l 297 651 l 358 893 l 453 861 m 608 269 q 528 67 608 143 q 329 -11 446 -11 q 121 72 201 -11 q 46 272 43 151 q 125 468 47 390 q 329 547 204 547 q 532 471 456 547 q 608 269 608 394 m 524 269 q 510 350 524 313 q 472 415 497 388 q 410 458 446 443 q 332 474 375 474 q 186 415 244 474 q 129 269 129 356 q 188 125 129 185 q 332 65 247 65 q 469 121 415 65 q 524 269 522 176 z "},"ô":{"ha":654,"x_min":46,"x_max":608,"o":"m 593 694 l 533 638 l 342 785 q 150 640 340 785 l 99 694 l 344 867 q 469 781 407 824 q 593 694 531 738 m 608 269 q 528 67 608 143 q 329 -11 446 -11 q 121 72 201 -11 q 46 272 43 151 q 125 468 47 390 q 329 547 204 547 q 532 471 456 547 q 608 269 608 394 m 524 269 q 510 350 524 313 q 472 415 497 388 q 410 458 446 443 q 332 474 375 474 q 186 415 244 474 q 129 269 129 356 q 188 125 129 185 q 332 65 247 65 q 469 121 415 65 q 524 269 522 176 z "},"õ":{"ha":654,"x_min":46,"x_max":608,"o":"m 608 269 q 528 67 608 143 q 329 -11 446 -11 q 121 72 201 -11 q 46 272 43 151 q 125 468 47 390 q 329 547 204 547 q 532 471 456 547 q 608 269 608 394 m 524 269 q 510 350 524 313 q 472 415 497 388 q 410 458 446 443 q 332 474 375 474 q 186 415 244 474 q 129 269 129 356 q 188 125 129 185 q 332 65 247 65 q 469 121 415 65 q 524 269 522 176 m 536 776 q 485 674 519 707 q 415 640 451 640 q 369 655 399 640 q 300 700 340 669 q 221 742 244 742 q 165 654 186 742 l 108 686 q 159 789 131 757 q 215 824 188 821 q 257 811 231 824 q 324 769 283 799 q 381 729 357 744 q 417 714 404 714 q 437 723 426 714 q 457 747 447 732 q 473 781 467 761 q 481 822 479 800 q 509 803 493 815 q 536 783 525 792 l 536 776 z "},"ö":{"ha":654,"x_min":46,"x_max":608,"o":"m 515 700 q 499 660 515 678 q 458 642 482 642 q 416 659 433 642 q 399 700 399 676 q 416 742 399 724 q 458 760 433 760 q 498 742 481 760 q 515 700 515 724 m 271 703 q 254 663 271 681 q 213 644 238 644 q 171 662 189 644 q 153 703 153 679 q 171 743 153 725 q 213 761 189 761 q 253 743 235 761 q 271 703 271 725 m 608 269 q 528 67 608 143 q 329 -11 446 -11 q 121 72 201 -11 q 46 272 43 151 q 125 468 47 390 q 329 547 204 547 q 532 471 456 547 q 608 269 608 394 m 524 269 q 510 350 524 313 q 472 415 497 388 q 410 458 446 443 q 332 474 375 474 q 186 415 244 474 q 129 269 129 356 q 188 125 129 185 q 332 65 247 65 q 469 121 415 65 q 524 269 522 176 z "},"÷":{"ha":825,"x_min":68,"x_max":754,"o":"m 493 617 q 469 562 493 585 q 413 539 444 539 q 358 563 382 539 q 335 617 335 586 q 358 673 335 649 q 413 697 382 697 q 469 673 444 697 q 493 617 493 649 m 754 317 l 68 317 l 68 393 l 754 393 l 754 317 m 493 93 q 469 37 493 60 q 413 14 446 14 q 358 38 382 14 q 335 93 335 61 q 358 147 335 124 q 413 171 382 171 q 469 147 444 171 q 493 93 493 124 z "},"ø":{"ha":625,"x_min":32,"x_max":594,"o":"m 594 269 q 514 67 594 143 q 315 -11 432 -11 q 264 -7 289 -11 l 222 -137 l 147 -137 l 196 11 q 74 114 117 44 q 32 272 31 183 q 111 468 33 390 q 315 547 190 547 q 368 543 343 547 l 390 608 q 389 610 389 608 l 406 660 l 481 660 l 467 619 q 468 618 468 619 q 458 589 465 613 q 438 525 451 565 q 594 269 594 460 m 510 269 q 414 450 511 394 l 289 68 q 303 66 296 67 q 318 65 311 65 q 455 121 401 65 q 510 269 508 176 m 346 472 q 332 474 339 474 q 318 474 325 474 q 172 415 231 474 q 115 269 115 356 q 221 90 114 150 l 346 472 z "},"ù":{"ha":597,"x_min":49,"x_max":583,"o":"m 339 638 l 268 615 l 183 847 l 278 879 l 339 638 m 583 40 q 444 -12 481 -21 q 421 61 424 -8 q 235 -12 336 -12 q 96 47 138 -12 q 49 276 49 113 q 49 361 49 321 q 50 438 49 401 q 50 481 50 461 q 51 517 50 501 q 53 536 53 531 q 53 539 53 542 l 147 539 q 144 464 146 503 q 140 381 143 425 q 138 326 139 353 q 139 275 138 300 q 144 191 140 226 q 154 133 147 156 q 247 58 179 60 q 371 94 318 57 l 417 136 q 421 374 418 199 q 423 495 422 454 q 424 539 424 536 l 514 539 q 510 352 511 467 q 508 78 508 238 q 513 75 511 75 q 524 78 517 75 q 538 86 531 82 q 551 94 544 90 q 560 99 557 99 q 568 80 563 94 q 583 40 574 65 z "},"ú":{"ha":597,"x_min":49,"x_max":583,"o":"m 414 861 l 329 629 l 258 651 l 319 893 l 414 861 m 583 40 q 444 -12 481 -21 q 421 61 424 -8 q 235 -12 336 -12 q 96 47 138 -12 q 49 276 49 113 q 49 361 49 321 q 50 438 49 401 q 50 481 50 461 q 51 517 50 501 q 53 536 53 531 q 53 539 53 542 l 147 539 q 144 464 146 503 q 140 381 143 425 q 138 326 139 353 q 139 275 138 300 q 144 191 140 226 q 154 133 147 156 q 247 58 179 60 q 371 94 318 57 l 417 136 q 421 374 418 199 q 423 495 422 454 q 424 539 424 536 l 514 539 q 510 352 511 467 q 508 78 508 238 q 513 75 511 75 q 524 78 517 75 q 538 86 531 82 q 551 94 544 90 q 560 99 557 99 q 568 80 563 94 q 583 40 574 65 z "},"û":{"ha":597,"x_min":49,"x_max":583,"o":"m 551 694 l 492 638 l 300 785 q 108 640 299 785 l 57 694 l 303 867 q 427 781 365 824 q 551 694 489 738 m 583 40 q 444 -12 481 -21 q 421 61 424 -8 q 235 -12 336 -12 q 96 47 138 -12 q 49 276 49 113 q 49 361 49 321 q 50 438 49 401 q 50 481 50 461 q 51 517 50 501 q 53 536 53 531 q 53 539 53 542 l 147 539 q 144 464 146 503 q 140 381 143 425 q 138 326 139 353 q 139 275 138 300 q 144 191 140 226 q 154 133 147 156 q 247 58 179 60 q 371 94 318 57 l 417 136 q 421 374 418 199 q 423 495 422 454 q 424 539 424 536 l 514 539 q 510 352 511 467 q 508 78 508 238 q 513 75 511 75 q 524 78 517 75 q 538 86 531 82 q 551 94 544 90 q 560 99 557 99 q 568 80 563 94 q 583 40 574 65 z "},"ü":{"ha":597,"x_min":49,"x_max":583,"o":"m 468 700 q 451 660 468 678 q 411 642 435 642 q 369 659 386 642 q 351 700 351 676 q 369 742 351 724 q 411 760 386 760 q 451 742 433 760 q 468 700 468 724 m 224 703 q 207 663 224 681 q 165 644 190 644 q 124 662 142 644 q 106 703 106 679 q 124 743 106 725 q 165 761 142 761 q 206 743 188 761 q 224 703 224 725 m 583 40 q 444 -12 481 -21 q 421 61 424 -8 q 235 -12 336 -12 q 96 47 138 -12 q 49 276 49 113 q 49 361 49 321 q 50 438 49 401 q 50 481 50 461 q 51 517 50 501 q 53 536 53 531 q 53 539 53 542 l 147 539 q 144 464 146 503 q 140 381 143 425 q 138 326 139 353 q 139 275 138 300 q 144 191 140 226 q 154 133 147 156 q 247 58 179 60 q 371 94 318 57 l 417 136 q 421 374 418 199 q 423 495 422 454 q 424 539 424 536 l 514 539 q 510 352 511 467 q 508 78 508 238 q 513 75 511 75 q 524 78 517 75 q 538 86 531 82 q 551 94 544 90 q 560 99 557 99 q 568 80 563 94 q 583 40 574 65 z "},"ý":{"ha":653,"x_min":-71,"x_max":578,"o":"m 578 536 l 410 117 q 314 -104 344 -44 q 157 -294 229 -272 q 65 -308 114 -308 q -71 -267 -24 -308 l -43 -199 q 64 -237 -3 -237 q 110 -231 85 -237 q 214 -135 161 -217 q 283 6 258 -69 q 161 272 221 140 q 39 538 101 404 l 140 538 q 213 372 167 479 q 325 106 258 264 q 412 331 374 224 q 478 536 450 438 q 578 536 575 538 m 446 847 l 361 615 l 290 638 l 353 879 l 446 847 z "},"þ":{"ha":592,"x_min":57,"x_max":575,"o":"m 575 271 q 499 65 575 143 q 296 -12 421 -12 q 146 50 196 -12 q 148 -172 146 -83 q 153 -308 150 -261 l 58 -308 q 63 -97 61 -246 q 65 292 65 51 q 57 833 65 668 l 151 833 q 149 768 150 814 q 146 650 147 722 q 146 492 142 497 q 174 517 156 506 q 213 535 192 528 q 257 547 235 543 q 296 551 279 551 q 494 474 413 551 q 575 271 575 397 m 490 271 q 435 419 489 364 q 299 475 382 475 q 149 408 208 475 q 145 244 146 314 q 146 128 144 175 q 299 61 204 61 q 438 122 383 61 q 490 271 492 183 z "},"ÿ":{"ha":653,"x_min":-71,"x_max":578,"o":"m 578 536 l 410 117 q 314 -104 344 -44 q 157 -294 229 -272 q 65 -308 114 -308 q -71 -267 -24 -308 l -43 -199 q 64 -237 -3 -237 q 110 -231 85 -237 q 214 -135 161 -217 q 283 6 258 -69 q 161 272 221 140 q 39 538 101 404 l 140 538 q 213 372 167 479 q 325 106 258 264 q 412 331 374 224 q 478 536 450 438 q 578 536 575 538 m 528 696 q 511 656 528 674 q 471 638 494 638 q 429 655 447 638 q 411 696 411 672 q 429 738 411 719 q 471 756 447 756 q 510 737 493 756 q 528 696 528 718 m 283 699 q 267 658 283 675 q 225 640 250 640 q 183 658 201 640 q 165 699 165 675 q 183 739 165 721 q 225 757 201 757 q 266 739 249 757 q 283 699 283 721 z "},"Ā":{"ha":931,"x_min":32,"x_max":815,"o":"m 815 0 l 689 0 q 593 285 679 44 l 244 285 q 143 0 156 58 l 32 0 q 378 879 100 135 l 476 879 q 558 659 519 761 q 629 469 596 557 q 815 0 785 51 m 564 369 q 491 583 525 479 q 426 788 457 688 q 369 624 407 728 q 274 369 332 521 l 564 369 m 647 946 l 208 946 l 208 1015 l 647 1015 l 647 946 z "},"ā":{"ha":597,"x_min":56,"x_max":551,"o":"m 378 400 q 275 488 376 493 q 222 477 250 486 q 167 454 193 468 q 119 422 142 440 q 82 385 96 404 l 82 468 q 278 556 154 553 q 406 519 357 557 q 463 388 463 475 l 463 101 q 486 69 463 69 q 551 111 494 69 l 551 36 q 471 -12 506 -12 q 382 56 399 -12 q 208 -14 318 -11 q 147 -2 175 -14 q 99 31 119 10 q 67 79 78 51 q 56 139 56 107 q 103 254 56 208 q 221 307 147 296 q 288 316 249 310 q 378 331 326 322 l 378 400 m 382 125 l 382 258 q 326 251 361 256 q 242 239 290 246 q 166 207 196 232 q 136 150 136 182 q 160 85 136 111 q 224 60 185 60 q 306 81 253 60 q 382 125 360 104 m 496 643 l 68 643 l 69 710 l 496 710 l 496 643 z "},"Ă":{"ha":928,"x_min":32,"x_max":815,"o":"m 815 0 l 689 0 q 593 285 679 44 l 244 285 q 143 0 156 58 l 32 0 q 378 879 100 135 l 476 879 q 558 659 519 761 q 629 469 596 557 q 815 0 785 51 m 564 369 q 491 583 525 479 q 426 788 457 688 q 369 624 407 728 q 274 369 332 521 l 564 369 m 649 1097 q 551 990 606 1026 q 432 954 497 954 q 313 990 365 954 q 210 1097 260 1026 l 256 1124 q 431 1004 342 1004 q 608 1124 522 1004 l 649 1097 z "},"ă":{"ha":597,"x_min":56,"x_max":551,"o":"m 378 400 q 275 488 376 493 q 222 477 250 486 q 167 454 193 468 q 119 422 142 440 q 82 385 96 404 l 82 468 q 278 556 154 553 q 406 519 357 557 q 463 388 463 475 l 463 101 q 486 69 463 69 q 551 111 494 69 l 551 36 q 471 -12 506 -12 q 382 56 399 -12 q 208 -14 318 -11 q 147 -2 175 -14 q 99 31 119 10 q 67 79 78 51 q 56 139 56 107 q 103 254 56 208 q 221 307 147 296 q 288 316 249 310 q 378 331 326 322 l 378 400 m 382 125 l 382 258 q 326 251 361 256 q 242 239 290 246 q 166 207 196 232 q 136 150 136 182 q 160 85 136 111 q 224 60 185 60 q 306 81 253 60 q 382 125 360 104 m 519 792 q 422 685 476 721 q 303 649 368 649 q 183 685 236 649 q 81 792 131 721 l 126 818 q 301 699 213 699 q 479 818 393 699 l 519 792 z "},"Ą":{"ha":851,"x_min":32,"x_max":860,"o":"m 860 -272 q 726 -307 814 -308 q 630 -272 667 -307 q 596 -186 593 -237 q 686 10 600 -85 q 656 104 679 36 q 593 285 633 172 l 244 285 q 143 0 156 58 l 32 0 q 378 879 100 135 l 476 879 q 558 659 519 761 q 629 469 596 557 q 815 0 785 51 l 774 0 q 729 -60 751 -26 q 683 -135 707 -93 q 675 -164 675 -150 q 692 -203 675 -187 q 736 -219 708 -219 q 829 -189 790 -219 l 860 -272 m 564 369 q 491 583 525 479 q 426 788 457 688 q 369 624 407 728 q 274 369 332 521 l 564 369 z "},"ą":{"ha":569,"x_min":42,"x_max":568,"o":"m 568 -272 q 435 -307 525 -308 q 339 -272 375 -307 q 304 -186 303 -237 q 392 6 308 -89 q 368 51 376 21 q 194 -17 283 -17 q 83 31 126 -17 q 42 136 42 74 q 110 268 42 218 q 165 298 129 282 q 254 332 201 314 l 364 371 l 364 396 q 261 483 364 490 q 208 473 236 482 q 154 450 181 464 q 106 418 128 436 q 68 381 83 400 l 68 464 q 264 551 140 549 q 392 517 344 553 q 449 383 449 472 l 449 97 q 472 65 449 65 q 538 107 481 65 l 538 32 q 471 -14 504 -4 q 392 -135 431 -62 q 385 -165 385 -151 q 401 -206 385 -189 q 446 -224 418 -224 q 538 -193 499 -224 l 568 -272 m 364 122 l 364 303 q 204 240 251 264 q 122 147 122 196 q 147 83 122 108 q 210 57 171 57 q 289 78 239 57 q 364 122 338 99 z "},"Ć":{"ha":740,"x_min":61,"x_max":665,"o":"m 665 147 q 658 68 660 100 q 656 18 656 36 q 583 4 647 19 q 450 -14 517 -14 q 167 124 276 -14 q 61 428 61 251 q 161 744 61 619 q 454 881 269 881 q 575 865 511 881 q 647 853 638 851 q 650 802 647 835 q 658 721 653 769 l 593 721 q 576 769 590 740 q 450 799 542 800 q 231 682 313 794 q 157 426 157 576 q 239 181 157 286 q 464 68 328 68 q 578 99 547 68 q 600 147 592 113 l 665 147 m 561 1178 l 450 954 l 379 976 l 457 1213 l 561 1178 z "},"ć":{"ha":514,"x_min":46,"x_max":472,"o":"m 472 24 q 441 10 454 17 q 417 1 428 4 q 329 -11 379 -10 q 119 68 200 -17 q 46 272 44 150 q 114 457 49 381 q 292 546 182 533 q 450 532 371 554 l 438 458 q 333 474 379 474 q 246 458 285 474 q 132 268 135 415 q 189 125 132 186 q 332 65 246 67 q 449 94 383 65 l 472 24 m 407 851 l 322 619 l 251 642 l 314 883 l 407 851 z "},"Ĉ":{"ha":740,"x_min":61,"x_max":689,"o":"m 665 147 q 658 68 660 100 q 656 18 656 36 q 583 4 647 19 q 450 -14 517 -14 q 167 124 276 -14 q 61 428 61 251 q 161 744 61 619 q 454 881 269 881 q 575 865 511 881 q 647 853 638 851 q 650 802 647 835 q 658 721 653 769 l 593 721 q 576 769 590 740 q 450 799 542 800 q 231 682 313 794 q 157 426 157 576 q 239 181 157 286 q 464 68 328 68 q 578 99 547 68 q 600 147 592 113 l 665 147 m 689 1013 l 629 956 l 438 1103 q 246 958 436 1103 l 194 1013 l 440 1185 q 565 1099 503 1142 q 689 1013 626 1056 z "},"ĉ":{"ha":514,"x_min":35,"x_max":529,"o":"m 472 24 q 441 10 454 17 q 417 1 428 4 q 329 -11 379 -10 q 119 68 200 -17 q 46 272 44 150 q 114 457 49 381 q 292 546 182 533 q 450 532 371 554 l 438 458 q 333 474 379 474 q 246 458 285 474 q 132 268 135 415 q 189 125 132 186 q 332 65 246 67 q 449 94 383 65 l 472 24 m 529 689 l 469 632 l 278 779 q 86 635 276 779 l 35 689 l 281 861 q 405 775 343 818 q 529 689 467 732 z "},"Ċ":{"ha":740,"x_min":60,"x_max":664,"o":"m 664 150 q 656 71 658 103 q 654 21 654 39 q 582 7 646 22 q 449 -11 515 -11 q 165 126 275 -11 q 60 431 60 254 q 160 747 60 622 q 453 883 268 883 q 574 868 510 883 q 646 856 636 854 q 649 805 646 838 q 657 724 651 772 l 592 724 q 575 772 589 743 q 449 801 540 803 q 229 685 311 797 q 156 429 156 579 q 238 183 156 289 q 463 71 326 71 q 576 101 546 71 q 599 150 590 115 l 664 150 m 518 1032 q 496 978 518 1000 q 442 956 474 956 q 388 978 410 956 q 365 1032 365 1000 q 388 1086 365 1064 q 442 1108 410 1108 q 496 1086 474 1108 q 518 1032 518 1064 z "},"ċ":{"ha":514,"x_min":46,"x_max":472,"o":"m 472 24 q 441 10 454 17 q 417 1 428 4 q 329 -11 379 -10 q 119 68 200 -17 q 46 272 44 150 q 114 457 49 381 q 292 546 182 533 q 450 532 371 554 l 438 458 q 333 474 379 474 q 246 458 285 474 q 132 268 135 415 q 189 125 132 186 q 332 65 246 67 q 449 94 383 65 l 472 24 m 351 714 q 288 646 351 646 q 222 710 224 646 q 240 757 221 738 q 288 776 258 776 q 333 758 315 776 q 351 714 351 739 z "},"Č":{"ha":740,"x_min":61,"x_max":668,"o":"m 665 147 q 658 68 660 100 q 656 18 656 36 q 583 4 647 19 q 450 -14 517 -14 q 167 124 276 -14 q 61 428 61 251 q 161 744 61 619 q 454 881 269 881 q 575 865 511 881 q 647 853 638 851 q 650 802 647 835 q 658 721 653 769 l 593 721 q 576 769 590 740 q 450 799 542 800 q 231 682 313 794 q 157 426 157 576 q 239 181 157 286 q 464 68 328 68 q 578 99 547 68 q 600 147 592 113 l 665 147 m 668 1128 q 544 1042 606 1085 q 419 956 482 999 l 174 1128 l 225 1182 q 417 1038 415 1038 l 608 1185 l 668 1128 z "},"č":{"ha":514,"x_min":46,"x_max":481,"o":"m 472 24 q 441 10 454 17 q 417 1 428 4 q 329 -11 379 -10 q 119 68 200 -17 q 46 272 44 150 q 114 457 49 381 q 292 546 182 533 q 450 532 371 554 l 438 458 q 333 474 379 474 q 246 458 285 474 q 132 268 135 415 q 189 125 132 186 q 332 65 246 67 q 449 94 383 65 l 472 24 m 481 808 q 465 790 481 808 q 425 744 450 772 q 369 681 400 715 q 308 611 339 646 l 274 611 l 94 801 l 150 851 l 289 679 q 300 694 289 679 q 329 732 311 708 q 371 788 347 756 q 419 856 394 819 l 481 808 z "},"Ď":{"ha":847,"x_min":54,"x_max":735,"o":"m 735 421 q 614 118 735 236 q 310 0 496 0 l 54 0 q 67 104 64 38 q 71 433 71 171 q 71 620 71 546 q 69 733 71 694 q 65 804 68 772 q 54 863 61 836 l 319 863 q 631 740 521 863 q 735 421 735 624 m 632 421 q 311 765 632 765 l 163 765 l 163 606 q 161 513 161 553 q 161 446 161 472 q 165 90 161 333 l 308 90 q 542 183 453 90 q 632 421 632 278 m 560 1128 q 435 1042 497 1085 q 311 956 374 999 l 65 1128 l 117 1182 q 308 1038 307 1038 l 500 1185 l 560 1128 z "},"ď":{"ha":825,"x_min":46,"x_max":822,"o":"m 571 833 q 566 713 568 786 q 564 539 564 640 l 564 485 q 564 413 564 454 q 565 315 564 371 q 567 201 567 250 q 568 117 568 151 l 568 36 q 569 7 569 17 q 569 0 569 -3 l 479 0 l 482 58 q 329 -11 425 -11 q 121 72 201 -11 q 46 272 43 151 q 125 468 47 390 q 329 547 204 547 q 483 482 443 547 l 485 538 q 476 833 490 718 l 571 833 m 332 474 q 186 415 244 474 q 129 269 129 356 q 188 125 129 185 q 332 65 247 65 q 482 138 428 65 q 484 267 483 203 q 485 399 485 332 q 332 474 428 474 m 822 839 l 738 607 l 667 629 l 728 871 l 822 839 z "},"Đ":{"ha":846,"x_min":-3,"x_max":788,"o":"m 788 421 q 667 118 788 236 q 363 0 549 0 l 107 0 q 119 104 117 38 q 124 406 124 171 l -3 406 l -3 472 l 124 472 q 124 630 124 565 q 122 733 124 694 q 117 804 121 772 q 107 863 114 836 l 372 863 q 683 740 574 863 q 788 421 788 624 m 685 421 q 364 765 685 765 l 215 765 q 215 588 215 661 q 214 472 215 515 l 435 472 l 435 406 l 214 406 q 218 90 214 332 l 361 90 q 594 183 506 90 q 685 421 685 278 z "},"đ":{"ha":654,"x_min":46,"x_max":668,"o":"m 668 658 l 564 658 l 564 485 q 564 413 564 454 q 565 315 564 371 q 567 201 567 250 q 568 117 568 151 l 568 36 q 569 7 569 17 q 569 0 569 -3 l 479 0 l 482 58 q 329 -11 425 -11 q 121 72 201 -11 q 46 272 43 151 q 125 468 47 390 q 329 547 204 547 q 483 482 443 547 l 485 538 q 487 612 486 582 q 488 658 488 642 l 372 658 l 372 725 l 486 725 q 482 777 485 750 q 476 832 479 804 l 571 832 q 567 774 568 800 q 565 725 567 747 l 668 725 l 668 658 m 485 399 q 332 474 428 474 q 186 415 244 474 q 129 269 129 356 q 188 125 129 185 q 332 65 247 65 q 482 138 428 65 q 484 267 483 203 q 485 399 485 332 z "},"Ē":{"ha":729,"x_min":107,"x_max":674,"o":"m 674 -7 q 514 -1 585 -3 q 388 0 443 1 q 274 -3 344 -1 q 107 -8 204 -6 q 121 450 121 38 q 107 869 121 824 q 351 861 200 864 q 478 862 407 860 q 639 868 550 864 q 639 735 632 819 l 569 735 q 567 757 567 757 q 558 769 567 761 q 469 779 553 779 l 213 779 q 213 497 210 650 q 560 517 514 497 l 560 397 q 213 414 494 418 q 213 83 211 260 l 506 83 q 593 100 581 83 q 606 143 601 113 l 674 143 q 674 -7 667 40 m 590 950 l 151 950 l 151 1019 l 590 1019 l 590 950 z "},"ē":{"ha":583,"x_min":46,"x_max":553,"o":"m 306 547 q 496 469 431 549 q 553 274 554 396 l 132 274 l 132 268 q 194 119 131 179 q 336 63 253 65 q 485 126 419 61 l 525 53 q 329 -11 417 -7 q 119 68 200 -17 q 46 271 44 150 q 121 467 47 388 q 306 547 193 544 m 451 347 q 304 472 436 472 q 210 439 253 472 q 146 347 167 406 l 451 347 m 522 644 l 94 644 l 96 711 l 522 711 l 522 644 z "},"Ĕ":{"ha":729,"x_min":107,"x_max":674,"o":"m 674 -7 q 514 -1 585 -3 q 388 0 443 1 q 274 -3 344 -1 q 107 -8 204 -6 q 121 450 121 38 q 107 869 121 824 q 351 861 200 864 q 478 862 407 860 q 639 868 550 864 q 639 735 632 819 l 569 735 q 567 757 567 757 q 558 769 567 761 q 469 779 553 779 l 213 779 q 213 497 210 650 q 560 517 514 497 l 560 397 q 213 414 494 418 q 213 83 211 260 l 506 83 q 593 100 581 83 q 606 143 601 113 l 674 143 q 674 -7 667 40 m 603 1100 q 506 993 560 1029 q 386 957 451 957 q 267 993 319 957 q 164 1100 214 1029 l 210 1126 q 385 1007 296 1007 q 563 1126 476 1007 l 603 1100 z "},"ĕ":{"ha":583,"x_min":46,"x_max":553,"o":"m 306 547 q 496 469 431 549 q 553 274 554 396 l 132 274 l 132 268 q 194 119 131 179 q 336 63 253 65 q 485 126 419 61 l 525 53 q 329 -11 417 -7 q 119 68 200 -17 q 46 271 44 150 q 121 467 47 388 q 306 547 193 544 m 451 347 q 304 472 436 472 q 210 439 253 472 q 146 347 167 406 l 451 347 m 542 790 q 444 683 499 719 q 325 647 390 647 q 206 683 258 647 q 103 790 153 719 l 149 817 q 324 697 235 697 q 501 817 415 697 l 542 790 z "},"Ė":{"ha":729,"x_min":107,"x_max":674,"o":"m 674 -3 q 514 3 585 1 q 388 4 443 6 q 274 1 344 3 q 107 -4 204 -1 q 121 454 121 42 q 107 874 121 828 q 351 865 200 868 q 478 866 407 864 q 639 872 550 868 q 639 739 632 824 l 569 739 q 567 761 567 761 q 558 774 567 765 q 469 783 553 783 l 213 783 q 213 501 210 654 q 560 521 514 501 l 560 401 q 213 418 494 422 q 213 88 211 264 l 506 88 q 593 104 581 88 q 606 147 601 117 l 674 147 q 674 -3 667 44 m 449 1032 q 426 978 449 1000 q 372 956 404 956 q 318 978 340 956 q 296 1032 296 1000 q 318 1086 296 1064 q 372 1108 340 1108 q 426 1086 404 1108 q 449 1032 449 1064 z "},"ė":{"ha":583,"x_min":46,"x_max":553,"o":"m 306 547 q 496 469 431 549 q 553 274 554 396 l 132 274 l 132 268 q 194 119 131 179 q 336 63 253 65 q 485 126 419 61 l 525 53 q 329 -11 417 -7 q 119 68 200 -17 q 46 271 44 150 q 121 467 47 388 q 306 547 193 544 m 451 347 q 304 472 436 472 q 210 439 253 472 q 146 347 167 406 l 451 347 m 365 710 q 301 642 365 642 q 236 706 238 642 q 253 753 235 733 q 301 772 272 772 q 347 753 329 772 q 365 710 365 735 z "},"Ę":{"ha":729,"x_min":107,"x_max":674,"o":"m 554 -272 q 421 -307 508 -308 q 324 -272 361 -307 q 290 -186 288 -237 q 372 0 294 -93 q 107 -8 288 -3 q 121 450 121 38 q 107 878 121 832 q 351 869 200 872 q 478 870 407 868 q 639 876 550 872 q 639 743 632 828 l 569 743 q 567 765 567 765 q 558 778 567 769 q 469 788 553 788 l 213 788 q 213 497 210 650 q 560 517 514 497 l 560 397 q 213 414 494 418 q 213 83 211 260 l 506 83 q 593 100 581 83 q 606 143 601 113 l 674 143 q 674 -7 667 40 q 597 -4 647 -6 q 468 0 546 -3 q 424 -60 446 -26 q 378 -135 401 -93 q 369 -164 369 -150 q 386 -203 369 -187 q 431 -219 403 -219 q 524 -189 485 -219 l 554 -272 z "},"ę":{"ha":583,"x_min":46,"x_max":553,"o":"m 457 -272 q 324 -307 411 -308 q 227 -272 264 -307 q 193 -186 190 -237 q 268 -8 197 -99 q 103 88 165 7 q 46 271 44 165 q 121 467 47 388 q 306 547 193 544 q 496 469 431 549 q 553 274 554 396 l 132 274 l 132 268 q 194 119 131 179 q 336 63 253 65 q 485 126 419 61 l 525 53 q 438 12 478 26 q 364 -8 397 -3 q 281 -135 321 -60 q 272 -164 272 -150 q 289 -203 272 -187 q 333 -219 306 -219 q 426 -189 388 -219 l 457 -272 m 451 347 q 304 472 436 472 q 210 439 253 472 q 146 347 167 406 l 451 347 z "},"Ě":{"ha":729,"x_min":107,"x_max":674,"o":"m 674 -7 q 514 -1 585 -3 q 388 0 443 1 q 274 -3 344 -1 q 107 -8 204 -6 q 121 450 121 38 q 107 869 121 824 q 351 861 200 864 q 478 862 407 860 q 639 868 550 864 q 639 735 632 819 l 569 735 q 567 757 567 757 q 558 769 567 761 q 469 779 553 779 l 213 779 q 213 497 210 650 q 560 517 514 497 l 560 397 q 213 414 494 418 q 213 83 211 260 l 506 83 q 593 100 581 83 q 606 143 601 113 l 674 143 q 674 -7 667 40 m 615 1128 q 491 1042 553 1085 q 367 956 429 999 l 121 1128 l 172 1182 q 364 1038 363 1038 l 556 1185 l 615 1128 z "},"ě":{"ha":583,"x_min":46,"x_max":553,"o":"m 306 547 q 496 469 431 549 q 553 274 554 396 l 132 274 l 132 268 q 194 119 131 179 q 336 63 253 65 q 485 126 419 61 l 525 53 q 329 -11 417 -7 q 119 68 200 -17 q 46 271 44 150 q 121 467 47 388 q 306 547 193 544 m 451 347 q 304 472 436 472 q 210 439 253 472 q 146 347 167 406 l 451 347 m 501 801 q 486 783 501 801 q 446 737 471 765 q 390 674 421 708 q 329 604 360 639 l 294 604 l 115 794 l 171 844 l 310 672 q 321 687 310 672 q 350 725 332 701 q 392 781 368 749 q 440 849 415 813 l 501 801 z "},"Ĝ":{"ha":732,"x_min":61,"x_max":696,"o":"m 696 22 q 565 0 649 25 q 450 -12 521 -12 q 164 122 272 -12 q 61 428 61 249 q 163 743 61 617 q 456 881 271 881 q 574 868 517 881 q 618 856 586 867 q 647 851 639 849 q 660 721 650 789 l 594 721 q 547 789 585 769 q 464 801 519 801 q 235 681 319 801 q 158 422 158 571 q 240 179 158 285 q 464 68 331 68 q 551 79 522 68 q 594 147 596 96 l 593 315 l 572 315 q 517 311 526 315 q 492 272 494 306 l 424 272 q 424 401 429 353 q 565 399 500 400 q 685 400 629 399 q 685 171 685 218 q 683 211 685 124 q 696 22 686 99 m 667 1010 l 607 953 l 415 1100 q 224 956 414 1100 l 172 1010 l 418 1182 q 542 1096 481 1139 q 667 1010 604 1053 z "},"ĝ":{"ha":654,"x_min":46,"x_max":611,"o":"m 610 539 q 606 378 607 474 q 604 156 604 283 q 592 -143 604 -93 q 504 -260 572 -217 q 350 -304 435 -304 q 182 -272 253 -304 q 156 -260 172 -267 q 115 -246 139 -254 l 167 -161 q 322 -229 229 -219 q 335 -231 329 -231 q 347 -231 340 -231 q 411 -219 381 -231 q 465 -190 442 -208 q 501 -144 488 -171 q 518 -87 515 -118 q 522 89 519 -44 q 329 -11 457 -11 q 121 72 201 -11 q 46 272 43 151 q 125 468 47 390 q 329 547 204 547 q 518 456 461 547 q 518 494 518 474 q 517 539 518 515 l 610 539 m 332 474 q 186 415 244 474 q 129 269 129 356 q 188 125 129 185 q 332 65 247 65 q 462 115 411 65 q 522 243 513 164 l 522 306 q 460 427 511 381 q 332 474 408 474 m 611 701 l 551 644 l 360 792 q 168 647 358 792 l 117 701 l 363 874 q 487 788 425 831 q 611 701 549 744 z "},"Ğ":{"ha":732,"x_min":61,"x_max":696,"o":"m 696 22 q 565 0 649 25 q 450 -12 521 -12 q 164 122 272 -12 q 61 428 61 249 q 163 743 61 617 q 456 881 271 881 q 574 868 517 881 q 618 856 586 867 q 647 851 639 849 q 660 721 650 789 l 594 721 q 547 789 585 769 q 464 801 519 801 q 235 681 319 801 q 158 422 158 571 q 240 179 158 285 q 464 68 331 68 q 551 79 522 68 q 594 147 596 96 l 593 315 l 572 315 q 517 311 526 315 q 492 272 494 306 l 424 272 q 424 401 429 353 q 565 399 500 400 q 685 400 629 399 q 685 171 685 218 q 683 211 685 124 q 696 22 686 99 m 658 1096 q 561 989 615 1025 q 442 953 507 953 q 322 989 375 953 q 219 1096 269 1025 l 265 1122 q 440 1003 351 1003 q 618 1122 532 1003 l 658 1096 z "},"ğ":{"ha":654,"x_min":46,"x_max":610,"o":"m 610 539 q 606 378 607 474 q 604 156 604 283 q 592 -143 604 -93 q 504 -260 572 -217 q 350 -304 435 -304 q 182 -272 253 -304 q 156 -260 172 -267 q 115 -246 139 -254 l 167 -161 q 322 -229 229 -219 q 335 -231 329 -231 q 347 -231 340 -231 q 411 -219 381 -231 q 465 -190 442 -208 q 501 -144 488 -171 q 518 -87 515 -118 q 522 89 519 -44 q 329 -11 457 -11 q 121 72 201 -11 q 46 272 43 151 q 125 468 47 390 q 329 547 204 547 q 518 456 461 547 q 518 494 518 474 q 517 539 518 515 l 610 539 m 332 474 q 186 415 244 474 q 129 269 129 356 q 188 125 129 185 q 332 65 247 65 q 462 115 411 65 q 522 243 513 164 l 522 306 q 460 427 511 381 q 332 474 408 474 m 583 783 q 486 676 540 713 q 367 640 432 640 q 247 676 300 640 q 144 783 194 713 l 190 810 q 365 690 276 690 q 543 810 457 690 l 583 783 z "},"Ġ":{"ha":732,"x_min":61,"x_max":696,"o":"m 696 22 q 565 0 649 25 q 450 -12 521 -12 q 164 122 272 -12 q 61 428 61 249 q 163 743 61 617 q 456 881 271 881 q 574 868 517 881 q 618 856 586 867 q 647 851 639 849 q 660 721 650 789 l 594 721 q 547 789 585 769 q 464 801 519 801 q 235 681 319 801 q 158 422 158 571 q 240 179 158 285 q 464 68 331 68 q 551 79 522 68 q 594 147 596 96 l 593 315 l 572 315 q 517 311 526 315 q 492 272 494 306 l 424 272 q 424 401 429 353 q 565 399 500 400 q 685 400 629 399 q 685 171 685 218 q 683 211 685 124 q 696 22 686 99 m 513 1031 q 490 976 513 999 q 436 954 468 954 q 382 976 404 954 q 360 1031 360 999 q 382 1085 360 1063 q 436 1107 404 1107 q 490 1085 468 1107 q 513 1031 513 1063 z "},"ġ":{"ha":654,"x_min":18,"x_max":582,"o":"m 582 539 q 578 378 579 474 q 576 156 576 283 q 564 -143 576 -93 q 476 -260 544 -217 q 322 -304 407 -304 q 154 -272 225 -304 q 128 -260 144 -267 q 88 -246 111 -254 l 139 -161 q 294 -229 201 -219 q 307 -231 301 -231 q 319 -231 313 -231 q 383 -219 353 -231 q 437 -190 414 -208 q 474 -144 460 -171 q 490 -87 488 -118 q 494 89 492 -44 q 301 -11 429 -11 q 93 72 174 -11 q 18 272 15 151 q 97 468 19 390 q 301 547 176 547 q 490 456 433 547 q 490 494 490 474 q 489 539 490 515 l 582 539 m 304 474 q 158 415 217 474 q 101 269 101 356 q 160 125 101 185 q 304 65 219 65 q 434 115 383 65 q 494 243 485 164 l 494 306 q 432 427 483 381 q 304 474 381 474 m 365 714 q 301 646 365 646 q 236 710 238 646 q 253 757 235 738 q 301 776 272 776 q 347 758 329 776 q 365 714 365 739 z "},"Ģ":{"ha":732,"x_min":56,"x_max":690,"o":"m 690 42 q 560 19 643 44 q 444 7 515 7 q 158 142 267 7 q 56 447 56 268 q 157 763 56 636 q 450 900 265 900 q 568 888 511 900 q 613 875 581 886 q 642 871 633 868 q 654 740 644 808 l 589 740 q 542 808 579 789 q 458 821 514 821 q 229 700 314 821 q 153 442 153 590 q 235 199 153 304 q 458 88 325 88 q 546 99 517 88 q 589 167 590 115 l 588 335 l 567 335 q 511 331 521 335 q 486 292 489 325 l 418 292 q 418 421 424 372 q 559 419 494 419 q 679 419 624 418 q 679 190 679 238 q 678 231 679 143 q 690 42 681 118 m 469 -212 q 360 -378 469 -351 l 360 -329 q 417 -221 417 -318 l 378 -221 l 378 -128 l 469 -128 l 469 -212 z "},"ģ":{"ha":654,"x_min":46,"x_max":610,"o":"m 610 539 q 606 378 607 474 q 604 156 604 283 q 592 -143 604 -93 q 504 -260 572 -217 q 350 -304 435 -304 q 182 -272 253 -304 q 156 -260 172 -267 q 115 -246 139 -254 l 167 -161 q 322 -229 229 -219 q 335 -231 329 -231 q 347 -231 340 -231 q 411 -219 381 -231 q 465 -190 442 -208 q 501 -144 488 -171 q 518 -87 515 -118 q 522 89 519 -44 q 329 -11 457 -11 q 121 72 201 -11 q 46 272 43 151 q 125 468 47 390 q 329 547 204 547 q 518 456 461 547 q 518 494 518 474 q 517 539 518 515 l 610 539 m 332 474 q 186 415 244 474 q 129 269 129 356 q 188 125 129 185 q 332 65 247 65 q 462 115 411 65 q 522 243 513 164 l 522 306 q 460 427 511 381 q 332 474 408 474 m 286 729 q 396 894 286 868 l 396 846 q 339 738 339 833 l 378 738 l 378 644 l 286 644 l 286 729 z "},"Ĥ":{"ha":882,"x_min":103,"x_max":806,"o":"m 806 0 l 685 0 q 698 133 694 35 q 700 396 701 232 l 211 396 q 226 0 211 61 l 103 0 q 119 178 118 53 q 119 575 119 433 q 118 749 119 717 q 113 808 117 781 q 103 863 110 836 l 226 863 q 210 486 203 776 l 700 486 q 698 735 701 642 q 685 863 694 829 l 804 863 q 794 792 797 836 q 789 686 790 749 l 789 431 q 806 0 789 64 m 710 1010 l 650 953 l 458 1100 q 267 956 457 1100 l 215 1010 l 461 1182 q 585 1096 524 1139 q 710 1010 647 1053 z "},"ĥ":{"ha":563,"x_min":-117,"x_max":543,"o":"m 543 0 l 449 0 q 449 79 449 39 q 450 163 449 119 l 450 274 q 445 358 449 322 q 435 415 442 393 q 342 490 410 489 q 215 453 271 492 q 192 431 204 442 q 168 410 179 421 q 167 343 167 382 q 167 251 167 304 q 168 174 168 215 q 169 85 168 132 q 172 19 171 40 q 172 0 172 -1 l 82 0 q 86 190 85 72 q 88 472 88 308 l 88 538 q 79 833 88 764 l 174 833 q 169 713 171 786 q 167 539 167 640 l 167 485 q 354 561 251 561 q 493 501 450 561 q 540 272 540 436 l 540 108 q 542 27 542 58 q 543 0 543 -4 m 378 975 l 318 918 l 126 1065 q -65 921 125 1065 l -117 975 l 129 1147 q 253 1061 192 1104 q 378 975 315 1018 z "},"Ħ":{"ha":882,"x_min":49,"x_max":847,"o":"m 847 618 l 789 618 l 789 431 q 806 0 789 64 l 685 0 q 698 133 694 35 q 700 396 701 232 l 211 396 q 226 0 211 61 l 103 0 q 110 34 107 13 q 115 102 113 56 q 118 227 117 149 q 119 433 119 306 l 119 618 l 49 618 l 49 685 l 119 685 q 103 863 117 811 l 226 863 q 210 685 211 806 l 700 685 q 699 779 701 742 q 685 863 696 817 l 804 863 q 794 792 797 836 q 789 685 790 749 l 847 685 l 847 618 m 701 618 l 208 618 q 208 558 208 590 q 210 486 208 525 l 700 486 q 701 572 701 539 q 701 618 701 604 z "},"ħ":{"ha":563,"x_min":3,"x_max":528,"o":"m 528 0 l 433 0 q 433 79 433 39 q 435 163 433 119 l 435 274 q 430 358 433 322 q 419 415 426 393 q 326 490 394 489 q 200 453 256 492 q 176 431 189 442 q 153 410 164 421 q 151 343 151 382 q 151 251 151 304 q 153 174 153 215 q 154 85 153 132 q 156 19 156 40 q 157 0 157 -1 l 67 0 q 71 190 69 72 q 72 472 72 308 l 72 611 l 3 611 l 3 678 l 72 678 q 64 832 72 763 l 158 832 q 153 749 156 788 q 151 678 151 710 l 329 678 l 329 611 l 151 611 l 151 485 q 339 561 236 561 q 478 501 435 561 q 525 272 525 436 l 525 108 q 527 27 526 58 q 528 0 528 -4 z "},"Ĩ":{"ha":319,"x_min":-50,"x_max":378,"o":"m 229 863 q 219 792 222 836 q 214 686 215 749 l 214 431 l 214 179 q 228 0 217 49 l 107 0 q 124 178 122 53 q 124 575 124 433 q 122 749 124 717 q 117 808 121 781 q 107 863 114 836 l 229 863 m 378 1088 q 327 985 361 1018 q 257 951 293 951 q 211 966 240 951 q 142 1011 182 981 q 63 1053 86 1053 q 7 965 28 1053 l -50 997 q 1 1100 -28 1068 q 57 1135 29 1132 q 99 1122 72 1135 q 165 1081 125 1110 q 222 1040 199 1056 q 258 1025 246 1025 q 278 1034 268 1025 q 299 1058 289 1043 q 315 1092 308 1072 q 322 1133 321 1111 q 351 1115 335 1126 q 378 1094 367 1103 l 378 1088 z "},"ĩ":{"ha":222,"x_min":-93,"x_max":335,"o":"m 163 -1 l 71 -1 q 71 540 85 292 l 163 540 q 163 -1 154 265 m 335 776 q 284 674 318 707 q 214 640 250 640 q 168 655 197 640 q 99 700 139 669 q 19 742 43 742 q -36 654 -15 742 l -93 686 q -42 789 -71 757 q 14 824 -14 821 q 56 811 29 824 q 122 769 82 799 q 179 729 156 744 q 215 714 203 714 q 235 723 225 714 q 256 747 246 732 q 272 781 265 761 q 279 822 278 800 q 308 803 292 815 q 335 783 324 792 l 335 776 z "},"Ī":{"ha":319,"x_min":-62,"x_max":376,"o":"m 200 860 q 190 790 193 833 q 185 683 186 746 l 185 428 l 185 176 q 199 -3 188 46 l 78 -3 q 94 175 93 50 q 94 572 94 431 q 93 746 94 714 q 88 806 92 778 q 78 860 85 833 l 200 860 m 376 949 l -62 949 l -62 1018 l 376 1018 l 376 949 z "},"ī":{"ha":222,"x_min":-82,"x_max":346,"o":"m 167 1 l 75 1 q 75 543 89 294 l 167 543 q 167 1 158 269 m 346 643 l -82 643 l -81 710 l 346 710 l 346 643 z "},"Ĭ":{"ha":319,"x_min":-44,"x_max":394,"o":"m 229 863 q 219 792 222 836 q 214 686 215 749 l 214 431 l 214 179 q 228 0 217 49 l 107 0 q 124 178 122 53 q 124 575 124 433 q 122 749 124 717 q 117 808 121 781 q 107 863 114 836 l 229 863 m 394 1096 q 297 989 351 1025 q 178 953 243 953 q 58 989 111 953 q -44 1096 6 1025 l 1 1122 q 176 1003 88 1003 q 354 1122 268 1003 l 394 1096 z "},"ĭ":{"ha":222,"x_min":-106,"x_max":333,"o":"m 156 3 l 64 3 q 64 544 78 296 l 156 544 q 156 3 147 269 m 333 783 q 242 681 281 707 q 117 640 189 640 q -14 681 39 640 q -106 783 -49 704 l -61 810 q 114 690 25 690 q 292 810 206 690 l 333 783 z "},"Į":{"ha":319,"x_min":13,"x_max":276,"o":"m 276 -272 q 143 -307 231 -308 q 47 -272 83 -307 q 13 -186 10 -237 q 21 -134 13 -161 q 42 -80 29 -107 q 73 -28 56 -53 q 111 18 90 -3 q 124 433 124 78 q 124 638 124 560 q 122 749 124 717 q 117 808 121 781 q 107 863 114 836 l 229 863 q 219 792 222 836 q 214 686 215 749 l 214 431 l 214 179 q 228 0 217 49 l 190 0 q 158 -33 175 -15 q 126 -72 142 -51 q 101 -117 111 -93 q 92 -164 92 -140 q 108 -203 92 -187 q 153 -219 125 -219 q 246 -189 207 -219 l 276 -272 z "},"į":{"ha":222,"x_min":-29,"x_max":235,"o":"m 188 721 q 167 676 188 696 q 119 656 146 656 q 74 675 94 656 q 54 721 54 694 q 74 767 54 747 q 119 788 94 788 q 167 767 146 788 q 188 721 188 747 m 235 -272 q 101 -307 189 -308 q 5 -272 42 -307 q -29 -186 -32 -237 q -21 -133 -29 -161 q 1 -78 -12 -106 q 33 -26 15 -51 q 72 21 51 0 q 78 297 78 168 q 71 540 78 426 l 163 540 q 163 -1 154 265 l 135 -1 q 110 -42 129 -8 q 58 -135 90 -75 q 50 -164 50 -150 q 67 -203 50 -187 q 111 -219 83 -219 q 204 -189 165 -219 l 235 -272 z "},"İ":{"ha":319,"x_min":92,"x_max":244,"o":"m 229 863 q 219 792 222 836 q 214 686 215 749 l 214 431 l 214 179 q 228 0 217 49 l 107 0 q 124 178 122 53 q 124 575 124 433 q 122 749 124 717 q 117 808 121 781 q 107 863 114 836 l 229 863 m 244 1029 q 222 975 244 997 q 168 953 200 953 q 114 975 136 953 q 92 1029 92 997 q 114 1083 92 1061 q 168 1106 136 1106 q 222 1083 200 1106 q 244 1029 244 1061 z "},"ı":{"ha":222,"x_min":71,"x_max":163,"o":"m 163 -1 l 71 -1 q 71 540 85 292 l 163 540 q 163 -1 154 265 z "},"Ĳ":{"ha":560,"x_min":42,"x_max":504,"o":"m 164 863 q 153 792 157 836 q 149 686 150 749 l 149 431 l 149 179 q 163 0 151 49 l 42 0 q 58 178 57 53 q 58 575 58 433 q 57 749 58 717 q 52 808 56 781 q 42 863 49 836 l 164 863 m 504 864 q 494 594 494 829 q 481 46 494 83 q 358 -17 457 -17 q 322 -13 338 -17 q 292 -6 306 -10 q 267 1 279 -1 q 242 0 254 3 q 242 100 239 101 l 292 99 q 317 68 293 81 q 356 58 335 58 q 399 94 396 58 q 403 252 401 128 q 404 596 404 376 q 394 864 404 829 l 504 864 z "},"ĳ":{"ha":425,"x_min":44,"x_max":390,"o":"m 178 707 q 157 662 178 682 q 110 642 136 642 q 65 661 85 642 q 44 707 44 681 q 65 753 44 733 q 110 774 85 774 q 157 753 136 774 q 178 707 178 733 m 153 -1 l 61 -1 q 61 538 74 283 l 153 538 q 153 -1 143 274 m 390 700 q 369 655 390 675 q 322 635 349 635 q 277 654 297 635 q 257 700 257 674 q 276 747 257 726 q 322 767 296 767 q 369 747 349 767 q 390 700 390 726 m 368 531 q 364 412 365 507 q 363 149 363 317 l 363 -86 q 342 -233 358 -196 q 214 -311 306 -311 q 182 -307 194 -311 q 117 -282 161 -296 q 131 -253 122 -271 q 154 -210 140 -236 q 214 -243 185 -244 q 276 -178 264 -239 q 281 147 281 -157 q 279 373 281 278 q 275 531 278 468 l 368 531 z "},"Ĵ":{"ha":326,"x_min":-17,"x_max":478,"o":"m 282 864 q 272 594 272 829 q 258 46 272 83 q 136 -17 235 -17 q 99 -13 115 -17 q 70 -6 83 -10 q 44 1 57 -1 q 19 0 32 3 q 19 100 17 101 l 69 99 q 94 68 71 81 q 133 58 113 58 q 176 94 174 58 q 181 252 179 128 q 182 596 182 376 q 172 864 182 829 l 282 864 m 478 1008 l 418 951 l 226 1099 q 35 954 225 1099 l -17 1008 l 229 1181 q 353 1094 292 1138 q 478 1008 415 1051 z "},"ĵ":{"ha":333,"x_min":-36,"x_max":458,"o":"m 249 547 q 244 428 246 524 q 243 164 243 332 l 243 -43 q 222 -162 239 -122 q 93 -239 188 -239 q 76 -238 83 -239 q 63 -236 69 -237 q -3 -211 42 -225 q 12 -183 3 -200 q 35 -139 21 -165 q 94 -172 65 -174 q 157 -107 144 -168 q 161 163 161 -85 q 160 389 161 293 q 156 547 158 485 l 249 547 m 458 708 l 399 651 l 207 799 q 15 654 206 799 l -36 708 l 210 881 q 334 794 272 838 q 458 708 396 751 z "},"Ķ":{"ha":819,"x_min":90,"x_max":767,"o":"m 767 0 l 615 0 q 551 114 596 60 q 496 175 532 138 q 407 264 460 213 q 200 442 281 386 l 371 614 q 471 715 435 678 q 518 764 507 753 q 569 865 567 821 l 743 865 q 611 740 699 832 q 521 647 567 693 q 431 556 475 601 q 387 513 413 538 q 329 456 361 488 q 475 331 418 382 q 767 0 678 140 m 214 865 q 197 436 197 800 l 197 182 q 202 71 199 115 q 213 0 206 26 l 90 0 q 107 178 106 53 q 107 576 107 435 q 106 750 107 718 q 101 810 104 782 q 90 865 97 839 l 214 865 m 390 -176 q 281 -342 390 -315 l 281 -293 q 338 -185 338 -282 l 299 -185 l 299 -92 l 390 -92 l 390 -176 z "},"ķ":{"ha":571,"x_min":51,"x_max":547,"o":"m 547 40 l 490 -17 l 222 247 l 135 181 q 135 86 132 99 q 171 14 139 44 q 82 -14 126 -14 q 67 -12 71 -14 q 54 103 54 -8 q 58 308 54 156 q 63 533 63 460 q 60 713 63 638 q 51 833 57 788 l 146 833 q 141 713 143 786 q 139 539 139 640 l 139 265 q 258 374 181 301 q 450 554 336 446 l 507 500 l 282 297 q 384 199 318 263 q 547 40 450 135 m 308 -226 q 199 -392 308 -365 l 199 -343 q 256 -235 256 -332 l 217 -235 l 217 -142 l 308 -142 l 308 -226 z "},"Ĺ":{"ha":736,"x_min":107,"x_max":674,"o":"m 674 -7 q 514 -1 585 -3 q 388 0 443 1 q 274 -3 344 -1 q 107 -8 204 -6 q 121 451 121 38 q 121 706 121 646 q 122 696 121 767 q 117 796 121 754 q 107 864 114 838 l 229 864 q 219 792 222 838 q 214 681 215 747 l 214 432 l 213 79 l 506 79 q 593 96 581 79 q 606 139 601 108 l 674 139 q 674 -7 669 39 m 308 1178 l 197 954 l 126 976 l 204 1213 l 308 1178 z "},"ĺ":{"ha":265,"x_min":76,"x_max":232,"o":"m 183 833 q 179 688 181 774 q 176 485 178 601 q 177 372 176 443 q 179 196 178 300 q 181 42 181 90 q 182 0 182 -7 l 92 0 q 96 190 94 72 q 97 472 97 308 q 89 833 100 714 l 183 833 m 232 1163 l 147 931 l 76 953 l 139 1194 l 232 1163 z "},"Ļ":{"ha":736,"x_min":107,"x_max":674,"o":"m 674 -7 q 514 -1 585 -3 q 388 0 443 1 q 274 -3 344 -1 q 107 -8 204 -6 q 121 451 121 38 q 121 706 121 646 q 122 696 121 767 q 117 796 121 754 q 107 864 114 838 l 229 864 q 219 792 222 838 q 214 681 215 747 l 214 432 l 213 79 l 506 79 q 593 96 581 79 q 606 139 601 108 l 674 139 q 674 -7 669 39 m 349 -203 q 239 -368 349 -342 l 239 -319 q 296 -211 296 -308 l 257 -211 l 257 -118 l 349 -118 l 349 -203 z "},"ļ":{"ha":222,"x_min":43,"x_max":156,"o":"m 156 833 q 151 688 153 774 q 149 485 150 601 q 149 372 149 443 q 151 196 150 300 q 153 42 153 90 q 154 0 154 -7 l 64 0 q 68 190 67 72 q 69 472 69 308 q 61 833 72 714 l 156 833 m 153 -232 q 43 -397 153 -371 l 43 -349 q 100 -240 100 -337 l 61 -240 l 61 -147 l 153 -147 l 153 -232 z "},"Ľ":{"ha":736,"x_min":107,"x_max":674,"o":"m 674 -7 q 514 -1 585 -3 q 388 0 443 1 q 274 -3 344 -1 q 107 -8 204 -6 q 121 451 121 38 q 121 706 121 646 q 122 696 121 767 q 117 796 121 754 q 107 864 114 838 l 229 864 q 219 792 222 838 q 214 681 215 747 l 214 432 l 213 79 l 506 79 q 593 96 581 79 q 606 139 601 108 l 674 139 q 674 -7 669 39 m 619 843 l 535 611 l 464 633 l 525 875 l 619 843 z "},"ľ":{"ha":419,"x_min":89,"x_max":415,"o":"m 183 833 q 179 688 181 774 q 176 485 178 601 q 177 372 176 443 q 179 196 178 300 q 181 42 181 90 q 182 0 182 -7 l 92 0 q 96 190 94 72 q 97 472 97 308 q 89 833 100 714 l 183 833 m 415 836 l 331 604 l 260 626 l 321 868 l 415 836 z "},"Ŀ":{"ha":736,"x_min":107,"x_max":674,"o":"m 674 -7 q 514 -1 585 -3 q 388 0 443 1 q 274 -3 344 -1 q 107 -8 204 -6 q 121 451 121 38 q 121 706 121 646 q 122 696 121 767 q 117 796 121 754 q 107 864 114 838 l 229 864 q 219 792 222 838 q 214 681 215 747 l 214 432 l 213 79 l 506 79 q 593 96 581 79 q 606 139 601 108 l 674 139 q 674 -7 669 39 m 543 697 q 521 643 543 665 q 467 621 499 621 q 413 643 435 621 q 390 697 390 665 q 413 751 390 729 q 467 774 435 774 q 521 751 499 774 q 543 697 543 729 z "},"ŀ":{"ha":408,"x_min":89,"x_max":369,"o":"m 183 833 q 179 688 181 774 q 176 485 178 601 q 177 372 176 443 q 179 196 178 300 q 181 42 181 90 q 182 0 182 -7 l 92 0 q 96 190 94 72 q 97 472 97 308 q 89 833 100 714 l 183 833 m 369 399 q 306 331 369 331 q 240 394 242 331 q 258 442 239 422 q 306 461 276 461 q 351 442 333 461 q 369 399 369 424 z "},"Ł":{"ha":699,"x_min":-81,"x_max":660,"o":"m 660 -7 q 500 -1 571 -3 q 374 0 429 1 q 260 -3 331 -1 q 93 -8 190 -6 q 104 117 100 18 q 107 392 108 217 l -47 296 l -81 354 l 107 468 q 108 503 107 471 q 110 597 108 535 q 110 681 111 643 q 108 746 110 718 q 103 817 107 786 q 93 869 100 847 l 215 869 q 200 521 199 803 l 411 640 l 444 582 l 200 444 l 199 83 l 492 83 q 579 100 567 83 q 592 143 588 113 l 660 143 q 660 -7 653 40 z "},"ł":{"ha":222,"x_min":-71,"x_max":301,"o":"m 301 531 l 151 444 q 152 328 151 397 q 154 168 153 260 q 156 39 156 81 q 157 0 157 -3 l 67 0 q 69 147 68 47 q 72 400 71 246 l -37 338 l -71 396 l 72 476 q 72 516 72 486 q 74 599 72 546 q 74 713 75 667 q 69 774 72 744 q 64 833 67 804 l 158 833 q 154 719 156 797 q 151 522 153 642 l 268 589 l 301 531 z "},"Ń":{"ha":889,"x_min":88,"x_max":803,"o":"m 803 865 q 792 795 796 839 q 788 688 789 751 q 789 661 789 725 q 789 431 789 597 l 789 0 l 708 0 q 588 174 644 92 q 482 328 531 256 q 294 607 364 501 q 200 754 224 713 l 200 431 l 200 179 q 205 71 201 115 q 215 0 208 26 l 100 0 q 110 70 107 26 q 115 178 114 114 l 115 433 q 115 604 115 539 q 114 694 115 669 q 88 865 107 828 q 218 865 219 864 q 334 705 279 782 q 439 556 389 628 q 617 287 553 390 q 700 140 682 183 l 700 432 q 700 649 700 586 q 701 688 700 713 q 685 865 700 813 l 803 865 m 585 1178 l 474 954 l 403 976 l 481 1213 l 585 1178 z "},"ń":{"ha":558,"x_min":49,"x_max":510,"o":"m 510 0 l 415 0 q 415 79 415 40 q 417 157 415 118 q 417 261 418 213 q 412 345 415 310 q 401 403 408 381 q 308 478 376 476 q 185 442 238 479 l 139 400 l 139 0 l 49 0 q 53 474 53 143 q 53 499 53 482 q 51 539 53 515 l 136 540 l 135 475 q 321 549 219 549 q 460 489 417 549 q 507 260 507 424 q 507 174 507 218 q 508 81 507 129 q 510 13 510 33 q 510 0 510 -7 m 349 851 l 264 619 l 193 642 l 256 883 l 349 851 z "},"Ņ":{"ha":889,"x_min":82,"x_max":797,"o":"m 797 865 q 787 795 790 839 q 782 688 783 751 q 783 661 783 725 q 783 431 783 597 l 783 0 l 703 0 q 582 174 639 92 q 476 328 525 256 q 288 607 358 501 q 194 754 218 713 l 194 431 l 194 179 q 199 71 196 115 q 210 0 203 26 l 94 0 q 105 70 101 26 q 110 178 108 114 l 110 433 q 110 604 110 539 q 108 694 110 669 q 82 865 101 828 q 213 865 214 864 q 328 705 274 782 q 433 556 383 628 q 612 287 547 390 q 694 140 676 183 l 694 432 q 694 649 694 586 q 696 688 694 713 q 679 865 694 813 l 797 865 m 471 -203 q 361 -368 471 -342 l 361 -319 q 418 -211 418 -308 l 379 -211 l 379 -118 l 471 -118 l 471 -203 z "},"ņ":{"ha":558,"x_min":83,"x_max":544,"o":"m 544 0 l 450 0 q 450 79 450 40 q 451 157 450 118 q 451 261 453 213 q 447 345 450 310 q 436 403 443 381 q 343 478 411 476 q 219 442 272 479 l 174 400 l 174 0 l 83 0 q 88 474 88 143 q 88 499 88 482 q 86 539 88 515 l 171 540 l 169 475 q 356 549 254 549 q 494 489 451 549 q 542 260 542 424 q 542 174 542 218 q 543 81 542 129 q 544 13 544 33 q 544 0 544 -7 m 350 -232 q 240 -397 350 -371 l 240 -349 q 297 -240 297 -337 l 258 -240 l 258 -147 l 350 -147 l 350 -232 z "},"Ň":{"ha":889,"x_min":88,"x_max":803,"o":"m 803 865 q 792 795 796 839 q 788 688 789 751 q 789 661 789 725 q 789 431 789 597 l 789 0 l 708 0 q 588 174 644 92 q 482 328 531 256 q 294 607 364 501 q 200 754 224 713 l 200 431 l 200 179 q 205 71 201 115 q 215 0 208 26 l 100 0 q 110 70 107 26 q 115 178 114 114 l 115 433 q 115 604 115 539 q 114 694 115 669 q 88 865 107 828 q 218 865 219 864 q 334 705 279 782 q 439 556 389 628 q 617 287 553 390 q 700 140 682 183 l 700 432 q 700 649 700 586 q 701 688 700 713 q 685 865 700 813 l 803 865 m 697 1128 q 573 1042 635 1085 q 449 956 511 999 l 203 1128 l 254 1182 q 446 1038 444 1038 l 638 1185 l 697 1128 z "},"ň":{"ha":558,"x_min":47,"x_max":508,"o":"m 508 0 l 414 0 q 414 79 414 40 q 415 157 414 118 q 415 261 417 213 q 410 345 414 310 q 400 403 407 381 q 307 478 375 476 q 183 442 236 479 l 138 400 l 138 0 l 47 0 q 51 474 51 143 q 51 499 51 482 q 50 539 51 515 l 135 540 l 133 475 q 319 549 218 549 q 458 489 415 549 q 506 260 506 424 q 506 174 506 218 q 507 81 506 129 q 508 13 508 33 q 508 0 508 -7 m 443 810 q 428 792 443 810 q 388 745 413 774 q 332 682 363 717 q 271 613 301 647 l 236 613 l 57 803 l 113 853 l 251 681 q 263 695 251 681 q 292 733 274 710 q 333 789 310 757 q 382 857 357 821 l 443 810 z "},"ŉ":{"ha":558,"x_min":74,"x_max":549,"o":"m 549 0 l 454 0 q 454 79 454 40 q 456 157 454 118 q 456 261 457 213 q 451 345 454 310 q 440 403 447 381 q 347 478 415 476 q 224 442 276 479 l 178 400 l 178 0 l 88 0 q 92 474 92 143 q 92 499 92 482 q 90 539 92 515 l 175 540 l 174 475 q 360 549 258 549 q 499 489 456 549 q 546 260 546 424 q 546 174 546 218 q 547 81 546 129 q 549 13 549 33 q 549 0 549 -7 m 229 854 l 144 622 l 74 644 l 135 886 l 229 854 z "},"Ŋ":{"ha":871,"x_min":88,"x_max":803,"o":"m 803 869 q 792 799 796 843 q 788 689 789 754 q 789 663 789 728 q 789 431 789 599 l 789 21 q 751 -135 789 -71 q 629 -235 710 -210 q 538 -249 586 -249 q 401 -207 449 -249 l 429 -114 q 550 -175 497 -175 q 582 -171 567 -175 q 708 0 708 -132 q 475 346 576 193 q 282 638 353 528 q 188 790 211 749 l 188 431 l 188 179 q 192 69 189 114 q 203 0 196 25 l 100 0 q 110 70 107 26 q 115 178 114 114 l 115 433 q 115 606 115 540 q 114 697 115 671 q 88 869 107 832 q 218 871 218 869 q 443 546 340 697 q 625 266 560 372 q 708 117 690 160 l 708 432 q 708 651 708 588 q 710 689 708 715 q 693 869 708 817 l 803 869 z "},"ŋ":{"ha":558,"x_min":53,"x_max":508,"o":"m 508 260 q 507 133 507 196 q 507 6 507 69 q 486 -162 506 -125 q 360 -242 446 -242 q 326 -236 338 -242 q 261 -211 306 -225 q 276 -183 267 -200 q 299 -139 285 -165 q 358 -172 329 -174 q 421 -107 415 -165 q 425 261 424 -65 q 408 406 425 360 q 313 475 382 472 q 188 443 243 476 q 165 425 176 433 q 143 407 154 417 l 143 0 l 53 0 q 57 474 57 143 l 56 539 l 140 539 l 139 488 q 325 549 224 549 q 464 492 422 549 q 508 260 510 426 z "},"Ō":{"ha":986,"x_min":85,"x_max":893,"o":"m 893 422 q 782 117 893 243 q 489 -14 665 -14 q 193 117 306 -14 q 85 422 85 239 q 186 743 85 617 q 489 881 296 881 q 794 743 683 881 q 893 422 893 617 m 793 422 q 719 685 793 586 q 488 790 639 790 q 261 674 346 790 q 183 421 183 568 q 265 183 183 282 q 489 76 353 76 q 713 182 628 76 q 793 422 793 279 m 715 950 l 276 950 l 276 1019 l 715 1019 l 715 950 z "},"ō":{"ha":654,"x_min":46,"x_max":608,"o":"m 608 269 q 528 67 608 143 q 329 -11 446 -11 q 121 72 201 -11 q 46 272 43 151 q 125 468 47 390 q 329 547 204 547 q 532 471 456 547 q 608 269 608 394 m 524 269 q 510 350 524 313 q 472 415 497 388 q 410 458 446 443 q 332 474 375 474 q 186 415 244 474 q 129 269 129 356 q 188 125 129 185 q 332 65 247 65 q 469 121 415 65 q 524 269 522 176 m 543 640 l 115 640 l 117 707 l 543 707 l 543 640 z "},"Ŏ":{"ha":986,"x_min":85,"x_max":893,"o":"m 893 422 q 782 117 893 243 q 489 -14 665 -14 q 193 117 306 -14 q 85 422 85 239 q 186 743 85 617 q 489 881 296 881 q 794 743 683 881 q 893 422 893 617 m 793 422 q 719 685 793 586 q 488 790 639 790 q 261 674 346 790 q 183 421 183 568 q 265 183 183 282 q 489 76 353 76 q 713 182 628 76 q 793 422 793 279 m 724 1097 q 626 990 681 1026 q 507 954 572 954 q 388 990 440 954 q 285 1097 335 1026 l 331 1124 q 506 1004 417 1004 q 683 1124 597 1004 l 724 1097 z "},"ŏ":{"ha":654,"x_min":46,"x_max":608,"o":"m 608 269 q 528 67 608 143 q 329 -11 446 -11 q 121 72 201 -11 q 46 272 43 151 q 125 468 47 390 q 329 547 204 547 q 532 471 456 547 q 608 269 608 394 m 524 269 q 510 350 524 313 q 472 415 497 388 q 410 458 446 443 q 332 474 375 474 q 186 415 244 474 q 129 269 129 356 q 188 125 129 185 q 332 65 247 65 q 469 121 415 65 q 524 269 522 176 m 553 790 q 456 683 510 719 q 336 647 401 647 q 217 683 269 647 q 114 790 164 719 l 160 817 q 335 697 246 697 q 513 817 426 697 l 553 790 z "},"Ő":{"ha":986,"x_min":85,"x_max":893,"o":"m 893 422 q 782 117 893 243 q 489 -14 665 -14 q 193 117 306 -14 q 85 422 85 239 q 186 743 85 617 q 489 881 296 881 q 794 743 683 881 q 893 422 893 617 m 793 422 q 719 685 793 586 q 488 790 639 790 q 261 674 346 790 q 183 421 183 568 q 265 183 183 282 q 489 76 353 76 q 713 182 628 76 q 793 422 793 279 m 536 1183 l 451 951 l 381 974 l 443 1215 l 536 1183 m 701 1185 l 617 953 l 546 975 l 608 1217 l 701 1185 z "},"ő":{"ha":654,"x_min":46,"x_max":608,"o":"m 608 269 q 528 67 608 143 q 329 -11 446 -11 q 121 72 201 -11 q 46 272 43 151 q 125 468 47 390 q 329 547 204 547 q 532 471 456 547 q 608 269 608 394 m 524 269 q 510 350 524 313 q 472 415 497 388 q 410 458 446 443 q 332 474 375 474 q 186 415 244 474 q 129 269 129 356 q 188 125 129 185 q 332 65 247 65 q 469 121 415 65 q 524 269 522 176 m 514 850 l 429 618 l 358 640 l 419 882 l 514 850 m 361 850 l 276 618 l 206 640 l 267 882 l 361 850 z "},"Œ":{"ha":1182,"x_min":21,"x_max":1139,"o":"m 574 -1 q 501 -12 535 -8 q 439 -15 467 -15 q 125 115 238 -15 q 21 426 21 233 q 126 749 21 625 q 439 882 239 882 q 572 869 481 882 q 817 861 626 864 q 944 862 872 860 q 1104 868 1015 864 q 1104 735 1097 818 l 1035 735 q 1025 768 1035 747 q 935 779 1014 779 l 678 779 q 678 501 676 653 q 1025 521 979 501 l 1025 401 q 678 418 960 422 q 678 88 676 263 l 971 88 q 1058 104 1046 88 q 1071 147 1067 117 l 1139 147 q 1139 -3 1132 44 q 979 3 1050 1 q 853 4 908 6 q 740 2 810 3 q 574 -1 671 1 m 585 761 q 438 789 526 789 q 203 678 293 789 q 122 425 122 576 q 200 183 122 281 q 439 78 285 79 q 583 107 533 78 q 585 219 585 133 q 586 454 586 306 q 586 663 586 586 q 585 761 586 739 z "},"œ":{"ha":1082,"x_min":46,"x_max":1031,"o":"m 564 113 q 329 -11 486 -11 q 121 72 201 -11 q 46 272 43 151 q 125 468 47 390 q 329 547 204 547 q 567 426 493 547 q 783 547 642 544 q 974 469 908 549 q 1031 274 1032 396 l 610 274 q 667 124 608 185 q 814 63 724 65 q 963 126 897 61 l 1003 53 q 807 -11 894 -7 q 564 113 642 -19 m 929 347 q 782 472 914 472 q 688 439 731 472 q 624 347 644 406 l 929 347 m 524 275 q 510 353 524 317 q 470 417 496 390 q 409 458 444 443 q 332 474 374 474 q 186 415 244 474 q 129 269 129 356 q 188 125 129 185 q 332 65 247 65 q 474 126 421 65 q 524 275 524 182 z "},"Ŕ":{"ha":750,"x_min":107,"x_max":697,"o":"m 697 0 l 575 0 q 577 10 576 6 q 578 22 578 15 q 524 222 578 111 q 367 385 461 356 q 268 397 331 396 q 241 396 254 396 q 214 394 228 396 l 214 158 q 219 66 215 106 q 229 0 222 26 l 107 0 q 117 69 114 26 q 122 174 121 111 l 122 429 l 122 685 q 117 794 121 750 q 107 865 114 839 l 411 865 q 509 853 463 865 q 591 813 556 840 q 647 742 626 786 q 667 636 667 699 q 460 406 667 450 q 697 0 629 349 m 569 636 q 558 702 569 675 q 525 746 546 729 q 474 771 504 763 q 410 782 444 779 q 218 786 369 788 l 217 479 q 348 478 300 478 q 410 482 396 479 q 528 526 488 493 q 569 636 568 560 m 464 1178 l 353 954 l 282 976 l 360 1213 l 464 1178 z "},"ŕ":{"ha":354,"x_min":53,"x_max":329,"o":"m 329 456 q 288 474 306 474 q 167 400 207 474 q 142 288 139 346 q 142 208 142 253 q 143 107 142 164 q 145 24 144 50 q 146 0 146 -3 l 57 -1 q 57 471 61 133 q 53 539 54 490 l 140 539 l 139 443 q 279 550 169 549 q 329 540 308 550 l 329 456 m 293 857 l 208 625 l 138 647 l 200 889 l 293 857 z "},"Ŗ":{"ha":750,"x_min":107,"x_max":697,"o":"m 697 0 l 575 0 q 577 10 576 6 q 578 22 578 15 q 524 222 578 111 q 367 385 461 356 q 268 397 331 396 q 241 396 254 396 q 214 394 228 396 l 214 158 q 219 66 215 106 q 229 0 222 26 l 107 0 q 117 69 114 26 q 122 174 121 111 l 122 429 l 122 685 q 117 794 121 750 q 107 865 114 839 l 411 865 q 564 826 496 865 q 667 636 667 765 q 460 406 667 450 q 697 0 629 349 m 569 636 q 531 742 569 707 q 458 776 504 768 q 433 779 446 778 q 410 782 421 781 q 218 786 369 788 l 217 479 q 348 478 300 478 q 410 482 396 479 q 469 492 446 488 q 501 501 492 496 q 569 636 571 538 m 431 -208 q 321 -374 431 -347 l 321 -325 q 378 -217 378 -314 l 339 -217 l 339 -124 l 431 -124 l 431 -208 z "},"ŗ":{"ha":354,"x_min":38,"x_max":329,"o":"m 329 456 q 288 474 306 474 q 167 400 207 474 q 142 288 139 346 q 142 208 142 253 q 143 107 142 164 q 145 24 144 50 q 146 0 146 -3 l 57 -1 q 57 471 61 133 q 53 539 54 490 l 140 539 l 139 443 q 279 550 169 549 q 329 540 308 550 l 329 456 m 147 -226 q 38 -392 147 -365 l 38 -343 q 94 -235 94 -332 l 56 -235 l 56 -142 l 147 -142 l 147 -226 z "},"Ř":{"ha":750,"x_min":107,"x_max":697,"o":"m 697 0 l 575 0 q 577 10 576 6 q 578 22 578 15 q 524 222 578 111 q 367 385 461 356 q 268 397 331 396 q 241 396 254 396 q 214 394 228 396 l 214 158 q 219 66 215 106 q 229 0 222 26 l 107 0 q 117 69 114 26 q 122 174 121 111 l 122 429 l 122 685 q 117 794 121 750 q 107 865 114 839 l 411 865 q 509 853 463 865 q 591 813 556 840 q 647 742 626 786 q 667 636 667 699 q 460 406 667 450 q 697 0 629 349 m 569 636 q 558 702 569 675 q 525 746 546 729 q 474 771 504 763 q 410 782 444 779 q 218 786 369 788 l 217 479 q 348 478 300 478 q 410 482 396 479 q 528 526 488 493 q 569 636 568 560 m 610 1128 q 485 1042 547 1085 q 361 956 424 999 l 115 1128 l 167 1182 q 358 1038 357 1038 l 550 1185 l 610 1128 z "},"ř":{"ha":354,"x_min":-15,"x_max":371,"o":"m 329 456 q 288 474 306 474 q 167 400 207 474 q 142 288 139 346 q 142 208 142 253 q 143 107 142 164 q 145 24 144 50 q 146 0 146 -3 l 57 -1 q 57 471 61 133 q 53 539 54 490 l 140 539 l 139 443 q 279 550 169 549 q 329 540 308 550 l 329 456 m 371 807 q 356 789 371 807 q 315 742 340 771 q 260 679 290 714 q 199 610 229 644 l 164 610 l -15 800 l 40 850 l 179 678 q 190 692 179 678 q 219 731 201 707 q 261 786 238 754 q 310 854 285 818 l 371 807 z "},"Ś":{"ha":778,"x_min":47,"x_max":654,"o":"m 654 218 q 517 25 649 83 q 268 -14 418 -21 q 114 24 211 -12 q 51 33 69 39 q 56 174 51 71 l 108 174 q 147 125 113 150 q 324 67 226 67 q 485 106 417 67 q 557 240 568 153 q 504 328 551 294 q 400 375 471 354 q 339 392 369 383 q 278 408 308 400 q 125 475 175 440 q 47 633 47 536 q 142 824 47 757 q 357 881 225 883 q 497 854 393 881 q 572 840 565 839 q 572 787 572 821 q 574 701 572 753 l 521 701 q 499 756 513 746 q 342 799 435 799 q 139 624 132 799 q 357 478 143 519 q 654 218 664 417 m 454 1178 l 343 954 l 272 976 l 350 1213 l 454 1178 z "},"ś":{"ha":444,"x_min":44,"x_max":410,"o":"m 313 10 q 174 -11 254 -17 q 118 -3 150 -10 q 46 17 86 4 l 46 111 q 93 90 60 101 q 179 63 126 78 q 193 60 186 61 q 207 60 200 60 q 288 82 253 60 q 326 146 322 104 q 250 233 331 199 q 183 257 222 242 q 96 294 144 272 q 44 400 44 328 q 97 511 44 467 q 224 551 146 551 q 285 542 246 551 q 327 532 311 535 q 349 528 343 529 l 349 435 q 211 475 286 472 q 154 458 181 475 q 124 407 125 438 q 240 328 121 358 q 354 269 311 308 q 410 151 410 222 q 313 10 410 53 m 336 851 l 251 619 l 181 642 l 243 883 l 336 851 z "},"Ŝ":{"ha":778,"x_min":71,"x_max":678,"o":"m 678 218 q 540 25 672 83 q 292 -14 442 -21 q 138 24 235 -12 q 75 33 93 39 q 79 174 75 71 l 132 174 q 171 125 136 150 q 347 67 250 67 q 508 106 440 67 q 581 240 592 153 q 528 328 575 294 q 424 375 494 354 q 363 392 393 383 q 301 408 332 400 q 149 475 199 440 q 71 633 71 536 q 165 824 71 757 q 381 881 249 883 q 521 854 417 881 q 596 840 589 839 q 596 787 596 821 q 597 701 596 753 l 544 701 q 522 756 536 746 q 365 799 458 799 q 163 624 156 799 q 381 478 167 519 q 678 218 688 417 m 631 1010 l 571 953 l 379 1100 q 188 956 378 1100 l 136 1010 l 382 1182 q 506 1096 444 1139 q 631 1010 568 1053 z "},"ŝ":{"ha":444,"x_min":-29,"x_max":465,"o":"m 313 10 q 174 -11 254 -17 q 118 -3 150 -10 q 46 17 86 4 l 46 111 q 93 90 60 101 q 179 63 126 78 q 193 60 186 61 q 207 60 200 60 q 288 82 253 60 q 326 146 322 104 q 250 233 331 199 q 183 257 222 242 q 96 294 144 272 q 44 400 44 328 q 97 511 44 467 q 224 551 146 551 q 285 542 246 551 q 327 532 311 535 q 349 528 343 529 l 349 435 q 211 475 286 472 q 154 458 181 475 q 124 407 125 438 q 240 328 121 358 q 354 269 311 308 q 410 151 410 222 q 313 10 410 53 m 465 700 l 406 643 l 214 790 q 22 646 213 790 l -29 700 l 217 872 q 341 786 279 829 q 465 700 403 743 z "},"Ş":{"ha":778,"x_min":71,"x_max":678,"o":"m 461 -74 q 479 -137 479 -104 q 451 -214 479 -178 q 332 -257 417 -257 q 313 -257 322 -257 q 294 -256 304 -257 l 294 -218 q 393 -201 358 -222 q 417 -158 417 -186 q 385 -102 417 -121 q 290 -89 354 -83 l 290 -43 q 138 -6 242 -43 q 75 4 99 8 q 79 144 75 42 l 132 144 q 171 96 136 121 q 197 78 185 86 q 219 65 208 71 q 308 40 264 44 q 469 63 389 32 q 543 110 510 76 q 581 214 589 157 q 538 303 569 276 q 429 357 514 321 q 373 376 410 364 q 282 406 336 389 q 163 456 204 429 q 71 632 71 515 q 163 825 71 750 q 381 893 244 893 q 521 867 415 893 q 596 853 589 851 q 596 799 596 833 q 597 714 596 765 l 544 714 q 522 768 536 758 q 365 810 461 808 q 225 767 276 811 q 168 644 168 718 q 243 525 168 568 q 386 474 285 499 q 622 357 557 431 q 678 189 686 285 q 634 76 674 129 q 536 -6 594 24 q 421 -36 497 -25 q 461 -74 446 -50 z "},"ş":{"ha":444,"x_min":44,"x_max":410,"o":"m 329 -37 q 347 -101 347 -68 q 319 -178 347 -142 q 200 -221 285 -221 q 181 -221 190 -221 q 163 -219 172 -221 l 163 -182 q 261 -165 226 -186 q 285 -122 285 -150 q 253 -66 285 -85 q 158 -53 222 -47 l 158 -10 q 82 11 119 -4 q 46 17 60 19 l 46 111 l 82 111 q 176 61 119 74 q 211 57 193 57 q 287 78 254 57 q 324 140 319 100 q 250 233 331 197 q 183 257 222 242 q 96 294 144 272 q 44 400 44 328 q 97 511 44 467 q 224 551 146 551 q 306 536 240 551 q 349 528 343 526 l 349 435 l 301 435 q 213 472 268 472 q 156 457 183 472 q 124 407 126 439 q 240 328 121 358 q 354 269 311 308 q 410 151 410 222 q 376 56 410 97 q 289 1 342 15 q 313 -16 303 -6 q 329 -37 322 -26 z "},"Š":{"ha":778,"x_min":47,"x_max":654,"o":"m 654 218 q 517 25 649 83 q 268 -14 418 -21 q 114 24 211 -12 q 51 33 69 39 q 56 174 51 71 l 108 174 q 147 125 113 150 q 324 67 226 67 q 485 106 417 67 q 557 240 568 153 q 504 328 551 294 q 400 375 471 354 q 339 392 369 383 q 278 408 308 400 q 125 475 175 440 q 47 633 47 536 q 142 824 47 757 q 357 881 225 883 q 497 854 393 881 q 572 840 565 839 q 572 787 572 821 q 574 701 572 753 l 521 701 q 499 756 513 746 q 342 799 435 799 q 139 624 132 799 q 357 478 143 519 q 654 218 664 417 m 596 1128 q 472 1042 533 1085 q 347 956 410 999 l 101 1128 l 153 1182 q 344 1038 343 1038 l 536 1185 l 596 1128 z "},"š":{"ha":444,"x_min":32,"x_max":418,"o":"m 418 807 q 403 789 418 807 q 363 742 388 771 q 307 679 338 714 q 246 610 276 644 l 211 610 l 32 800 l 88 850 l 226 678 q 238 692 226 678 q 267 731 249 707 q 308 786 285 754 q 357 854 332 818 l 418 807 m 313 10 q 174 -11 254 -17 q 118 -3 150 -10 q 46 17 86 4 l 46 111 q 93 90 60 101 q 179 63 126 78 q 193 60 186 61 q 207 60 200 60 q 288 82 253 60 q 326 146 322 104 q 250 233 331 199 q 183 257 222 242 q 96 294 144 272 q 44 400 44 328 q 97 511 44 467 q 224 551 146 551 q 285 542 246 551 q 327 532 311 535 q 349 528 343 529 l 349 435 q 211 475 286 472 q 154 458 181 475 q 124 407 125 438 q 240 328 121 358 q 354 269 311 308 q 410 151 410 222 q 313 10 410 53 z "},"Ţ":{"ha":889,"x_min":60,"x_max":839,"o":"m 839 724 l 769 724 q 758 775 768 758 q 671 792 742 792 l 493 792 l 493 418 q 493 196 493 258 q 492 169 493 133 q 497 67 493 110 q 507 0 500 25 l 386 0 q 403 169 401 53 l 403 418 l 403 793 l 228 793 q 142 776 158 793 q 131 725 132 760 l 60 725 q 60 865 67 813 l 839 865 q 839 724 835 819 m 494 -226 q 385 -392 494 -365 l 385 -343 q 442 -235 442 -332 l 403 -235 l 403 -142 l 494 -142 l 494 -226 z "},"ţ":{"ha":361,"x_min":56,"x_max":357,"o":"m 357 540 l 357 481 l 221 481 l 215 244 q 213 149 214 172 q 213 150 213 126 q 229 74 213 74 q 253 85 238 74 q 274 99 269 97 q 282 80 276 94 q 297 40 288 65 q 160 -12 215 -14 q 128 108 128 -10 q 132 242 128 118 q 136 479 133 285 l 56 479 q 57 510 57 481 l 57 539 l 138 539 l 138 683 l 221 719 l 221 539 q 357 540 356 539 m 249 -226 q 139 -392 249 -365 l 139 -343 q 196 -235 196 -332 l 157 -235 l 157 -142 l 249 -142 l 249 -226 z "},"Ť":{"ha":889,"x_min":60,"x_max":839,"o":"m 839 724 l 769 724 q 758 775 768 758 q 671 792 742 792 l 493 792 l 493 418 q 493 196 493 258 q 492 169 493 133 q 497 67 493 110 q 507 0 500 25 l 386 0 q 403 169 401 53 l 403 418 l 403 793 l 228 793 q 142 776 158 793 q 131 725 132 760 l 60 725 q 60 865 67 813 l 839 865 q 839 724 835 819 m 689 1128 q 565 1042 626 1085 q 440 956 503 999 l 194 1128 l 246 1182 q 438 1038 436 1038 l 629 1185 l 689 1128 z "},"ť":{"ha":444,"x_min":56,"x_max":556,"o":"m 357 540 l 357 481 l 221 481 l 215 244 q 213 149 214 172 q 213 150 213 126 q 229 74 213 74 q 253 85 238 74 q 274 99 269 97 q 282 80 276 94 q 297 40 288 65 q 160 -12 215 -14 q 128 108 128 -10 q 132 242 128 118 q 136 479 133 285 l 56 479 q 57 510 57 481 l 57 539 l 138 539 l 138 683 l 221 719 l 221 539 q 357 540 356 539 m 556 842 l 471 610 l 400 632 l 461 874 l 556 842 z "},"Ŧ":{"ha":889,"x_min":60,"x_max":839,"o":"m 839 721 l 769 721 q 758 772 768 756 q 671 789 742 789 l 493 789 l 493 576 l 753 576 l 753 510 l 493 510 l 493 418 q 493 196 493 258 q 492 169 493 133 q 497 67 493 110 q 507 0 500 25 l 386 0 q 403 169 401 53 l 403 418 l 403 510 l 163 510 l 163 576 l 403 576 l 403 790 l 228 790 q 142 774 158 790 q 131 722 132 757 l 60 722 q 60 869 65 814 l 839 869 q 839 721 832 821 z "},"ŧ":{"ha":361,"x_min":36,"x_max":339,"o":"m 339 369 l 199 369 l 196 244 q 194 149 194 172 q 193 150 193 126 q 210 74 193 74 q 234 85 218 74 q 254 99 250 97 q 263 80 257 94 q 278 40 268 65 q 140 -12 196 -14 q 108 108 108 -10 q 113 242 108 118 q 114 288 114 256 q 115 369 114 319 l 39 369 l 39 428 l 117 428 l 117 479 l 36 479 q 38 510 38 481 l 38 539 l 118 539 l 118 683 l 201 719 l 201 539 q 338 540 336 539 l 338 481 l 201 481 l 200 428 l 339 428 l 339 369 z "},"Ũ":{"ha":896,"x_min":78,"x_max":813,"o":"m 813 863 q 797 549 797 806 q 797 515 797 535 q 799 468 797 494 q 800 422 800 442 q 800 390 800 403 q 719 108 800 211 q 444 -17 621 -17 q 169 104 267 -17 q 92 364 92 203 q 92 407 92 357 q 94 564 93 457 q 95 672 96 622 q 92 764 94 722 q 78 863 88 832 l 206 863 q 190 650 194 815 q 188 490 189 565 q 188 349 188 415 q 447 76 188 76 q 635 149 568 76 q 708 418 708 231 q 704 694 708 571 q 699 799 703 757 q 690 863 696 840 l 813 863 m 660 1089 q 609 986 643 1019 q 539 953 575 953 q 493 967 522 953 q 424 1013 464 982 q 344 1054 368 1054 q 289 967 310 1054 l 232 999 q 283 1101 254 1069 q 339 1136 311 1133 q 381 1124 354 1136 q 447 1082 407 1111 q 504 1042 481 1057 q 540 1026 528 1026 q 560 1035 550 1026 q 581 1059 571 1044 q 597 1093 590 1074 q 604 1135 603 1113 q 633 1116 617 1128 q 660 1096 649 1104 l 660 1089 z "},"ũ":{"ha":597,"x_min":78,"x_max":613,"o":"m 613 40 q 474 -12 510 -21 q 450 61 453 -8 q 264 -12 365 -12 q 125 47 167 -12 q 78 276 78 113 q 78 361 78 321 q 79 438 78 401 q 79 481 79 461 q 81 517 79 501 q 82 536 82 531 q 82 539 82 542 l 176 539 q 174 464 175 503 q 169 381 172 425 q 167 326 168 353 q 168 275 167 300 q 173 191 169 226 q 183 133 176 156 q 276 58 208 60 q 400 94 347 57 l 446 136 q 450 374 447 199 q 452 495 451 454 q 453 539 453 536 l 543 539 q 539 352 540 467 q 538 78 538 238 q 542 75 540 75 q 553 78 546 75 q 567 86 560 82 q 580 94 574 90 q 589 99 586 99 q 597 80 592 94 q 613 40 603 65 m 522 758 q 472 656 506 689 q 401 622 438 622 q 356 637 385 622 q 286 682 326 651 q 207 724 231 724 q 151 636 172 724 l 94 668 q 145 771 117 739 q 201 806 174 803 q 243 793 217 806 q 310 751 269 781 q 367 711 343 726 q 403 696 390 696 q 423 705 413 696 q 443 728 433 714 q 459 763 453 743 q 467 804 465 782 q 495 785 479 797 q 522 765 511 774 l 522 758 z "},"Ū":{"ha":882,"x_min":78,"x_max":813,"o":"m 813 863 q 797 549 797 806 q 797 515 797 535 q 799 468 797 494 q 800 422 800 442 q 800 390 800 403 q 719 108 800 211 q 444 -17 621 -17 q 169 104 267 -17 q 92 364 92 203 q 92 407 92 357 q 94 564 93 457 q 95 672 96 622 q 92 764 94 722 q 78 863 88 832 l 206 863 q 190 650 194 815 q 188 490 189 565 q 188 349 188 415 q 447 76 188 76 q 635 149 568 76 q 708 418 708 231 q 704 694 708 571 q 699 799 703 757 q 690 863 696 840 l 813 863 m 665 953 l 226 953 l 226 1022 l 665 1022 l 665 953 z "},"ū":{"ha":597,"x_min":78,"x_max":613,"o":"m 613 40 q 474 -12 510 -21 q 450 61 453 -8 q 264 -12 365 -12 q 125 47 167 -12 q 78 276 78 113 q 78 361 78 321 q 79 438 78 401 q 79 481 79 461 q 81 517 79 501 q 82 536 82 531 q 82 539 82 542 l 176 539 q 174 464 175 503 q 169 381 172 425 q 167 326 168 353 q 168 275 167 300 q 173 191 169 226 q 183 133 176 156 q 276 58 208 60 q 400 94 347 57 l 446 136 q 450 374 447 199 q 452 495 451 454 q 453 539 453 536 l 543 539 q 539 352 540 467 q 538 78 538 238 q 542 75 540 75 q 553 78 546 75 q 567 86 560 82 q 580 94 574 90 q 589 99 586 99 q 597 80 592 94 q 613 40 603 65 m 508 647 l 81 647 l 82 714 l 508 714 l 508 647 z "},"Ŭ":{"ha":882,"x_min":78,"x_max":813,"o":"m 813 863 q 797 549 797 806 q 797 515 797 535 q 799 468 797 494 q 800 422 800 442 q 800 390 800 403 q 719 108 800 211 q 444 -17 621 -17 q 169 104 267 -17 q 92 364 92 203 q 92 407 92 357 q 94 564 93 457 q 95 672 96 622 q 92 764 94 722 q 78 863 88 832 l 206 863 q 190 650 194 815 q 188 490 189 565 q 188 349 188 415 q 447 76 188 76 q 635 149 568 76 q 708 418 708 231 q 704 694 708 571 q 699 799 703 757 q 690 863 696 840 l 813 863 m 688 1099 q 590 992 644 1028 q 471 956 536 956 q 351 992 404 956 q 249 1099 299 1028 l 294 1125 q 469 1006 381 1006 q 647 1125 561 1006 l 688 1099 z "},"ŭ":{"ha":597,"x_min":78,"x_max":613,"o":"m 613 40 q 474 -12 510 -21 q 450 61 453 -8 q 264 -12 365 -12 q 125 47 167 -12 q 78 276 78 113 q 78 361 78 321 q 79 438 78 401 q 79 481 79 461 q 81 517 79 501 q 82 536 82 531 q 82 539 82 542 l 176 539 q 174 464 175 503 q 169 381 172 425 q 167 326 168 353 q 168 275 167 300 q 173 191 169 226 q 183 133 176 156 q 276 58 208 60 q 400 94 347 57 l 446 136 q 450 374 447 199 q 452 495 451 454 q 453 539 453 536 l 543 539 q 539 352 540 467 q 538 78 538 238 q 542 75 540 75 q 553 78 546 75 q 567 86 560 82 q 580 94 574 90 q 589 99 586 99 q 597 80 592 94 q 613 40 603 65 m 517 792 q 419 685 474 721 q 300 649 365 649 q 181 685 233 649 q 78 792 128 721 l 124 818 q 299 699 210 699 q 476 818 390 699 l 517 792 z "},"Ů":{"ha":882,"x_min":78,"x_max":813,"o":"m 813 863 q 797 549 797 806 q 797 515 797 535 q 799 468 797 494 q 800 422 800 442 q 800 390 800 403 q 719 108 800 211 q 444 -17 621 -17 q 169 104 267 -17 q 92 364 92 203 q 92 407 92 357 q 94 564 93 457 q 95 672 96 622 q 92 764 94 722 q 78 863 88 832 l 206 863 q 190 650 194 815 q 188 490 189 565 q 188 349 188 415 q 447 76 188 76 q 635 149 568 76 q 708 418 708 231 q 704 694 708 571 q 699 799 703 757 q 690 863 696 840 l 813 863 m 586 1082 q 576 1032 586 1056 q 549 991 567 1008 q 508 964 532 974 q 458 954 485 954 q 408 964 432 954 q 367 991 385 974 q 340 1032 350 1008 q 331 1082 331 1056 q 340 1132 331 1108 q 367 1173 350 1156 q 408 1200 385 1190 q 458 1210 432 1210 q 508 1200 485 1210 q 549 1173 532 1190 q 576 1132 567 1156 q 586 1082 586 1108 m 539 1082 q 515 1139 539 1115 q 458 1163 492 1163 q 401 1139 425 1163 q 378 1082 378 1115 q 401 1025 378 1049 q 458 1001 425 1001 q 515 1025 492 1001 q 539 1082 539 1049 z "},"ů":{"ha":597,"x_min":78,"x_max":613,"o":"m 613 40 q 474 -12 510 -21 q 450 61 453 -8 q 264 -12 365 -12 q 125 47 167 -12 q 78 276 78 113 q 78 361 78 321 q 79 438 78 401 q 79 481 79 461 q 81 517 79 501 q 82 536 82 531 q 82 539 82 542 l 176 539 q 174 464 175 503 q 169 381 172 425 q 167 326 168 353 q 168 275 167 300 q 173 191 169 226 q 183 133 176 156 q 276 58 208 60 q 400 94 347 57 l 446 136 q 450 374 447 199 q 452 495 451 454 q 453 539 453 536 l 543 539 q 539 352 540 467 q 538 78 538 238 q 542 75 540 75 q 553 78 546 75 q 567 86 560 82 q 580 94 574 90 q 589 99 586 99 q 597 80 592 94 q 613 40 603 65 m 447 779 q 437 728 447 751 q 408 686 426 704 q 363 658 389 668 q 308 647 338 647 q 253 658 279 647 q 209 686 228 668 q 180 728 190 704 q 169 779 169 751 q 180 830 169 806 q 209 872 190 854 q 253 901 228 890 q 308 911 279 911 q 363 901 338 911 q 408 872 389 890 q 437 830 426 854 q 447 779 447 806 m 397 778 q 371 842 397 817 q 308 868 344 868 q 245 842 272 868 q 218 778 218 815 q 246 713 218 739 q 308 688 274 688 q 371 713 344 688 q 397 778 397 739 z "},"Ű":{"ha":882,"x_min":78,"x_max":813,"o":"m 813 863 q 797 549 797 806 q 797 515 797 535 q 799 468 797 494 q 800 422 800 442 q 800 390 800 403 q 719 108 800 211 q 444 -17 621 -17 q 169 104 267 -17 q 92 364 92 203 q 92 407 92 357 q 94 564 93 457 q 95 672 96 622 q 92 764 94 722 q 78 863 88 832 l 206 863 q 190 650 194 815 q 188 490 189 565 q 188 349 188 415 q 447 76 188 76 q 635 149 568 76 q 708 418 708 231 q 704 694 708 571 q 699 799 703 757 q 690 863 696 840 l 813 863 m 649 1183 l 564 951 l 493 974 l 556 1215 l 649 1183 m 481 1183 l 396 951 l 325 974 l 388 1215 l 481 1183 z "},"ű":{"ha":597,"x_min":78,"x_max":613,"o":"m 613 40 q 474 -12 510 -21 q 450 61 453 -8 q 264 -12 365 -12 q 125 47 167 -12 q 78 276 78 113 q 78 361 78 321 q 79 438 78 401 q 79 481 79 461 q 81 517 79 501 q 82 536 82 531 q 82 539 82 542 l 176 539 q 174 464 175 503 q 169 381 172 425 q 167 326 168 353 q 168 275 167 300 q 173 191 169 226 q 183 133 176 156 q 276 58 208 60 q 400 94 347 57 l 446 136 q 450 374 447 199 q 452 495 451 454 q 453 539 453 536 l 543 539 q 539 352 540 467 q 538 78 538 238 q 542 75 540 75 q 553 78 546 75 q 567 86 560 82 q 580 94 574 90 q 589 99 586 99 q 597 80 592 94 q 613 40 603 65 m 478 850 l 393 618 l 322 640 l 383 882 l 478 850 m 325 850 l 240 618 l 169 640 l 231 882 l 325 850 z "},"Ų":{"ha":882,"x_min":78,"x_max":813,"o":"m 624 -272 q 490 -307 578 -308 q 394 -272 431 -307 q 360 -186 357 -237 q 429 -17 361 -103 q 169 104 264 -11 q 92 364 92 203 q 92 407 92 357 q 94 564 93 457 q 95 672 96 622 q 92 764 94 722 q 78 863 88 832 l 206 863 q 190 650 194 815 q 188 490 189 565 q 188 349 188 415 q 447 76 188 76 q 635 149 568 76 q 708 418 708 231 q 704 694 708 571 q 699 799 703 757 q 690 863 696 840 l 813 863 q 797 549 797 806 q 797 515 797 535 q 799 468 797 494 q 800 422 800 442 q 800 390 800 403 q 719 108 800 211 q 529 -8 646 14 q 447 -135 490 -56 q 439 -164 439 -150 q 456 -203 439 -187 q 500 -219 472 -219 q 593 -189 554 -219 l 624 -272 z "},"ų":{"ha":569,"x_min":49,"x_max":600,"o":"m 600 -268 q 467 -303 554 -304 q 370 -268 407 -303 q 336 -182 333 -233 q 424 10 340 -85 q 421 60 421 24 q 235 -14 336 -14 q 96 46 138 -14 q 49 275 49 111 q 49 360 49 319 q 50 436 49 400 q 50 480 50 460 q 51 515 50 500 q 53 535 53 529 q 53 538 53 540 l 147 538 q 144 463 146 501 q 140 379 143 424 q 138 325 139 351 q 139 274 138 299 q 144 190 140 225 q 154 132 147 154 q 247 57 179 58 q 371 93 318 56 l 417 135 q 421 372 418 197 q 423 494 422 453 q 424 538 424 535 l 514 538 q 510 351 511 465 q 508 76 508 236 q 513 74 511 74 q 524 77 517 74 q 538 85 531 81 q 551 93 544 89 q 560 97 557 97 q 568 78 563 93 q 583 39 574 64 q 558 25 575 33 q 514 3 540 17 q 468 -58 490 -25 q 424 -131 446 -90 q 415 -160 415 -146 q 432 -199 415 -183 q 476 -215 449 -215 q 569 -185 531 -215 l 600 -268 z "},"Ŵ":{"ha":1319,"x_min":40,"x_max":1296,"o":"m 1296 867 q 1206 605 1278 819 q 1004 1 1133 390 l 900 1 q 806 290 864 114 q 668 713 749 467 q 569 414 628 590 q 435 1 511 238 l 331 1 q 199 394 271 179 q 40 867 128 610 l 149 867 q 238 568 179 761 q 385 92 296 375 q 614 867 489 414 l 725 867 q 954 92 760 739 q 1097 569 1042 376 q 1176 867 1153 763 l 1296 867 m 914 1011 l 854 954 l 663 1101 q 471 957 661 1101 l 419 1011 l 665 1183 q 790 1097 728 1140 q 914 1011 851 1054 z "},"ŵ":{"ha":819,"x_min":24,"x_max":813,"o":"m 813 536 q 747 356 794 489 q 621 0 700 222 l 561 0 q 508 163 542 63 q 428 406 475 263 l 274 0 l 215 0 l 24 538 l 131 538 q 197 313 167 415 q 249 122 226 210 q 283 222 264 165 q 325 350 303 278 q 379 535 369 489 l 379 538 l 478 538 l 476 536 l 478 536 l 478 535 l 478 533 q 594 117 503 450 q 651 312 621 208 q 714 536 681 415 l 813 536 m 682 701 l 622 644 l 431 792 q 239 647 429 792 l 188 701 l 433 874 q 558 788 496 831 q 682 701 619 744 z "},"Ŷ":{"ha":729,"x_min":19,"x_max":718,"o":"m 718 865 q 654 785 694 840 q 554 642 614 729 q 485 536 519 589 q 415 431 450 483 q 417 304 417 367 q 418 178 417 242 q 432 0 421 49 l 310 0 q 326 176 325 53 l 326 431 q 249 549 288 490 q 171 668 210 608 q 75 804 113 756 q 19 865 38 853 l 181 865 q 224 756 178 828 l 378 510 l 529 754 q 578 865 575 829 l 718 865 m 624 1011 l 564 954 l 372 1101 q 181 957 371 1101 l 129 1011 l 375 1183 q 499 1097 438 1140 q 624 1011 561 1054 z "},"ŷ":{"ha":549,"x_min":-111,"x_max":538,"o":"m 538 536 l 369 117 q 274 -104 304 -44 q 117 -294 189 -272 q 25 -308 74 -308 q -111 -267 -64 -308 l -83 -199 q 24 -237 -43 -237 q 69 -231 44 -237 q 174 -135 121 -217 q 243 6 218 -69 q 121 272 181 140 q -1 538 61 404 l 100 538 q 172 372 126 479 q 285 106 218 264 q 372 331 333 224 q 438 536 410 438 q 538 536 535 538 m 508 701 l 449 644 l 257 792 q 65 647 256 792 l 14 701 l 260 874 q 384 788 322 831 q 508 701 446 744 z "},"Ÿ":{"ha":729,"x_min":19,"x_max":718,"o":"m 718 869 q 554 643 674 821 q 485 537 519 590 q 415 431 450 483 q 417 304 417 367 q 418 178 417 242 q 432 0 421 49 l 310 0 q 326 176 325 53 l 326 431 q 249 550 288 490 q 171 669 210 610 q 19 869 57 843 l 181 869 q 224 756 178 828 l 378 510 l 529 754 q 578 869 575 829 l 718 869 m 522 1014 q 506 974 522 992 q 465 956 489 956 q 423 973 440 956 q 406 1014 406 990 q 423 1056 406 1038 q 465 1074 440 1074 q 505 1056 488 1074 q 522 1014 522 1038 m 278 1014 q 261 974 278 992 q 219 956 244 956 q 178 973 196 956 q 160 1014 160 990 q 178 1054 160 1036 q 219 1072 196 1072 q 260 1054 242 1072 q 278 1014 278 1036 z "},"Ź":{"ha":813,"x_min":86,"x_max":769,"o":"m 769 863 l 217 79 l 582 79 q 669 97 657 79 q 681 139 681 111 l 751 139 q 751 -14 744 43 q 444 -6 556 -3 q 293 -5 382 -4 q 86 -8 204 -6 l 86 43 l 603 776 l 286 776 q 197 767 206 776 q 188 732 190 757 l 117 732 q 117 867 122 817 q 277 860 206 863 q 404 860 349 858 q 560 859 469 858 q 769 863 651 860 m 563 1178 l 451 954 l 381 976 l 458 1213 l 563 1178 z "},"ź":{"ha":546,"x_min":63,"x_max":496,"o":"m 496 0 l 63 0 l 63 35 l 364 465 l 232 465 q 96 451 139 465 l 96 538 l 492 538 l 492 510 l 182 72 l 386 72 q 426 75 399 72 q 496 83 453 78 l 496 0 m 396 856 l 311 624 l 240 646 l 303 888 l 396 856 z "},"Ż":{"ha":813,"x_min":86,"x_max":769,"o":"m 769 863 l 217 79 l 582 79 q 669 97 657 79 q 681 139 681 111 l 751 139 q 751 -14 744 43 q 444 -6 556 -3 q 293 -5 382 -4 q 86 -8 204 -6 l 86 43 l 603 776 l 286 776 q 197 767 206 776 q 188 732 190 757 l 117 732 q 117 867 122 817 q 277 860 206 863 q 404 860 349 858 q 560 859 469 858 q 769 863 651 860 m 528 1031 q 506 976 528 999 q 451 954 483 954 q 397 976 419 954 q 375 1031 375 999 q 397 1085 375 1063 q 451 1107 419 1107 q 506 1085 483 1107 q 528 1031 528 1063 z "},"ż":{"ha":551,"x_min":63,"x_max":496,"o":"m 496 0 l 63 0 l 63 35 l 364 465 l 232 465 q 96 451 139 465 l 96 538 l 492 538 l 492 510 l 182 72 l 386 72 q 426 75 399 72 q 496 83 453 78 l 496 0 m 353 715 q 289 647 353 647 q 224 711 225 647 q 241 758 222 739 q 289 778 260 778 q 335 759 317 778 q 353 715 353 740 z "},"Ž":{"ha":813,"x_min":86,"x_max":769,"o":"m 769 863 l 217 79 l 582 79 q 669 97 657 79 q 681 139 681 111 l 751 139 q 751 -14 744 43 q 444 -6 556 -3 q 293 -5 382 -4 q 86 -8 204 -6 l 86 43 l 603 776 l 286 776 q 197 767 206 776 q 188 732 190 757 l 117 732 q 117 867 122 817 q 277 860 206 863 q 404 860 349 858 q 560 859 469 858 q 769 863 651 860 m 686 1128 q 562 1042 624 1085 q 438 956 500 999 l 192 1128 l 243 1182 q 435 1038 433 1038 l 626 1185 l 686 1128 z "},"ž":{"ha":546,"x_min":63,"x_max":496,"o":"m 478 811 q 463 793 478 811 q 422 747 447 775 q 367 683 397 718 q 306 614 336 649 l 271 614 l 92 804 l 147 854 l 286 682 q 297 697 286 682 q 326 735 308 711 q 368 790 344 758 q 417 858 392 822 l 478 811 m 496 0 l 63 0 l 63 35 l 364 465 l 232 465 q 96 451 139 465 l 96 538 l 492 538 l 492 510 l 182 72 l 386 72 q 426 75 399 72 q 496 83 453 78 l 496 0 z "},"ſ":{"ha":431,"x_min":8,"x_max":410,"o":"m 185 -1 l 92 -1 q 100 431 100 69 l 100 483 q 8 475 26 481 l 8 556 q 99 549 31 547 q 118 771 97 725 q 263 849 154 851 q 340 831 303 849 q 381 813 364 819 q 410 804 399 807 l 410 696 q 251 778 321 785 q 188 711 200 774 q 182 550 182 685 l 185 -1 z "},"ƒ":{"ha":410,"x_min":-236,"x_max":482,"o":"m 482 821 q 474 786 479 810 q 463 726 469 763 q 418 753 439 742 q 351 772 382 772 q 261 701 279 772 q 249 638 258 688 q 225 503 240 589 q 397 511 303 503 l 381 425 q 213 435 368 433 q 185 280 203 376 q 142 44 168 183 q 111 -100 126 -43 q 82 -186 96 -157 q -101 -307 21 -310 q -133 -303 -115 -306 q -172 -296 -150 -301 q -236 -283 -224 -285 q -215 -187 -232 -261 q -87 -233 -143 -231 q 17 -117 -24 -236 q 54 54 21 -107 q 75 160 57 65 q 126 435 93 256 q 42 426 99 433 l 58 507 q 139 499 76 499 q 153 581 146 540 q 168 663 161 622 q 201 771 182 743 q 349 844 254 849 q 482 821 356 844 z "},"Ơ":{"ha":974,"x_min":85,"x_max":893,"o":"m 893 422 q 782 117 893 243 q 489 -14 665 -14 q 193 117 306 -14 q 85 422 85 239 q 186 743 85 617 q 489 881 296 881 q 685 836 599 881 q 769 853 739 835 q 793 896 793 868 q 762 952 793 933 q 667 965 731 971 l 667 1036 q 838 981 803 1043 q 861 901 861 940 q 833 824 861 857 q 757 783 806 792 q 893 422 893 656 m 793 422 q 719 685 793 586 q 488 790 639 790 q 261 674 346 790 q 183 421 183 568 q 265 183 183 282 q 489 76 353 76 q 713 182 628 76 q 793 422 793 279 z "},"ơ":{"ha":606,"x_min":18,"x_max":635,"o":"m 614 644 q 635 569 635 608 q 602 483 635 518 q 519 451 569 449 q 581 269 581 382 q 500 67 581 143 q 301 -11 418 -11 q 93 72 174 -11 q 18 272 15 151 q 97 468 19 390 q 301 547 176 547 q 469 500 401 547 q 546 517 518 500 q 569 560 569 532 q 538 616 569 597 q 443 629 507 635 l 443 700 q 614 644 579 707 m 496 269 q 483 350 496 313 q 444 415 469 388 q 383 458 418 443 q 304 474 347 474 q 158 415 217 474 q 101 269 101 356 q 160 125 101 185 q 304 65 219 65 q 441 121 388 65 q 496 269 494 176 z "},"Ư":{"ha":961,"x_min":78,"x_max":940,"o":"m 803 800 q 799 549 799 747 q 799 511 799 533 q 800 461 799 489 q 802 412 801 433 q 803 376 803 390 q 719 108 803 206 q 444 -17 611 -17 q 169 104 267 -17 q 92 364 92 203 l 92 764 q 87 819 90 794 q 78 863 83 843 l 206 863 q 190 650 194 815 q 188 490 189 565 q 188 349 188 415 q 447 76 188 76 q 635 149 568 76 q 707 418 707 225 q 707 589 707 519 q 706 696 707 658 q 701 768 704 726 q 690 863 697 810 l 808 863 q 846 875 831 864 q 871 924 871 889 q 843 976 871 960 q 747 990 810 996 l 747 1061 q 918 1006 883 1068 q 940 931 940 969 q 903 843 940 879 q 803 800 865 807 z "},"ư":{"ha":610,"x_min":21,"x_max":658,"o":"m 635 679 q 658 601 658 639 q 607 507 658 542 q 485 478 557 472 q 481 78 481 321 q 485 75 483 75 q 496 78 489 75 q 510 86 503 82 q 523 94 517 90 q 532 99 529 99 q 540 80 535 94 q 556 40 546 65 q 417 -12 453 -21 q 393 61 396 -8 q 207 -12 308 -12 q 68 47 110 -12 q 21 276 21 113 q 21 361 21 321 q 22 438 21 401 q 22 481 22 461 q 24 517 22 501 q 25 536 25 531 q 25 539 25 542 l 119 539 q 117 464 118 503 q 113 381 115 425 q 110 326 111 353 q 111 275 110 300 q 116 191 113 226 q 126 133 119 156 q 219 58 151 60 q 343 94 290 57 l 389 136 q 393 374 390 199 q 395 495 394 454 q 396 539 396 536 q 486 535 486 539 q 567 551 538 535 q 590 594 590 567 q 559 651 590 632 q 464 664 528 669 l 464 735 q 635 679 600 742 z "},"Ʒ":{"ha":679,"x_min":63,"x_max":603,"o":"m 603 807 l 407 532 q 599 269 600 475 q 515 67 596 143 q 317 -11 433 -11 q 63 139 135 -11 l 139 178 q 319 65 194 65 q 456 121 403 65 q 511 269 510 176 q 498 350 511 313 q 459 415 485 388 q 398 458 433 443 q 319 474 363 474 l 279 474 l 486 778 l 247 778 q 158 768 167 778 q 149 733 151 758 l 78 733 q 78 868 83 818 q 238 862 167 864 q 365 861 310 860 q 456 860 397 860 q 603 864 515 861 l 603 807 z "},"Ǵ":{"ha":732,"x_min":61,"x_max":696,"o":"m 696 22 q 565 0 649 25 q 450 -12 521 -12 q 164 122 272 -12 q 61 428 61 249 q 163 743 61 617 q 456 881 271 881 q 574 868 517 881 q 618 856 586 867 q 647 851 639 849 q 660 721 650 789 l 594 721 q 547 789 585 769 q 464 801 519 801 q 235 681 319 801 q 158 422 158 571 q 240 179 158 285 q 464 68 331 68 q 551 79 522 68 q 594 147 596 96 l 593 315 l 572 315 q 517 311 526 315 q 492 272 494 306 l 424 272 q 424 401 429 353 q 565 399 500 400 q 685 400 629 399 q 685 171 685 218 q 683 211 685 124 q 696 22 686 99 m 560 1178 l 449 954 l 378 976 l 456 1213 l 560 1178 z "},"ǵ":{"ha":654,"x_min":46,"x_max":610,"o":"m 610 539 q 606 378 607 474 q 604 156 604 283 q 592 -143 604 -93 q 504 -260 572 -217 q 350 -304 435 -304 q 182 -272 253 -304 q 156 -260 172 -267 q 115 -246 139 -254 l 167 -161 q 322 -229 229 -219 q 335 -231 329 -231 q 347 -231 340 -231 q 411 -219 381 -231 q 465 -190 442 -208 q 501 -144 488 -171 q 518 -87 515 -118 q 522 89 519 -44 q 329 -11 457 -11 q 121 72 201 -11 q 46 272 43 151 q 125 468 47 390 q 329 547 204 547 q 518 456 461 547 q 518 494 518 474 q 517 539 518 515 l 610 539 m 332 474 q 186 415 244 474 q 129 269 129 356 q 188 125 129 185 q 332 65 247 65 q 462 115 411 65 q 522 243 513 164 l 522 306 q 460 427 511 381 q 332 474 408 474 m 438 851 l 353 619 l 282 642 l 344 883 l 438 851 z "},"Ǻ":{"ha":851,"x_min":32,"x_max":815,"o":"m 551 1083 q 542 1033 551 1057 q 515 992 532 1010 q 474 965 497 975 q 424 956 450 956 q 374 965 397 956 q 333 992 350 975 q 306 1033 315 1010 q 296 1083 296 1057 q 306 1133 296 1110 q 333 1174 315 1157 q 374 1201 350 1192 q 424 1211 397 1211 q 474 1201 450 1211 q 515 1174 497 1192 q 542 1133 532 1157 q 551 1083 551 1110 m 504 1083 q 481 1140 504 1117 q 424 1164 457 1164 q 367 1140 390 1164 q 343 1083 343 1117 q 367 1026 343 1050 q 424 1003 390 1003 q 481 1026 457 1003 q 504 1083 504 1050 m 815 0 l 689 0 q 593 285 679 44 l 244 285 q 143 0 156 58 l 32 0 q 378 879 100 135 l 476 879 q 558 659 519 761 q 629 469 596 557 q 815 0 785 51 m 564 369 q 491 583 525 479 q 426 788 457 688 q 369 624 407 728 q 274 369 332 521 l 564 369 m 571 1428 l 486 1196 l 415 1218 l 478 1460 l 571 1428 z "},"ǻ":{"ha":597,"x_min":56,"x_max":551,"o":"m 378 400 q 275 488 376 493 q 222 477 250 486 q 167 454 193 468 q 119 422 142 440 q 82 385 96 404 l 82 468 q 278 556 154 553 q 406 519 357 557 q 463 388 463 475 l 463 101 q 486 69 463 69 q 551 111 494 69 l 551 36 q 471 -12 506 -12 q 382 56 399 -12 q 208 -14 318 -11 q 147 -2 175 -14 q 99 31 119 10 q 67 79 78 51 q 56 139 56 107 q 103 254 56 208 q 221 307 147 296 q 288 316 249 310 q 378 331 326 322 l 378 400 m 382 125 l 382 258 q 326 251 361 256 q 242 239 290 246 q 166 207 196 232 q 136 150 136 182 q 160 85 136 111 q 224 60 185 60 q 306 81 253 60 q 382 125 360 104 m 432 774 q 422 722 432 746 q 392 681 411 699 q 348 652 374 663 q 293 642 322 642 q 238 652 264 642 q 194 681 213 663 q 165 722 175 699 q 154 774 154 746 q 165 824 154 800 q 194 867 175 849 q 238 895 213 885 q 293 906 264 906 q 348 895 322 906 q 392 867 374 885 q 422 824 411 849 q 432 774 432 800 m 382 772 q 356 837 382 811 q 293 863 329 863 q 230 836 257 863 q 203 772 203 810 q 231 708 203 733 q 293 682 258 682 q 356 708 329 682 q 382 772 382 733 m 414 1161 l 329 929 l 258 951 l 321 1193 l 414 1161 z "},"Ǽ":{"ha":1222,"x_min":17,"x_max":1249,"o":"m 1249 -7 q 1089 -1 1160 -3 q 963 0 1018 1 l 674 0 q 682 285 681 46 l 360 285 q 242 123 292 193 q 163 0 193 53 l 17 0 q 239 283 76 68 q 669 864 401 499 l 799 864 q 875 863 843 863 q 926 863 907 863 q 1053 865 982 863 q 1214 869 1125 867 q 1214 736 1207 821 l 1144 736 q 1142 758 1142 758 q 1133 771 1142 763 q 1044 781 1128 781 l 788 781 q 788 493 785 644 q 1135 513 1089 493 l 1135 393 q 788 410 1069 414 q 788 83 786 256 l 1081 83 q 1168 100 1156 83 q 1181 143 1176 113 l 1249 143 q 1249 -7 1242 40 m 683 744 l 419 369 l 683 369 l 683 744 m 881 1178 l 769 954 l 699 976 l 776 1213 l 881 1178 z "},"ǽ":{"ha":890,"x_min":28,"x_max":856,"o":"m 417 100 q 181 -17 340 -18 q 71 29 115 -15 q 28 136 28 74 q 96 268 28 218 q 151 298 115 282 q 240 332 188 314 l 350 371 l 350 396 q 247 483 350 490 q 194 473 222 482 q 140 450 165 464 q 91 418 114 436 q 54 381 68 400 l 54 464 q 250 551 126 549 q 425 449 389 556 q 608 547 486 544 q 799 468 735 549 q 856 274 857 396 l 435 274 q 492 124 433 185 q 639 63 549 65 q 788 126 722 61 l 828 53 q 632 -11 719 -7 q 506 15 565 -14 q 417 100 447 44 m 754 347 q 607 472 739 472 q 513 439 556 472 q 447 347 469 406 l 754 347 m 350 122 l 350 303 q 252 267 292 283 q 189 240 213 251 q 108 147 108 197 q 133 83 108 108 q 196 57 157 57 q 275 78 225 57 q 350 122 324 99 m 549 847 l 464 615 l 393 638 l 456 879 l 549 847 z "},"Ǿ":{"ha":986,"x_min":82,"x_max":915,"o":"m 915 435 q 799 117 915 247 q 499 -15 682 -15 q 457 -13 478 -15 q 417 -8 436 -11 l 375 -137 l 300 -137 l 349 11 q 153 172 224 57 q 82 435 82 286 q 186 764 82 632 q 499 907 300 907 q 633 888 571 907 l 679 1035 l 754 1035 l 700 860 q 863 685 806 803 q 915 435 915 572 m 813 435 q 669 767 813 674 l 446 82 q 499 78 472 78 q 729 185 639 78 q 813 435 813 286 m 604 797 q 497 814 556 814 q 264 693 351 814 q 183 433 183 586 q 235 233 183 324 q 378 103 286 143 l 604 797 m 607 1178 l 496 954 l 425 976 l 503 1213 l 607 1178 z "},"ǿ":{"ha":615,"x_min":32,"x_max":594,"o":"m 594 269 q 514 67 594 143 q 315 -11 432 -11 q 264 -7 289 -11 l 222 -137 l 147 -137 l 196 11 q 74 114 117 44 q 32 272 31 183 q 111 468 33 390 q 315 547 190 547 q 368 543 343 547 l 390 608 q 389 610 389 608 l 406 660 l 481 660 l 467 619 q 468 618 468 619 q 458 589 465 613 q 438 525 451 565 q 594 269 594 460 m 510 269 q 414 450 511 394 l 289 68 q 303 66 296 67 q 318 65 311 65 q 455 121 401 65 q 510 269 508 176 m 346 472 q 332 474 339 474 q 318 474 325 474 q 172 415 231 474 q 115 269 115 356 q 221 90 114 150 l 346 472 m 417 858 l 332 626 l 261 649 l 324 890 l 417 858 z "},"Ș":{"ha":750,"x_min":57,"x_max":664,"o":"m 664 232 q 526 39 658 97 q 278 0 428 -7 q 124 38 221 1 q 61 47 79 53 q 65 188 61 85 l 118 188 q 157 139 122 164 q 333 81 236 81 q 494 119 426 81 q 567 254 578 167 q 514 342 561 308 q 410 389 481 368 q 349 406 379 397 q 288 422 318 414 q 135 489 185 454 q 57 647 57 550 q 151 838 57 771 q 367 894 235 897 q 507 868 403 894 q 582 854 575 853 q 582 801 582 835 q 583 715 582 767 l 531 715 q 508 769 522 760 q 351 813 444 813 q 149 638 142 813 q 367 492 153 533 q 664 232 674 431 m 390 -226 q 281 -392 390 -365 l 281 -343 q 338 -235 338 -332 l 299 -235 l 299 -142 l 390 -142 l 390 -226 z "},"ș":{"ha":444,"x_min":44,"x_max":410,"o":"m 313 10 q 174 -11 254 -17 q 118 -3 150 -10 q 46 17 86 4 l 46 111 q 93 90 60 101 q 179 63 126 78 q 193 60 186 61 q 207 60 200 60 q 288 82 253 60 q 326 146 322 104 q 250 233 331 199 q 183 257 222 242 q 96 294 144 272 q 44 400 44 328 q 97 511 44 467 q 224 551 146 551 q 285 542 246 551 q 327 532 311 535 q 349 528 343 529 l 349 435 q 211 475 286 472 q 154 458 181 475 q 124 407 125 438 q 240 328 121 358 q 354 269 311 308 q 410 151 410 222 q 313 10 410 53 m 256 -226 q 146 -392 256 -365 l 146 -343 q 203 -235 203 -332 l 164 -235 l 164 -142 l 256 -142 l 256 -226 z "},"ʒ":{"ha":533,"x_min":14,"x_max":506,"o":"m 244 -233 q 368 -183 321 -233 q 418 -57 415 -133 q 406 13 419 -19 q 369 68 393 44 q 310 105 344 92 q 233 118 275 118 q 196 118 215 118 q 153 117 176 118 l 360 467 l 222 467 l 135 467 q 71 458 100 467 l 71 539 l 481 539 l 481 511 l 288 190 q 449 103 386 175 q 506 -61 507 29 q 435 -232 503 -164 q 239 -308 363 -308 q 14 -215 93 -308 l 75 -164 q 244 -233 131 -231 z "},"ˆ":{"ha":565,"x_min":89,"x_max":583,"o":"m 583 708 l 524 651 l 332 799 q 140 654 331 799 l 89 708 l 335 881 q 459 794 397 838 q 583 708 521 751 z "},"ˇ":{"ha":565,"x_min":140,"x_max":526,"o":"m 526 807 q 511 789 526 807 q 471 742 496 771 q 415 679 446 714 q 354 610 385 644 l 319 610 l 140 800 l 196 850 l 335 678 q 346 692 335 678 q 375 731 357 707 q 417 786 393 754 q 465 854 440 818 l 526 807 z "},"ˉ":{"ha":463,"x_min":56,"x_max":483,"o":"m 483 644 l 56 644 l 57 711 l 483 711 l 483 644 z "},"˘":{"ha":565,"x_min":114,"x_max":553,"o":"m 553 789 q 456 682 510 718 q 336 646 401 646 q 217 682 269 646 q 114 789 164 718 l 160 815 q 335 696 246 696 q 513 815 426 696 l 553 789 z "},"˙":{"ha":500,"x_min":186,"x_max":315,"o":"m 315 711 q 251 643 315 643 q 186 707 188 643 q 203 754 185 735 q 251 774 222 774 q 297 755 279 774 q 315 711 315 736 z "},"˚":{"ha":500,"x_min":111,"x_max":389,"o":"m 389 772 q 378 721 389 744 q 349 679 368 697 q 305 651 331 661 q 250 640 279 640 q 195 651 221 640 q 151 679 169 661 q 122 721 132 697 q 111 772 111 744 q 122 823 111 799 q 151 865 132 847 q 195 894 169 883 q 250 904 221 904 q 305 894 279 904 q 349 865 331 883 q 378 823 368 847 q 389 772 389 799 m 339 771 q 313 835 339 810 q 250 861 286 861 q 187 835 214 861 q 160 771 160 808 q 188 706 160 732 q 250 681 215 681 q 313 706 286 681 q 339 771 339 732 z "},"˛":{"ha":500,"x_min":113,"x_max":376,"o":"m 376 -268 q 243 -303 331 -304 q 147 -268 183 -303 q 113 -182 110 -233 q 123 -127 114 -157 q 147 -69 132 -97 q 181 -14 161 -40 q 222 32 200 13 l 317 32 q 200 -131 260 -21 q 192 -160 192 -146 q 208 -199 192 -183 q 253 -215 225 -215 q 346 -185 307 -215 l 376 -268 z "},"˜":{"ha":544,"x_min":47,"x_max":475,"o":"m 475 776 q 424 674 458 707 q 354 640 390 640 q 308 655 338 640 q 239 700 279 669 q 160 742 183 742 q 104 654 125 742 l 47 686 q 98 789 69 757 q 154 824 126 821 q 196 811 169 824 q 263 769 222 799 q 319 729 296 744 q 356 714 343 714 q 376 723 365 714 q 396 747 386 732 q 412 781 406 761 q 419 822 418 800 q 448 803 432 815 q 475 783 464 792 l 475 776 z "},"˝":{"ha":310,"x_min":64,"x_max":372,"o":"m 372 850 l 288 618 l 217 640 l 278 882 l 372 850 m 219 850 l 135 618 l 64 640 l 125 882 l 219 850 z "},"̀":{"ha":311,"x_min":82,"x_max":238,"o":"m 238 638 l 167 615 l 82 847 l 176 879 l 238 638 z "},"́":{"ha":310,"x_min":106,"x_max":261,"o":"m 261 847 l 176 615 l 106 638 l 167 879 l 261 847 z "},"̃":{"ha":681,"x_min":85,"x_max":600,"o":"m 600 831 q 460 692 557 692 q 313 750 410 692 q 213 794 235 796 q 149 701 174 793 l 85 728 q 206 865 135 861 q 343 810 243 867 q 461 757 426 760 q 512 787 486 756 q 542 863 538 818 q 571 847 557 856 q 600 831 585 839 z "},"̈":{"ha":611,"x_min":136,"x_max":499,"o":"m 499 703 q 481 663 499 681 q 442 644 464 644 q 399 662 417 644 q 382 703 382 679 q 399 744 382 726 q 442 763 417 763 q 481 744 463 763 q 499 703 499 726 m 254 706 q 237 665 254 683 q 196 647 219 647 q 153 665 171 647 q 136 706 136 682 q 154 746 136 728 q 196 764 172 764 q 236 746 218 764 q 254 706 254 728 z "},"̉":{"ha":0,"x_min":-104,"x_max":94,"o":"m 94 813 q 56 732 94 776 q 18 683 18 686 q 28 663 18 672 q 23 657 28 661 q 11 648 18 653 q -2 640 4 643 q -10 636 -8 636 q -33 682 -35 656 q 1 746 -31 707 q 36 808 36 786 q -22 854 36 860 q -68 817 -50 851 q -78 823 -69 818 q -104 839 -87 828 q -66 886 -96 868 q -4 904 -36 904 q 65 880 36 904 q 94 813 94 856 z "},"̒":{"ha":265,"x_min":82,"x_max":192,"o":"m 82 739 q 192 904 82 878 l 192 856 q 135 747 135 843 l 174 747 l 174 654 l 82 654 l 82 739 z "},"̓":{"ha":224,"x_min":17,"x_max":207,"o":"m 188 822 q 207 757 207 790 q 179 682 207 714 q 58 639 140 639 q 40 639 49 639 q 22 640 32 639 l 22 678 q 119 694 85 676 q 143 739 143 710 q 113 794 143 775 q 17 807 83 813 l 17 878 q 188 822 150 885 z "},"̔":{"ha":194,"x_min":17,"x_max":178,"o":"m 178 807 q 110 792 142 810 q 78 736 78 774 q 101 693 78 708 q 175 676 136 672 l 175 639 q 43 681 85 632 q 17 754 17 711 q 36 821 17 786 q 178 878 72 882 l 178 807 z "},"̣":{"ha":0,"x_min":-74,"x_max":74,"o":"m 74 -229 q 52 -281 74 -260 q 0 -303 31 -303 q -52 -281 -31 -303 q -74 -229 -74 -260 q -52 -177 -74 -199 q 0 -156 -31 -156 q 53 -176 32 -156 q 74 -229 74 -197 z "},"̦":{"ha":694,"x_min":233,"x_max":343,"o":"m 343 -232 q 233 -397 343 -371 l 233 -349 q 290 -240 290 -337 l 251 -240 l 251 -147 l 343 -147 l 343 -232 z "},"̧":{"ha":532,"x_min":160,"x_max":356,"o":"m 340 -185 q 224 -242 307 -247 q 160 -222 178 -237 l 194 -167 q 232 -175 213 -175 q 278 -136 272 -175 q 213 -67 285 -87 q 254 17 208 -67 l 325 15 l 294 -40 q 356 -131 356 -72 q 340 -185 356 -157 z "},"̨":{"ha":500,"x_min":113,"x_max":376,"o":"m 376 -268 q 243 -303 331 -304 q 147 -268 183 -303 q 113 -182 110 -233 q 123 -127 114 -157 q 147 -69 132 -97 q 181 -14 161 -40 q 222 32 200 13 l 317 32 q 200 -131 260 -21 q 192 -160 192 -146 q 208 -199 192 -183 q 253 -215 225 -215 q 346 -185 307 -215 l 376 -268 z "},"͂":{"ha":550,"x_min":17,"x_max":533,"o":"m 533 785 q 393 646 490 646 q 246 704 343 646 q 144 749 168 750 q 81 656 106 747 l 17 682 q 138 818 65 814 q 275 763 182 821 q 394 711 353 714 q 445 740 419 710 q 475 815 471 771 q 504 801 490 808 q 533 785 518 793 z "},"̓":{"ha":224,"x_min":17,"x_max":207,"o":"m 188 822 q 207 757 207 790 q 179 682 207 714 q 58 639 140 639 q 40 639 49 639 q 22 640 32 639 l 22 678 q 119 694 85 676 q 143 739 143 710 q 113 794 143 775 q 17 807 83 813 l 17 878 q 188 822 150 885 z "},"ͅ":{"ha":0,"x_min":275,"x_max":406,"o":"m 406 -261 q 381 -281 396 -272 q 351 -298 367 -290 q 320 -309 336 -306 q 292 -310 304 -312 q 275 -96 264 -307 l 336 -96 q 331 -156 333 -129 q 329 -201 329 -182 q 335 -237 329 -236 q 371 -225 343 -242 q 406 -201 396 -211 l 406 -261 z "},"ʹ":{"ha":411,"x_min":110,"x_max":325,"o":"m 325 838 l 185 610 l 110 639 l 231 885 l 325 838 z "},"͵":{"ha":0,"x_min":-258,"x_max":-42,"o":"m -258 -187 l -96 -1 l -42 -50 l -185 -254 l -258 -187 z "},"ͺ":{"ha":0,"x_min":275,"x_max":406,"o":"m 406 -261 q 381 -281 396 -272 q 351 -298 367 -290 q 320 -309 336 -306 q 292 -310 304 -312 q 275 -96 264 -307 l 336 -96 q 331 -156 333 -129 q 329 -201 329 -182 q 335 -237 329 -236 q 371 -225 343 -242 q 406 -201 396 -211 l 406 -261 z "},";":{"ha":361,"x_min":126,"x_max":247,"o":"m 131 493 q 149 534 131 517 q 189 551 167 551 q 230 534 213 551 q 247 493 247 517 q 230 452 247 469 q 189 435 213 435 q 149 452 167 435 q 131 493 131 469 m 247 44 q 138 -114 240 -92 l 138 -65 q 189 -17 185 -56 q 146 1 165 -17 q 126 46 126 19 q 145 89 126 71 q 189 107 164 107 q 231 89 213 107 q 247 44 249 71 z "},"΄":{"ha":310,"x_min":106,"x_max":261,"o":"m 261 850 l 176 618 l 106 640 l 167 882 l 261 850 z "},"΅":{"ha":329,"x_min":97,"x_max":526,"o":"m 526 717 q 509 676 526 693 q 468 658 492 658 q 428 676 444 658 q 411 717 411 693 q 428 758 411 739 q 468 776 444 776 q 509 758 492 776 q 526 717 526 739 m 406 850 l 319 618 l 250 640 l 311 882 l 406 850 m 215 719 q 198 678 215 696 q 157 661 181 661 q 115 678 132 661 q 97 719 97 696 q 115 760 97 742 q 157 778 132 778 q 197 759 179 778 q 215 719 215 740 z "},"Ά":{"ha":851,"x_min":25,"x_max":810,"o":"m 181 875 l 96 643 l 25 665 l 88 907 l 181 875 m 810 0 l 690 0 q 596 285 678 54 l 242 285 q 142 0 156 63 l 40 0 q 378 879 108 135 l 476 879 q 557 659 519 761 q 626 469 594 557 q 810 0 781 49 m 567 369 q 490 590 525 486 q 426 788 454 694 q 272 369 396 693 l 567 369 z "},"·":{"ha":301,"x_min":63,"x_max":239,"o":"m 239 542 q 213 480 239 506 q 151 454 188 454 q 88 479 114 454 q 63 542 63 504 q 88 603 63 578 q 151 629 114 629 q 213 603 188 629 q 239 542 239 578 z "},"Έ":{"ha":893,"x_min":25,"x_max":833,"o":"m 833 3 q 674 8 744 6 q 547 10 603 10 q 267 1 460 10 q 281 464 281 47 q 267 888 281 840 q 511 879 360 879 q 638 880 567 878 q 799 886 710 882 q 799 757 792 838 l 729 757 q 726 779 726 778 q 718 792 726 783 q 629 801 713 801 l 372 801 q 372 508 371 658 l 589 508 q 719 528 685 510 l 719 411 q 372 428 654 432 q 372 88 371 272 l 665 88 q 753 104 738 88 q 765 147 761 117 l 833 147 q 833 3 829 49 m 181 875 l 96 643 l 25 665 l 88 907 l 181 875 z "},"Ή":{"ha":1046,"x_min":25,"x_max":958,"o":"m 958 0 l 832 0 q 845 132 842 32 q 847 400 849 232 l 364 400 q 381 0 364 64 l 257 0 q 274 178 271 50 q 272 215 272 151 q 272 433 272 279 q 272 648 272 585 q 274 686 272 711 q 257 863 272 810 l 381 863 q 363 485 360 783 l 847 485 q 845 737 849 643 q 832 863 842 831 l 957 863 q 943 686 946 814 l 943 431 l 943 179 q 948 71 944 115 q 958 0 951 26 m 181 875 l 96 643 l 25 665 l 88 907 l 181 875 z "},"Ί":{"ha":471,"x_min":25,"x_max":368,"o":"m 181 875 l 96 643 l 25 665 l 88 907 l 181 875 m 368 863 q 351 431 351 797 l 351 179 q 356 71 353 115 q 367 0 360 26 l 244 0 q 261 178 258 50 q 260 215 260 151 q 260 433 260 279 q 260 648 260 585 q 261 686 260 711 q 244 863 260 810 l 368 863 z "},"Ό":{"ha":1115,"x_min":25,"x_max":1042,"o":"m 1042 421 q 926 99 1042 235 q 625 -42 806 -42 q 319 99 439 -42 q 208 421 208 231 q 313 751 208 619 q 625 893 426 893 q 940 751 825 893 q 1042 421 1042 624 m 939 421 q 863 692 939 590 q 624 800 779 800 q 390 681 478 800 q 310 419 310 574 q 394 167 310 274 q 625 51 485 51 q 856 165 767 51 q 939 421 939 271 m 181 875 l 96 643 l 25 665 l 88 907 l 181 875 z "},"Ύ":{"ha":943,"x_min":25,"x_max":924,"o":"m 924 863 q 764 642 881 815 q 697 538 731 589 q 629 433 664 486 q 631 306 631 369 q 632 179 631 243 q 646 0 635 49 l 524 0 q 540 178 539 53 l 540 433 q 464 550 501 492 q 388 668 426 608 q 239 863 275 838 l 389 863 q 428 749 379 821 l 592 510 l 743 747 q 786 863 792 826 l 924 863 m 181 875 l 96 643 l 25 665 l 88 907 l 181 875 z "},"Ώ":{"ha":1128,"x_min":25,"x_max":1051,"o":"m 1051 151 q 1049 7 1039 56 l 688 7 q 688 71 690 68 q 797 244 713 143 q 878 371 844 300 q 919 535 921 463 q 841 734 917 661 q 632 807 765 807 q 422 734 499 807 q 343 535 346 661 q 385 371 342 463 q 465 244 421 300 q 540 144 513 186 q 575 71 568 101 q 576 7 576 69 l 214 7 q 211 151 222 65 l 281 151 q 292 110 283 121 q 367 93 304 93 l 457 93 q 386 199 456 124 q 363 228 375 210 q 337 266 350 246 q 312 306 324 286 q 292 343 300 326 q 238 521 239 446 q 338 785 233 675 q 633 900 450 900 q 925 786 817 900 q 1022 524 1028 679 q 971 344 1019 447 q 876 199 928 257 q 806 93 807 124 l 896 93 q 971 110 960 93 q 982 151 979 121 l 1051 151 m 181 878 l 96 646 l 25 668 l 86 910 l 181 878 z "},"ΐ":{"ha":329,"x_min":-56,"x_max":374,"o":"m 292 26 q 222 -11 267 6 q 147 -26 182 -29 q 131 58 131 -25 q 135 167 131 97 q 138 206 136 186 q 140 246 139 226 q 142 478 146 472 q 133 481 139 481 q 120 478 129 481 q 101 472 111 475 q 85 467 92 469 q 78 464 78 464 l 69 538 q 117 549 89 543 q 181 561 144 554 q 221 536 217 568 q 221 459 222 513 q 215 322 219 406 q 208 175 210 231 q 206 100 206 119 q 210 63 206 64 q 292 94 222 57 l 292 26 m 374 717 q 356 676 374 693 q 315 658 339 658 q 275 676 292 658 q 258 717 258 693 q 275 758 258 739 q 315 776 292 776 q 356 758 339 776 q 374 717 374 739 m 253 850 l 167 618 l 97 640 l 158 882 l 253 850 m 63 719 q 45 678 63 696 q 4 661 28 661 q -38 678 -21 661 q -56 719 -56 696 q -38 760 -56 742 q 4 778 -21 778 q 44 759 26 778 q 63 719 63 740 z "},"Α":{"ha":851,"x_min":32,"x_max":815,"o":"m 815 0 l 689 0 q 593 285 679 44 l 244 285 q 143 0 156 58 l 32 0 q 378 879 100 135 l 476 879 q 558 659 519 761 q 629 469 596 557 q 815 0 785 51 m 564 369 q 491 583 525 479 q 426 788 457 688 q 369 624 407 728 q 274 369 332 521 l 564 369 z "},"Β":{"ha":814,"x_min":119,"x_max":725,"o":"m 725 236 q 622 44 725 107 q 440 -1 547 -1 l 119 -1 q 136 174 133 50 l 136 428 q 136 640 136 558 q 135 753 136 721 q 130 814 133 785 q 119 869 126 843 l 438 869 q 701 646 701 869 q 649 514 701 571 q 539 450 601 464 q 660 383 603 435 q 725 236 725 318 m 618 646 q 529 782 618 744 q 428 801 482 801 l 218 800 l 218 482 l 428 482 q 528 504 482 482 q 618 646 618 546 m 633 236 q 532 385 631 335 q 421 417 468 417 l 218 417 l 218 75 l 433 75 q 633 236 636 75 z "},"Γ":{"ha":688,"x_min":85,"x_max":653,"o":"m 653 718 l 583 718 q 569 769 582 753 q 485 785 558 785 l 192 785 l 192 418 q 192 217 192 293 q 193 110 192 140 q 198 53 194 81 q 208 -1 201 25 l 85 -1 q 95 67 92 25 q 100 169 99 110 l 100 418 q 86 869 100 824 q 192 865 122 867 q 365 863 261 864 q 492 863 421 861 q 653 868 564 865 q 653 718 646 811 z "},"Δ":{"ha":851,"x_min":40,"x_max":810,"o":"m 810 0 l 40 0 q 378 879 108 135 l 476 879 q 557 659 519 761 q 626 469 594 557 q 810 0 781 49 m 671 75 q 425 788 576 342 q 378 647 410 736 q 297 426 346 557 q 213 197 244 283 q 169 75 181 110 l 671 75 z "},"Ε":{"ha":729,"x_min":107,"x_max":674,"o":"m 674 -7 q 514 -1 585 -3 q 388 0 443 1 q 274 -3 344 -1 q 107 -8 204 -6 q 121 450 121 38 q 107 869 121 824 q 351 861 200 864 q 478 862 407 860 q 639 868 550 864 q 639 735 632 819 l 569 735 q 567 757 567 757 q 558 769 567 761 q 469 779 553 779 l 213 779 q 213 497 210 650 q 560 517 514 497 l 560 397 q 213 414 494 418 q 213 83 211 260 l 506 83 q 593 100 581 83 q 606 143 601 113 l 674 143 q 674 -7 667 40 z "},"Ζ":{"ha":813,"x_min":86,"x_max":769,"o":"m 769 863 l 217 79 l 582 79 q 669 97 657 79 q 681 139 681 111 l 751 139 q 751 -14 744 43 q 444 -6 556 -3 q 293 -5 382 -4 q 86 -8 204 -6 l 86 43 l 603 776 l 286 776 q 197 767 206 776 q 188 732 190 757 l 117 732 q 117 867 122 817 q 277 860 206 863 q 404 860 349 858 q 560 859 469 858 q 769 863 651 860 z "},"Η":{"ha":882,"x_min":103,"x_max":806,"o":"m 806 0 l 685 0 q 698 133 694 35 q 700 396 701 232 l 211 396 q 226 0 211 61 l 103 0 q 119 178 118 53 q 119 575 119 433 q 118 749 119 717 q 113 808 117 781 q 103 863 110 836 l 226 863 q 210 486 203 776 l 700 486 q 698 735 701 642 q 685 863 694 829 l 804 863 q 794 792 797 836 q 789 686 790 749 l 789 431 q 806 0 789 64 z "},"Θ":{"ha":988,"x_min":85,"x_max":918,"o":"m 918 421 q 803 99 918 235 q 501 -42 682 -42 q 196 99 315 -42 q 85 421 85 231 q 189 751 85 619 q 500 893 303 893 q 815 751 700 893 q 918 421 918 621 m 815 421 q 739 692 815 590 q 499 800 653 800 q 265 681 353 800 q 186 419 186 572 q 269 167 186 275 q 500 51 360 51 q 731 165 642 51 q 815 421 815 271 m 715 376 q 500 389 694 386 q 401 385 453 388 q 292 375 350 382 l 292 483 q 500 468 311 469 q 600 472 556 469 q 715 485 703 476 l 715 376 z "},"Ι":{"ha":319,"x_min":107,"x_max":229,"o":"m 229 863 q 219 792 222 836 q 214 686 215 749 l 214 431 l 214 179 q 228 0 217 49 l 107 0 q 124 178 122 53 q 124 575 124 433 q 122 749 124 717 q 117 808 121 781 q 107 863 114 836 l 229 863 z "},"Κ":{"ha":819,"x_min":90,"x_max":767,"o":"m 767 0 l 615 0 q 551 114 596 60 q 496 175 532 138 q 407 264 460 213 q 200 442 281 386 l 371 614 q 471 715 435 678 q 518 764 507 753 q 569 865 567 821 l 743 865 q 611 740 699 832 q 521 647 567 693 q 431 556 475 601 q 387 513 413 538 q 329 456 361 488 q 475 331 418 382 q 767 0 678 140 m 214 865 q 197 436 197 800 l 197 182 q 202 71 199 115 q 213 0 206 26 l 90 0 q 107 178 106 53 q 107 576 107 435 q 106 750 107 718 q 101 810 104 782 q 90 865 97 839 l 214 865 z "},"Λ":{"ha":850,"x_min":40,"x_max":810,"o":"m 810 0 l 690 0 q 655 116 683 29 q 576 349 626 203 q 501 568 539 458 q 425 788 464 678 q 267 346 396 697 q 184 113 214 199 q 149 0 154 28 l 40 0 q 378 879 108 135 l 476 879 q 557 659 519 761 q 626 469 594 557 q 810 0 781 49 z "},"Μ":{"ha":1060,"x_min":97,"x_max":976,"o":"m 976 865 q 949 692 956 826 q 947 600 947 665 q 946 429 946 535 l 946 175 q 951 69 947 113 q 961 0 954 26 l 844 0 q 855 70 851 26 q 860 176 858 114 l 860 426 l 860 768 q 763 544 844 704 q 533 124 681 383 q 383 390 447 271 q 208 761 231 675 l 208 426 l 208 176 q 213 69 210 113 q 224 0 217 25 l 111 0 q 122 69 118 26 q 126 175 125 113 l 126 429 q 126 600 126 535 q 125 692 126 665 q 97 865 118 826 l 233 865 l 532 294 l 836 865 l 976 865 z "},"Ν":{"ha":883,"x_min":88,"x_max":803,"o":"m 803 865 q 792 795 796 839 q 788 688 789 751 q 789 661 789 725 q 789 431 789 597 l 789 0 l 708 0 q 588 174 644 92 q 482 328 531 256 q 294 607 364 501 q 200 754 224 713 l 200 431 l 200 179 q 205 71 201 115 q 215 0 208 26 l 100 0 q 110 70 107 26 q 115 178 114 114 l 115 433 q 115 604 115 539 q 114 694 115 669 q 88 865 107 828 q 218 865 219 864 q 334 705 279 782 q 439 556 389 628 q 617 287 553 390 q 700 140 682 183 l 700 432 q 700 649 700 586 q 701 688 700 713 q 685 865 700 813 l 803 865 z "},"Ξ":{"ha":824,"x_min":61,"x_max":743,"o":"m 743 107 q 737 79 739 93 q 733 50 735 65 q 729 13 731 28 q 726 -11 728 -3 q 566 -5 638 -7 q 439 -4 494 -3 q 79 -12 314 -4 q 79 50 76 51 l 535 413 l 107 413 q 108 449 111 413 l 567 786 l 267 786 q 147 778 157 786 q 129 746 138 772 l 61 746 q 74 791 67 761 q 88 868 81 821 q 248 863 176 865 q 375 863 319 861 q 525 866 438 864 q 729 872 613 868 l 729 813 l 274 482 l 694 483 l 694 440 l 228 68 l 542 68 q 663 78 649 68 q 682 107 671 83 l 743 107 z "},"Ο":{"ha":968,"x_min":85,"x_max":893,"o":"m 893 422 q 782 117 893 243 q 489 -14 665 -14 q 193 117 306 -14 q 85 422 85 239 q 186 743 85 617 q 489 881 296 881 q 794 743 683 881 q 893 422 893 617 m 793 422 q 719 685 793 586 q 488 790 639 790 q 261 674 346 790 q 183 421 183 568 q 265 183 183 282 q 489 76 353 76 q 713 182 628 76 q 793 422 793 279 z "},"Π":{"ha":881,"x_min":49,"x_max":847,"o":"m 233 790 l 233 418 q 251 -1 233 65 l 125 -1 q 135 53 132 25 q 140 110 139 81 q 142 217 142 140 q 142 418 142 293 l 142 788 q 49 775 86 786 l 49 879 q 181 872 81 874 q 453 869 282 869 q 719 872 624 869 q 847 879 815 874 l 847 775 q 754 788 810 786 l 754 418 q 754 217 754 293 q 756 110 754 140 q 760 53 757 81 q 771 -1 764 25 l 644 -1 q 663 418 663 65 l 663 790 l 453 790 l 233 790 z "},"Ρ":{"ha":710,"x_min":107,"x_max":667,"o":"m 667 622 q 567 425 667 493 q 410 371 496 378 q 374 370 397 371 q 322 369 350 369 q 265 368 293 368 q 217 368 238 368 q 216 337 217 349 q 215 306 215 325 q 215 249 215 286 q 214 144 214 213 q 219 62 215 97 q 229 0 222 26 l 107 0 q 117 69 114 26 q 122 174 121 111 l 122 429 l 122 685 q 117 794 121 750 q 107 865 114 839 l 411 865 q 564 819 490 865 q 667 622 667 753 m 569 622 q 531 732 569 693 q 458 774 503 761 q 433 778 446 776 q 410 782 421 779 q 218 786 369 788 l 217 451 q 348 451 300 450 q 410 454 396 451 q 569 622 571 478 z "},"Σ":{"ha":810,"x_min":82,"x_max":747,"o":"m 747 144 q 743 -4 732 46 q 383 0 493 1 q 263 -1 338 -1 q 83 -1 188 -1 q 83 83 86 86 q 133 129 86 86 q 271 257 179 172 q 463 431 461 431 q 82 781 465 431 l 82 865 q 498 865 338 863 q 729 872 658 867 q 729 736 724 838 l 660 736 q 657 758 657 758 q 649 772 657 761 q 560 782 640 782 l 208 782 l 593 435 l 199 86 l 592 86 q 667 103 654 86 q 678 144 675 114 l 747 144 z "},"Τ":{"ha":889,"x_min":60,"x_max":839,"o":"m 839 724 l 769 724 q 758 775 768 758 q 671 792 742 792 l 493 792 l 493 418 q 493 196 493 258 q 492 169 493 133 q 497 67 493 110 q 507 0 500 25 l 386 0 q 403 169 401 53 l 403 418 l 403 793 l 228 793 q 142 776 158 793 q 131 725 132 760 l 60 725 q 60 865 67 813 l 839 865 q 839 724 835 819 z "},"Υ":{"ha":729,"x_min":19,"x_max":718,"o":"m 718 865 q 654 785 694 840 q 554 642 614 729 q 485 536 519 589 q 415 431 450 483 q 417 304 417 367 q 418 178 417 242 q 432 0 421 49 l 310 0 q 326 176 325 53 l 326 431 q 249 549 288 490 q 171 668 210 608 q 75 804 113 756 q 19 865 38 853 l 181 865 q 224 756 178 828 l 378 510 l 529 754 q 578 865 575 829 l 718 865 z "},"Φ":{"ha":936,"x_min":53,"x_max":875,"o":"m 875 440 q 789 215 875 308 q 515 104 692 111 q 529 0 519 36 l 406 0 q 419 103 413 18 q 143 211 244 103 q 53 440 53 306 q 142 681 53 586 q 418 790 242 790 q 406 863 417 826 l 528 863 q 519 790 526 842 q 796 681 703 790 q 875 440 875 589 m 782 440 q 515 718 785 714 q 514 607 514 678 q 514 435 514 536 l 514 181 q 721 261 650 181 q 782 440 782 331 m 422 181 l 422 433 q 422 626 422 556 q 421 717 422 697 q 219 642 290 717 q 150 442 149 568 q 211 261 153 328 q 422 181 282 181 z "},"Χ":{"ha":882,"x_min":-3,"x_max":865,"o":"m 865 0 l 721 0 q 649 135 701 46 l 442 406 l 221 135 q 144 0 175 81 l -3 0 q 390 464 19 47 q 240 651 304 569 q 47 869 82 844 l 204 869 q 282 740 214 843 l 447 524 l 611 736 q 681 869 651 790 l 824 869 q 712 731 792 832 q 503 463 632 629 q 600 347 556 400 q 682 247 644 293 q 865 0 861 26 z "},"Ψ":{"ha":889,"x_min":47,"x_max":842,"o":"m 842 863 q 747 544 849 664 q 490 413 654 432 q 492 139 489 242 q 506 0 496 36 l 383 0 q 394 68 390 26 q 399 169 397 110 l 399 414 q 137 547 228 433 q 47 863 46 661 l 156 863 q 149 813 149 839 q 163 715 149 767 q 236 581 181 640 q 397 500 304 510 q 383 863 400 804 l 506 863 q 492 683 492 808 l 496 500 q 726 713 671 524 q 728 863 750 792 l 842 863 z "},"Ω":{"ha":986,"x_min":74,"x_max":914,"o":"m 914 144 q 911 0 901 49 l 550 0 q 550 64 553 61 q 660 238 575 136 q 740 364 707 293 q 782 528 783 456 q 703 727 779 654 q 494 800 628 800 q 285 727 361 800 q 206 528 208 654 q 247 364 204 456 q 328 238 283 293 q 403 137 375 179 q 438 64 431 94 q 439 0 439 63 l 76 0 q 74 144 85 58 l 143 144 q 154 103 146 114 q 229 86 167 86 l 319 86 q 249 192 318 117 q 225 221 238 203 q 199 259 213 239 q 174 299 186 279 q 154 336 163 319 q 100 514 101 439 q 200 778 96 668 q 496 893 313 893 q 788 779 679 893 q 885 517 890 672 q 833 338 882 440 q 739 192 790 250 q 668 86 669 117 l 758 86 q 833 103 822 86 q 844 144 842 114 l 914 144 z "},"Ϊ":{"ha":319,"x_min":-29,"x_max":333,"o":"m 243 863 q 233 792 236 836 q 228 686 229 749 l 228 431 l 228 179 q 242 0 231 49 l 121 0 q 138 178 136 53 q 138 575 138 433 q 136 749 138 717 q 131 808 135 781 q 121 863 128 836 l 243 863 m 333 1014 q 317 974 333 992 q 276 956 300 956 q 234 973 251 956 q 217 1014 217 990 q 234 1056 217 1038 q 276 1074 251 1074 q 316 1056 299 1074 q 333 1014 333 1038 m 89 1014 q 72 974 89 992 q 31 956 56 956 q -11 973 7 956 q -29 1014 -29 990 q -11 1054 -29 1036 q 31 1072 7 1072 q 71 1054 53 1072 q 89 1014 89 1036 z "},"Ϋ":{"ha":729,"x_min":19,"x_max":718,"o":"m 718 865 q 654 785 694 840 q 554 642 614 729 q 485 536 519 589 q 415 431 450 483 q 417 304 417 367 q 418 178 417 242 q 432 0 421 49 l 310 0 q 326 176 325 53 l 326 431 q 249 549 288 490 q 171 668 210 608 q 75 804 113 756 q 19 865 38 853 l 181 865 q 224 756 178 828 l 378 510 l 529 754 q 578 865 575 829 l 718 865 m 522 1014 q 506 974 522 992 q 465 956 489 956 q 423 973 440 956 q 406 1014 406 990 q 423 1056 406 1038 q 465 1074 440 1074 q 505 1056 488 1074 q 522 1014 522 1038 m 278 1014 q 261 974 278 992 q 219 956 244 956 q 178 973 196 956 q 160 1014 160 990 q 178 1054 160 1036 q 219 1072 196 1072 q 260 1054 242 1072 q 278 1014 278 1036 z "},"ά":{"ha":750,"x_min":56,"x_max":699,"o":"m 471 847 l 385 615 l 315 638 l 376 879 l 471 847 m 699 71 l 683 -14 q 554 125 574 42 q 460 26 525 63 q 325 -11 396 -11 q 124 74 199 -11 q 56 274 56 151 q 125 463 56 381 q 325 551 201 551 q 557 414 479 551 q 686 568 575 511 l 694 482 q 592 272 592 388 q 699 71 592 132 m 518 272 q 458 410 518 350 q 322 469 400 469 q 199 411 254 469 q 144 274 144 354 q 158 190 144 228 q 194 126 171 153 q 251 84 218 99 q 325 69 285 69 q 461 126 404 69 q 518 272 518 183 z "},"έ":{"ha":514,"x_min":83,"x_max":440,"o":"m 414 847 l 329 615 l 258 638 l 319 879 l 414 847 m 440 511 l 408 447 q 293 489 368 489 q 239 482 269 489 q 171 403 171 464 q 253 313 171 336 q 413 319 299 300 l 413 238 q 231 229 299 251 q 156 132 150 203 q 292 43 163 32 q 419 88 360 50 l 439 25 q 276 -25 382 -19 q 156 6 211 -28 q 83 115 89 46 q 117 229 78 183 q 196 276 150 267 q 96 408 96 311 q 150 514 96 469 q 285 560 206 560 q 440 511 376 560 z "},"ή":{"ha":688,"x_min":32,"x_max":626,"o":"m 442 847 l 357 615 l 286 638 l 347 879 l 442 847 m 626 -250 l 532 -250 l 533 274 q 528 358 532 322 q 518 415 525 393 q 425 490 493 489 q 301 454 354 492 l 256 413 l 256 -10 l 165 -10 q 173 209 171 124 q 175 335 175 294 q 164 474 175 458 q 151 479 160 479 q 68 406 131 479 l 32 465 q 51 488 39 475 q 83 517 64 501 q 175 561 139 561 q 253 486 238 561 q 438 561 325 561 q 576 501 533 561 q 624 272 621 436 l 626 -250 z "},"ί":{"ha":329,"x_min":69,"x_max":292,"o":"m 288 847 l 201 615 l 132 638 l 193 879 l 288 847 m 292 26 q 222 -11 267 6 q 147 -26 182 -29 q 131 58 131 -25 q 135 167 131 97 q 138 206 136 186 q 140 246 139 226 q 142 478 146 472 q 133 481 139 481 q 120 478 129 481 q 101 472 111 475 q 85 467 92 469 q 78 464 78 464 l 69 538 q 117 549 89 543 q 181 561 144 554 q 221 536 217 568 q 221 459 222 513 q 215 322 219 406 q 208 175 210 231 q 206 100 206 119 q 210 63 206 64 q 292 94 222 57 l 292 26 z "},"ΰ":{"ha":674,"x_min":63,"x_max":621,"o":"m 556 714 q 539 674 556 692 q 497 656 522 656 q 458 673 475 656 q 440 714 440 690 q 458 756 440 738 q 497 774 475 774 q 538 756 521 774 q 556 714 556 738 m 435 847 l 349 615 l 279 638 l 340 879 l 435 847 m 244 717 q 227 676 244 694 q 186 658 210 658 q 144 676 161 658 q 126 717 126 693 q 144 757 126 739 q 186 775 161 775 q 226 757 208 775 q 244 717 244 739 m 621 475 q 588 467 592 476 l 581 325 q 573 215 578 257 q 563 154 568 172 q 339 -11 510 -11 q 119 154 168 -11 q 108 228 113 182 q 101 342 103 275 q 94 467 99 463 q 80 469 88 468 q 63 474 72 471 l 63 536 l 189 536 l 185 482 q 183 303 178 382 q 208 164 189 224 q 259 94 222 121 q 340 69 296 68 q 482 181 450 74 q 496 258 492 211 q 501 367 500 304 l 501 490 q 531 539 506 531 q 621 539 553 544 l 621 475 z "},"α":{"ha":750,"x_min":56,"x_max":699,"o":"m 699 71 l 683 -14 q 554 125 574 42 q 460 26 525 63 q 325 -11 396 -11 q 124 74 199 -11 q 56 274 56 151 q 125 463 56 381 q 325 551 201 551 q 557 414 479 551 q 686 568 575 511 l 694 482 q 592 272 592 388 q 699 71 592 132 m 518 272 q 458 410 518 350 q 322 469 400 469 q 199 411 254 469 q 144 274 144 354 q 158 190 144 228 q 194 126 171 153 q 251 84 218 99 q 325 69 285 69 q 461 126 404 69 q 518 272 518 183 z "},"β":{"ha":689,"x_min":94,"x_max":656,"o":"m 656 263 q 592 71 660 143 q 376 -11 517 -11 q 179 60 251 -11 q 183 -289 176 -107 l 94 -289 q 96 -126 96 -269 q 96 292 96 18 q 106 676 96 629 q 188 807 122 761 q 329 850 244 847 q 493 790 426 851 q 553 635 557 731 q 465 474 549 529 q 586 417 532 467 q 656 263 651 353 m 569 274 q 521 372 564 336 q 415 407 478 407 q 275 372 349 407 l 275 453 q 468 618 465 482 q 430 725 469 685 q 329 763 390 765 q 185 624 203 758 q 181 163 174 550 q 375 79 256 82 q 460 94 422 79 q 524 134 499 108 q 562 196 550 160 q 569 274 574 232 z "},"γ":{"ha":774,"x_min":21,"x_max":765,"o":"m 765 493 q 654 374 700 428 q 563 256 608 318 q 474 124 518 194 q 294 -339 367 -46 l 210 -308 q 247 -181 228 -242 q 290 -62 267 -121 q 325 101 325 24 q 300 228 325 146 q 240 351 274 314 q 21 486 157 447 l 54 551 q 267 440 189 525 q 394 136 390 308 q 589 419 471 278 q 701 542 671 518 l 765 493 z "},"δ":{"ha":679,"x_min":82,"x_max":608,"o":"m 608 263 q 540 71 608 147 q 351 -11 467 -11 q 154 64 226 -11 q 82 263 81 143 q 140 425 83 350 q 285 525 196 501 q 114 644 169 579 q 90 718 90 672 q 181 838 90 806 q 271 851 218 851 q 450 818 351 851 q 556 772 515 796 l 533 693 q 239 781 365 786 q 171 722 171 779 q 176 694 171 707 q 299 597 192 657 q 384 551 342 574 q 469 504 426 528 q 571 399 533 465 q 608 263 608 333 m 525 264 q 442 432 524 369 q 357 476 404 461 q 229 411 290 476 q 168 264 171 349 q 221 117 165 168 q 353 68 274 68 q 475 124 424 68 q 525 264 528 181 z "},"ε":{"ha":514,"x_min":83,"x_max":440,"o":"m 440 511 l 408 447 q 293 489 368 489 q 239 482 269 489 q 171 403 171 464 q 253 313 171 336 q 413 319 299 300 l 413 238 q 231 229 299 251 q 156 132 150 203 q 292 43 163 32 q 419 88 360 50 l 439 25 q 276 -25 382 -19 q 156 6 211 -28 q 83 115 89 46 q 117 229 78 183 q 196 276 150 267 q 96 408 96 311 q 150 514 96 469 q 285 560 206 560 q 440 511 376 560 z "},"ζ":{"ha":540,"x_min":79,"x_max":508,"o":"m 508 -75 q 351 -232 506 -207 q 271 -240 306 -237 l 271 -161 q 310 -162 289 -164 q 349 -156 331 -161 q 384 -145 368 -151 q 408 -131 400 -139 q 431 -71 433 -111 q 347 -11 426 -11 q 331 -11 340 -11 q 308 -12 321 -11 q 283 -14 293 -14 q 267 -15 272 -14 q 124 42 172 -18 q 79 171 82 90 q 158 494 75 324 q 350 761 214 613 q 288 759 314 758 q 247 763 263 760 q 208 777 226 768 q 171 797 189 786 l 217 860 q 235 851 226 854 q 251 844 244 847 q 329 828 296 829 q 481 860 397 828 l 481 814 q 343 655 401 735 q 244 492 285 575 q 165 217 165 326 q 166 192 165 204 q 168 167 167 179 q 294 60 179 60 q 329 63 306 60 q 365 65 353 65 q 469 28 429 65 q 508 -75 508 -8 z "},"η":{"ha":688,"x_min":32,"x_max":626,"o":"m 626 -250 l 532 -250 l 533 274 q 528 358 532 322 q 518 415 525 393 q 425 490 493 489 q 301 454 354 492 l 256 413 l 256 -10 l 165 -10 q 173 209 171 124 q 175 335 175 294 q 164 474 175 458 q 151 479 160 479 q 68 406 131 479 l 32 465 q 51 488 39 475 q 83 517 64 501 q 175 561 139 561 q 253 486 238 561 q 438 561 325 561 q 576 501 533 561 q 624 272 621 436 l 626 -250 z "},"θ":{"ha":618,"x_min":50,"x_max":588,"o":"m 588 432 l 538 432 q 319 -24 538 -24 q 93 432 93 -24 q 50 431 51 432 l 50 494 l 94 494 q 319 851 111 851 q 475 771 425 851 q 536 493 525 692 l 588 493 l 588 432 m 456 499 q 319 782 450 782 q 172 499 185 782 q 215 498 192 499 q 265 497 238 497 l 367 497 l 456 499 m 457 424 q 319 428 419 425 q 260 427 297 428 q 171 425 224 426 q 319 57 167 57 q 457 424 457 57 z "},"ι":{"ha":329,"x_min":69,"x_max":292,"o":"m 292 26 q 222 -11 267 6 q 147 -26 182 -29 q 131 58 131 -25 q 135 167 131 97 q 138 206 136 186 q 140 246 139 226 q 142 478 146 472 q 133 481 139 481 q 120 478 129 481 q 101 472 111 475 q 85 467 92 469 q 78 464 78 464 l 69 538 q 117 549 89 543 q 181 561 144 554 q 221 536 217 568 q 221 459 222 513 q 215 322 219 406 q 208 175 210 231 q 206 100 206 119 q 210 63 206 64 q 292 94 222 57 l 292 26 z "},"κ":{"ha":619,"x_min":58,"x_max":621,"o":"m 621 19 l 564 -37 l 276 247 l 196 182 q 196 72 194 85 q 232 0 200 31 q 149 -28 188 -28 q 133 -26 138 -28 q 118 71 118 -22 q 120 103 118 60 q 125 246 122 146 q 126 478 131 472 q 118 481 124 481 q 89 472 107 481 q 63 464 65 464 l 58 538 q 103 549 76 543 q 165 561 129 554 q 195 556 181 564 q 211 536 210 549 q 199 269 213 486 q 320 380 238 303 q 531 579 403 457 l 588 525 l 336 297 q 446 190 375 260 q 621 19 517 121 z "},"λ":{"ha":614,"x_min":-4,"x_max":600,"o":"m 600 60 q 590 22 601 46 q 557 -11 578 -3 q 518 -12 543 -17 q 474 13 488 -6 q 396 233 439 57 q 344 440 364 367 q 319 532 325 514 q 213 267 267 399 q 103 0 158 135 l 1 0 q 73 158 3 3 q 283 624 143 314 q 258 688 268 664 q 244 718 247 711 q 169 771 221 756 q 132 776 153 776 q 24 736 68 776 l -4 804 q 132 846 43 846 q 224 832 181 846 q 354 669 296 810 q 376 609 360 657 q 418 476 392 561 q 468 281 418 474 q 531 92 507 133 q 600 60 550 58 z "},"μ":{"ha":639,"x_min":90,"x_max":618,"o":"m 618 38 l 569 -28 q 552 -6 560 -17 q 538 15 544 4 q 506 67 519 42 q 486 115 493 92 q 317 -11 418 -11 q 156 108 192 -11 q 153 50 154 74 q 153 15 153 26 q 207 -229 153 -165 l 128 -264 q 90 -118 96 -217 q 90 57 88 -89 q 94 206 92 88 q 104 536 97 325 l 186 536 l 172 201 q 318 67 219 67 q 424 122 378 67 q 467 203 460 165 q 460 536 442 314 l 549 536 q 536 333 536 429 q 546 204 536 253 q 618 38 563 111 z "},"ν":{"ha":576,"x_min":79,"x_max":521,"o":"m 521 450 q 456 238 525 361 q 322 54 403 147 q 244 -24 253 -24 l 186 -24 q 167 222 189 -24 q 132 472 144 468 q 79 458 117 478 l 79 531 q 193 560 143 564 q 236 354 217 558 q 247 215 242 283 q 257 76 251 147 q 374 238 311 121 q 438 424 438 356 q 419 485 438 461 q 408 499 414 492 q 397 514 403 507 q 416 539 393 526 q 468 550 439 551 q 499 522 483 547 q 521 450 518 492 z "},"ξ":{"ha":532,"x_min":97,"x_max":510,"o":"m 508 -92 q 338 -243 494 -228 q 277 -247 306 -246 q 222 -246 249 -247 l 221 -171 q 331 -174 297 -179 q 431 -97 418 -161 q 433 -83 432 -90 q 433 -69 433 -76 q 361 -11 433 -11 q 174 36 242 -12 q 97 239 89 96 q 176 403 103 338 q 290 458 235 453 q 196 507 242 468 q 135 644 135 561 q 208 803 135 746 q 363 851 272 851 q 507 838 457 851 l 494 764 q 388 779 436 779 q 301 764 340 779 q 214 653 214 726 q 357 507 214 546 q 503 504 390 499 l 503 418 q 329 403 461 424 q 182 238 192 381 q 243 89 174 126 q 392 65 282 68 q 471 35 440 63 q 510 -67 510 0 q 510 -79 510 -74 q 508 -92 510 -85 z "},"ο":{"ha":654,"x_min":46,"x_max":608,"o":"m 608 269 q 528 67 608 143 q 329 -11 446 -11 q 121 72 201 -11 q 46 272 43 151 q 125 468 47 390 q 329 547 204 547 q 532 471 456 547 q 608 269 608 394 m 524 269 q 510 350 524 313 q 472 415 497 388 q 410 458 446 443 q 332 474 375 474 q 186 415 244 474 q 129 269 129 356 q 188 125 129 185 q 332 65 247 65 q 469 121 415 65 q 524 269 522 176 z "},"π":{"ha":872,"x_min":54,"x_max":849,"o":"m 849 547 l 847 464 q 653 468 749 468 l 643 231 q 658 63 638 63 q 706 85 671 63 l 731 26 q 593 -26 649 -26 q 560 106 560 -26 q 564 231 560 140 q 567 321 565 261 q 572 469 569 381 q 351 469 460 467 l 351 0 l 264 0 q 269 151 267 35 q 275 469 272 267 l 193 469 q 135 460 161 467 q 54 426 68 440 l 54 475 q 56 497 56 486 q 56 518 56 507 l 78 525 q 136 536 110 535 q 300 542 174 540 q 643 542 426 543 q 747 543 696 542 q 849 547 797 544 z "},"ρ":{"ha":675,"x_min":69,"x_max":606,"o":"m 606 274 q 526 67 606 146 q 331 -11 449 -11 q 154 83 229 -11 q 154 -8 154 43 q 156 -126 154 -60 l 156 -250 l 69 -250 q 74 272 74 -94 q 141 473 74 399 q 331 547 208 547 q 531 471 456 547 q 606 274 606 393 m 518 271 q 504 350 518 314 q 465 413 490 386 q 406 453 440 439 q 329 468 371 468 q 154 271 154 468 q 168 138 154 156 q 231 94 182 119 q 331 69 281 69 q 466 122 414 69 q 518 271 518 175 z "},"ς":{"ha":458,"x_min":65,"x_max":443,"o":"m 443 539 l 421 463 q 256 469 335 482 q 174 425 204 461 q 144 339 144 389 q 150 297 144 315 q 211 215 158 264 q 285 158 251 179 q 385 60 357 113 q 400 -28 400 25 q 236 -190 400 -160 q 182 -196 211 -196 q 119 -193 153 -196 l 119 -114 q 232 -115 186 -122 q 319 -28 317 -101 q 289 54 321 17 q 226 104 276 68 q 162 152 188 132 q 124 185 136 172 q 68 288 76 232 q 66 309 67 299 q 65 329 65 319 q 124 476 65 418 q 238 538 168 521 q 332 547 276 547 q 443 539 361 547 z "},"σ":{"ha":753,"x_min":65,"x_max":718,"o":"m 718 451 q 683 454 711 451 q 606 463 654 457 q 518 472 557 469 q 450 476 479 475 q 551 396 508 464 q 592 272 592 332 q 514 67 592 147 q 322 -11 436 -11 q 133 76 206 -11 q 65 274 65 157 q 132 451 65 374 q 324 536 207 536 q 542 535 444 536 q 718 531 640 533 l 718 451 m 504 272 q 450 401 504 347 q 324 457 399 457 q 204 403 256 457 q 151 274 151 347 q 164 192 151 229 q 199 126 176 154 q 253 83 221 99 q 322 67 285 67 q 394 81 361 67 q 452 122 428 94 q 490 186 476 149 q 504 272 504 224 z "},"τ":{"ha":633,"x_min":24,"x_max":615,"o":"m 615 457 l 390 457 q 388 368 389 425 q 383 231 386 311 q 381 183 382 207 q 378 136 379 160 q 389 61 375 61 q 400 65 393 61 q 414 72 407 68 q 427 81 421 76 q 436 85 433 85 q 444 66 439 81 q 460 26 450 51 q 322 -26 378 -28 q 296 63 296 -25 q 297 97 296 76 q 299 144 297 117 q 303 231 303 211 l 310 457 q 168 456 219 458 q 103 451 117 454 q 35 419 51 436 q 29 460 35 419 q 26 478 28 469 q 24 497 25 488 q 42 513 29 506 q 106 532 68 528 q 615 536 144 536 l 615 457 z "},"υ":{"ha":674,"x_min":63,"x_max":621,"o":"m 621 475 q 588 467 592 476 l 581 325 q 573 215 578 257 q 563 154 568 172 q 339 -11 510 -11 q 119 154 168 -11 q 108 228 113 182 q 101 342 103 275 q 94 467 99 463 q 80 469 88 468 q 63 474 72 471 l 63 536 l 189 536 l 185 482 q 183 303 178 382 q 208 164 189 224 q 259 94 222 121 q 340 69 296 68 q 482 181 450 74 q 496 258 492 211 q 501 367 500 304 l 501 490 q 531 539 506 531 q 621 539 553 544 l 621 475 z "}}}
